<svg width="20" height="20" viewBox="0 0 20 20" fill="none" xmlns="http://www.w3.org/2000/svg">
<g clip-path="url(#clip0_98_10864)">
<path d="M11.1322 15.653L10.6678 15.1886C10.5643 15.0851 10.4828 14.9609 10.4343 14.8227C9.83802 13.1211 7.91063 11.875 5.62501 11.875C3.33938 11.875 1.412 13.1211 0.815674 14.8227C0.767275 14.9609 0.685752 15.0851 0.582236 15.1886L0.117861 15.653C-0.0392871 15.8101 -0.0392871 16.0649 0.117861 16.2221L0.582236 16.6864C0.685752 16.79 0.767236 16.9142 0.815674 17.0523C1.412 18.7539 3.33938 20 5.62501 20C7.91063 20 9.83802 18.7539 10.4343 17.0523C10.4827 16.9141 10.5643 16.79 10.6678 16.6864L11.1322 16.2221C11.2893 16.0649 11.2893 15.8101 11.1322 15.653Z" fill="#FFC344"/>
<path d="M11.1325 15.653L10.6682 15.1886C10.5646 15.0851 10.4832 14.9609 10.4347 14.8227C10.0005 13.5838 8.8609 12.5865 7.39113 12.1356C8.06426 12.6363 8.56816 13.2848 8.82504 14.0179C8.87348 14.156 8.95496 14.2802 9.05848 14.3838L9.52285 14.8481C9.68 15.0053 9.68 15.2601 9.52285 15.4172L9.05852 15.8816C8.955 15.9851 8.87352 16.1093 8.82508 16.2475C8.22875 17.9491 6.30133 19.1952 4.01574 19.1952C3.39414 19.1952 2.79902 19.103 2.25 18.9346C3.13941 19.5963 4.32438 20 5.62539 20C7.91102 20 9.8384 18.7539 10.4347 17.0523C10.4831 16.9141 10.5646 16.7899 10.6682 16.6864L11.1325 16.222C11.2897 16.0649 11.2897 15.8101 11.1325 15.653Z" fill="#FEB237"/>
<path d="M14.0625 20C17.3417 20 20 17.3417 20 14.0625C20 10.7833 17.3417 8.125 14.0625 8.125C10.7833 8.125 8.125 10.7833 8.125 14.0625C8.125 17.3417 10.7833 20 14.0625 20Z" fill="#FE9738"/>
<path d="M14.0625 18.75C16.6513 18.75 18.75 16.6513 18.75 14.0625C18.75 11.4737 16.6513 9.375 14.0625 9.375C11.4737 9.375 9.375 11.4737 9.375 14.0625C9.375 16.6513 11.4737 18.75 14.0625 18.75Z" fill="#FFF9DF"/>
<path d="M17.0097 14.1501C16.9401 14.1126 16.9401 14.0125 17.0097 13.975C17.3008 13.8181 17.4685 13.473 17.3705 13.126C17.2975 12.868 17.1945 12.6195 17.0634 12.3856C16.8874 12.0714 16.525 11.9466 16.2085 12.0414C16.1328 12.0641 16.0619 11.9933 16.0847 11.9175C16.1795 11.6011 16.0546 11.2387 15.7405 11.0627C15.5066 10.9316 15.2581 10.8285 15.0001 10.7556C14.6531 10.6575 14.308 10.8253 14.1511 11.1164C14.1136 11.186 14.0135 11.186 13.976 11.1164C13.8191 10.8253 13.474 10.6575 13.127 10.7556C12.869 10.8285 12.6205 10.9316 12.3866 11.0627C12.0725 11.2387 11.9476 11.6011 12.0424 11.9175C12.0651 11.9933 11.9944 12.0641 11.9186 12.0414C11.6021 11.9466 11.2397 12.0714 11.0637 12.3856C10.9326 12.6195 10.8296 12.868 10.7566 13.126C10.6585 13.473 10.8263 13.8181 11.1174 13.975C11.187 14.0125 11.187 14.1126 11.1174 14.1501C10.8264 14.307 10.6586 14.6521 10.7566 14.9991C10.8296 15.2571 10.9326 15.5056 11.0637 15.7395C11.2397 16.0536 11.6021 16.1785 11.9186 16.0836C11.9944 16.0609 12.0652 16.1317 12.0424 16.2075C11.9476 16.524 12.0725 16.8863 12.3866 17.0623C12.6205 17.1934 12.869 17.2965 13.127 17.3695C13.474 17.4675 13.8191 17.2998 13.976 17.0087C14.0135 16.9391 14.1136 16.9391 14.1511 17.0087C14.308 17.2997 14.6531 17.4675 15.0001 17.3695C15.2581 17.2965 15.5066 17.1934 15.7405 17.0623C16.0546 16.8864 16.1795 16.524 16.0847 16.2075C16.062 16.1317 16.1328 16.0609 16.2085 16.0836C16.525 16.1785 16.8874 16.0536 17.0634 15.7395C17.1945 15.5056 17.2975 15.2571 17.3705 14.9991C17.4685 14.6521 17.3008 14.307 17.0097 14.1501Z" fill="#FE9738"/>
<path d="M11.25 0H0.603633C0.270234 0 0 0.270234 0 0.603633V6.72086C0 7.05422 0.270234 7.32449 0.603633 7.32449H4.65777C4.6842 7.32449 4.71036 7.3297 4.73477 7.33981C4.75918 7.34993 4.78136 7.36475 4.80004 7.38344L5.4827 8.06609C5.50138 8.08478 5.52356 8.0996 5.54797 8.10971C5.57238 8.11983 5.59854 8.12503 5.62496 8.12503C5.65138 8.12503 5.67755 8.11983 5.70196 8.10971C5.72637 8.0996 5.74855 8.08478 5.76723 8.06609L6.44988 7.38344C6.46856 7.36475 6.49074 7.34993 6.51515 7.33981C6.53956 7.3297 6.56573 7.32449 6.59215 7.32449H11.25C11.5834 7.32449 11.8536 7.05426 11.8536 6.72086V0.603633C11.8536 0.270234 11.5834 0 11.25 0Z" fill="#DCF5F8"/>
<path d="M11.2502 0H10.2441C10.5775 0 10.8478 0.270234 10.8478 0.603633V6.72086C10.8478 7.05422 10.5775 7.32449 10.2441 7.32449H11.2502C11.5836 7.32449 11.8538 7.05426 11.8538 6.72086V0.603633C11.8538 0.270234 11.5836 0 11.2502 0Z" fill="#A6E7F0"/>
<path d="M10.3125 3.58027H9.68227C9.66906 3.58027 9.65598 3.58287 9.64378 3.58793C9.63158 3.59298 9.62049 3.60039 9.61115 3.60973C9.60181 3.61907 9.5944 3.63016 9.58934 3.64236C9.58429 3.65457 9.58169 3.66765 9.58169 3.68086V5.52437C9.58169 5.55105 9.57109 5.57663 9.55223 5.5955C9.53336 5.61436 9.50778 5.62496 9.4811 5.62496H7.80731C7.78064 5.62496 7.75505 5.61436 7.73619 5.5955C7.71732 5.57663 7.70673 5.55105 7.70673 5.52437V3.68086C7.70673 3.65418 7.69613 3.6286 7.67727 3.60973C7.6584 3.59087 7.63282 3.58027 7.60614 3.58027H6.97579C6.89192 3.58027 6.84485 3.48363 6.89661 3.41762L8.56497 1.28855C8.57438 1.27654 8.5864 1.26683 8.60012 1.26015C8.61383 1.25347 8.62889 1.25 8.64415 1.25C8.65941 1.25 8.67446 1.25347 8.68818 1.26015C8.7019 1.26683 8.71392 1.27654 8.72333 1.28855L10.3917 3.41762C10.4434 3.48363 10.3964 3.58027 10.3125 3.58027Z" fill="#80D261"/>
<path d="M17.0085 13.9749C17.102 13.9244 17.1836 13.8543 17.2477 13.7695H15.0054C14.9184 13.7695 14.8748 13.6643 14.9364 13.6028L16.5218 12.0174C16.4164 12.0028 16.3092 12.011 16.2073 12.0414C16.1315 12.0641 16.0607 11.9933 16.0834 11.9175C16.1138 11.8156 16.122 11.7084 16.1074 11.603L14.522 13.1884C14.4605 13.25 14.3553 13.2064 14.3553 13.1194V10.8771C14.2705 10.9412 14.2004 11.0228 14.1499 11.1163C14.1124 11.1859 14.0123 11.1859 13.9748 11.1163C13.9242 11.0228 13.8542 10.9412 13.7694 10.8771V13.1194C13.7694 13.2064 13.6642 13.25 13.6027 13.1884L12.0173 11.603C12.0026 11.7084 12.0108 11.8156 12.0412 11.9175C12.0639 11.9933 11.9931 12.0641 11.9173 12.0414C11.8154 12.011 11.7082 12.0028 11.6029 12.0174L13.1883 13.6028C13.2498 13.6643 13.2063 13.7695 13.1192 13.7695H10.877C10.9411 13.8543 11.0226 13.9244 11.1162 13.9749C11.1857 14.0124 11.1857 14.1125 11.1162 14.15C11.0226 14.2006 10.9411 14.2706 10.877 14.3554H13.1192C13.2062 14.3554 13.2498 14.4606 13.1883 14.5221L11.6029 16.1075C11.7073 16.1219 11.8147 16.1143 11.9173 16.0836C11.9931 16.0609 12.0639 16.1316 12.0412 16.2074C12.0108 16.3093 12.0026 16.4165 12.0173 16.5219L13.6027 14.9365C13.6642 14.875 13.7694 14.9185 13.7694 15.0055V17.2478C13.8542 17.1837 13.9242 17.1021 13.9748 17.0086C14.0123 16.939 14.1124 16.939 14.1499 17.0086C14.2004 17.1021 14.2705 17.1837 14.3553 17.2478V15.0055C14.3553 14.9186 14.4605 14.875 14.522 14.9365L16.1074 16.5219C16.122 16.4165 16.1138 16.3093 16.0834 16.2074C16.0607 16.1316 16.1315 16.0609 16.2073 16.0836C16.3092 16.114 16.4164 16.1221 16.5218 16.1075L14.9364 14.5221C14.8748 14.4606 14.9184 14.3554 15.0054 14.3554H17.2477C17.1836 14.2706 17.102 14.2006 17.0085 14.15C16.9389 14.1125 16.9389 14.0125 17.0085 13.9749Z" fill="#FE860A"/>
<path d="M5.625 1.02617C5.58653 1.02616 5.54843 1.03374 5.51288 1.04846C5.47733 1.06318 5.44503 1.08476 5.41783 1.11197C5.39062 1.13917 5.36904 1.17147 5.35432 1.20702C5.3396 1.24256 5.33203 1.28066 5.33203 1.31914V2.83203H4.04297V1.31914C4.04297 1.1573 3.91184 1.02617 3.75 1.02617C3.58816 1.02617 3.45703 1.1573 3.45703 1.31914V5.06914C3.45703 5.23097 3.58816 5.36211 3.75 5.36211C3.91184 5.36211 4.04297 5.23097 4.04297 5.06914V3.41797H5.33203V5.06914C5.33203 5.23097 5.46316 5.36211 5.625 5.36211C5.78684 5.36211 5.91797 5.23097 5.91797 5.06914V1.31914C5.91797 1.1573 5.78684 1.02617 5.625 1.02617ZM1.875 3.45703H1.25C1.21153 3.45702 1.17343 3.4646 1.13788 3.47932C1.10233 3.49404 1.07003 3.51562 1.04283 3.54283C1.01562 3.57003 0.994043 3.60233 0.979322 3.63788C0.964601 3.67342 0.957026 3.71152 0.957031 3.75V6.25C0.957031 6.41183 1.08816 6.54297 1.25 6.54297C1.41184 6.54297 1.54297 6.41183 1.54297 6.25V5.29297H1.875C2.38117 5.29297 2.79297 4.88117 2.79297 4.375C2.79297 3.86883 2.38117 3.45703 1.875 3.45703ZM1.875 4.70703H1.54297V4.04297H1.875C2.05809 4.04297 2.20703 4.19191 2.20703 4.375C2.20703 4.55808 2.05809 4.70703 1.875 4.70703Z" fill="#017297"/>
<path d="M3.125 15.293C3.2868 15.293 3.41797 15.1618 3.41797 15C3.41797 14.8382 3.2868 14.707 3.125 14.707C2.9632 14.707 2.83203 14.8382 2.83203 15C2.83203 15.1618 2.9632 15.293 3.125 15.293Z" fill="#FEB237"/>
<path d="M4.375 16.543C4.5368 16.543 4.66797 16.4118 4.66797 16.25C4.66797 16.0882 4.5368 15.957 4.375 15.957C4.2132 15.957 4.08203 16.0882 4.08203 16.25C4.08203 16.4118 4.2132 16.543 4.375 16.543Z" fill="#FEB237"/>
<path d="M2.5 17.793C2.6618 17.793 2.79297 17.6618 2.79297 17.5C2.79297 17.3382 2.6618 17.207 2.5 17.207C2.3382 17.207 2.20703 17.3382 2.20703 17.5C2.20703 17.6618 2.3382 17.793 2.5 17.793Z" fill="#FEB237"/>
<path d="M6.47266 18.2168C6.63446 18.2168 6.76562 18.0856 6.76562 17.9238C6.76562 17.762 6.63446 17.6308 6.47266 17.6308C6.31085 17.6308 6.17969 17.762 6.17969 17.9238C6.17969 18.0856 6.31085 18.2168 6.47266 18.2168Z" fill="#FEB237"/>
<path d="M6.25 15.918C6.4118 15.918 6.54297 15.7868 6.54297 15.625C6.54297 15.4632 6.4118 15.332 6.25 15.332C6.0882 15.332 5.95703 15.4632 5.95703 15.625C5.95703 15.7868 6.0882 15.918 6.25 15.918Z" fill="#FEB237"/>
</g>
<defs>
<clipPath id="clip0_98_10864">
<rect width="20" height="20" fill="white"/>
</clipPath>
</defs>
</svg>
