<svg width="35" height="52" viewBox="0 0 35 52" fill="none" xmlns="http://www.w3.org/2000/svg">
<g filter="url(#filter0_d_260_16067)">
<path d="M15.4253 15.4864C15.4253 20.6275 12.421 24.8007 8.7129 24.8007C5.00475 24.8007 2.00052 20.6275 2.00052 15.4864C2.00052 10.3452 5.00475 6.18457 8.7129 6.18457C12.421 6.18457 15.4253 10.3452 15.4253 15.4864Z" fill="white"/>
</g>
<path d="M2.00062 15.4864V15.1973C2.00062 15.0088 2.00062 14.7448 2.00062 14.3929C1.99048 13.4104 2.1045 12.4305 2.34 11.4766C2.49051 10.8256 2.72281 10.1963 3.03135 9.60367C3.35422 8.91233 3.77783 8.27269 4.28835 7.70561C4.83517 7.06426 5.50108 6.53494 6.24927 6.14692C7.0592 5.73315 7.95436 5.51367 8.86383 5.50586C9.28757 5.52336 9.70858 5.5823 10.1208 5.68184C10.5568 5.78651 10.9787 5.94262 11.3778 6.14692C12.1249 6.53105 12.7874 7.06106 13.3262 7.70561C13.8378 8.26722 14.2615 8.90289 14.5832 9.59111C14.8899 10.1889 15.1221 10.8222 15.2745 11.4766C15.51 12.4305 15.6241 13.4104 15.6139 14.3929C15.6139 14.7448 15.6139 15.0088 15.6139 15.1973C15.6139 15.3859 15.6139 15.4864 15.6139 15.4864L15.438 14.4054C15.3653 13.9813 15.2688 13.5617 15.1488 13.1484C15.0003 12.6405 14.8241 12.1412 14.6209 11.6526C14.3947 11.0838 14.117 10.5368 13.7913 10.0185C13.4386 9.44876 13.0164 8.92517 12.5343 8.45981C12.058 7.94803 11.4966 7.52273 10.875 7.20281C10.5717 7.05104 10.2508 6.93707 9.91973 6.86342C9.75814 6.82472 9.59446 6.79534 9.4295 6.77542H8.83871C8.16724 6.78731 7.5065 6.94606 6.90292 7.24052C6.27699 7.55943 5.71129 7.98477 5.2311 8.49752C4.75108 8.96939 4.3291 9.49687 3.9741 10.0688C3.64678 10.5882 3.36501 11.1349 3.13191 11.7029C2.8578 12.2037 2.62248 12.7248 2.428 13.2616C2.30649 13.6744 2.20995 14.0941 2.13889 14.5186L2.00062 15.4864Z" fill="#2C405B"/>
<g filter="url(#filter1_d_260_16067)">
<path d="M32.3196 15.4864C32.3196 20.6275 29.6548 24.8007 26.3614 24.8007C23.0681 24.8007 20.4033 20.6275 20.4033 15.4864C20.4033 10.3452 23.0681 6.18457 26.3614 6.18457C29.6548 6.18457 32.3196 10.3452 32.3196 15.4864Z" fill="white"/>
</g>
<path d="M20.4032 15.4863C20.4032 15.4863 20.4032 15.1092 20.3152 14.443C20.294 13.5028 20.3741 12.563 20.554 11.6399C20.8197 10.2839 21.3679 8.99902 22.163 7.86889C22.6331 7.21977 23.2216 6.66534 23.8977 6.2348C24.6484 5.75425 25.5203 5.49704 26.4117 5.49316H26.9773L27.6561 5.64401C28.0665 5.77532 28.4592 5.95687 28.8251 6.18452C29.5011 6.61506 30.0897 7.16949 30.5598 7.81861C31.3599 8.94592 31.9086 10.2319 32.1687 11.5896C32.3545 12.5076 32.4346 13.4439 32.4076 14.3802C32.4076 15.0589 32.3196 15.436 32.3196 15.436C32.3196 15.436 32.3195 15.0589 32.1561 14.4053C32.0968 14.0149 32.0129 13.6286 31.9047 13.2489C31.8042 12.7963 31.6408 12.3187 31.4648 11.7907C31.2614 11.2353 31.022 10.6936 30.7483 10.1692C30.4424 9.60119 30.0847 9.06259 29.6798 8.56025C29.2556 8.05995 28.7499 7.63496 28.184 7.30325C27.9106 7.13253 27.6143 7.00133 27.3041 6.91357L26.8767 6.81302H26.3111C25.6838 6.82787 25.0719 7.01014 24.5387 7.34096C23.9701 7.66874 23.4637 8.09426 23.0429 8.59796C22.6352 9.09824 22.2774 9.63711 21.9744 10.2069C21.7007 10.7313 21.4614 11.273 21.2579 11.8284C21.082 12.3564 20.9186 12.834 20.818 13.2866C20.7099 13.6664 20.6259 14.0526 20.5666 14.443C20.4535 15.1092 20.4032 15.4863 20.4032 15.4863Z" fill="#2C405B"/>
<path d="M14.998 17.6233C14.998 19.5213 14.1558 21.0674 13.1125 21.0674C12.0692 21.0674 11.227 19.5465 11.227 17.6233C11.227 15.7 12.0818 14.1665 13.1251 14.1665C14.1684 14.1665 14.998 15.7755 14.998 17.6233Z" fill="#472822"/>
<path d="M13.0748 15.9892C13.0773 16.1289 13.0382 16.2662 12.9623 16.3836C12.8865 16.501 12.7775 16.5932 12.6491 16.6484C12.5207 16.7036 12.3788 16.7194 12.2414 16.6937C12.1041 16.6679 11.9775 16.6019 11.8778 16.504C11.7781 16.4061 11.7098 16.2807 11.6816 16.1438C11.6534 16.0069 11.6666 15.8647 11.7194 15.7354C11.7723 15.606 11.8625 15.4953 11.9785 15.4174C12.0946 15.3395 12.2311 15.2979 12.3709 15.2979C12.5554 15.2978 12.7326 15.3703 12.8643 15.4996C12.9959 15.6289 13.0715 15.8047 13.0748 15.9892Z" fill="white"/>
<path d="M20.8556 17.6107C20.8556 19.5088 21.6978 21.0549 22.7411 21.0549C23.7844 21.0549 24.6266 19.5088 24.6266 17.6107C24.6266 15.7126 23.7844 14.1665 22.7411 14.1665C21.6978 14.1665 20.8556 15.7 20.8556 17.6107Z" fill="#472822"/>
<path d="M22.741 15.9761C22.7385 16.1164 22.778 16.2542 22.8544 16.3719C22.9308 16.4895 23.0406 16.5817 23.1697 16.6365C23.2988 16.6913 23.4414 16.7063 23.5791 16.6796C23.7168 16.6528 23.8434 16.5855 23.9426 16.4863C24.0418 16.3871 24.1091 16.2606 24.1358 16.1229C24.1626 15.9852 24.1476 15.8426 24.0928 15.7135C24.0379 15.5843 23.9458 15.4745 23.8281 15.3982C23.7104 15.3218 23.5726 15.2823 23.4324 15.2848C23.25 15.288 23.076 15.3619 22.9471 15.4908C22.8181 15.6198 22.7443 15.7938 22.741 15.9761Z" fill="white"/>
<path d="M13.8038 47.6279C14.1316 48.0428 14.4842 48.4374 14.8597 48.8095C15.5796 49.6213 16.5728 50.1402 17.6503 50.2676C17.9249 50.2874 18.2009 50.2619 18.4673 50.1922C18.7342 50.106 18.9946 50.001 19.2466 49.878C19.4729 49.7271 19.7243 49.614 19.938 49.4632L20.5162 48.9981C20.8807 48.7089 21.1573 48.4073 21.3584 48.2313C21.4643 48.1229 21.5777 48.0221 21.6978 47.9296C21.6978 47.9296 21.6224 48.0805 21.4715 48.3193C21.286 48.6626 21.0671 48.9868 20.8179 49.2872L20.29 49.8905C20.0763 50.0791 19.8249 50.2676 19.5735 50.4562C19.2842 50.6235 18.9814 50.7665 18.6684 50.8836C18.3291 50.9797 17.9777 51.0263 17.6251 51.0218C17.2686 51.003 16.917 50.931 16.5818 50.8081C16.2752 50.6778 15.9843 50.5134 15.7145 50.3179C15.2592 49.9612 14.8608 49.5374 14.5329 49.0609C14.2215 48.6212 13.9759 48.1385 13.8038 47.6279Z" fill="#2C405B"/>
<path d="M16.2549 11.1119L15.7772 10.5337C15.5006 10.1566 15.023 9.67891 14.5202 9.07555C14.2688 8.7613 13.942 8.45962 13.6277 8.1328C13.3135 7.80598 12.9992 7.44144 12.6347 7.08948L11.516 6.03361C11.146 5.65962 10.7513 5.31105 10.3344 4.99029L9.07737 3.95955C8.6877 3.60759 8.24775 3.34363 7.82037 3.04195L6.66393 2.18719C6.32367 1.92549 5.96678 1.68615 5.5955 1.4707C4.22537 0.641078 3.32033 0 3.32033 0C3.32033 0 4.35107 0.351966 5.83433 0.967896C6.24614 1.12666 6.64179 1.32449 7.01589 1.55869L8.27289 2.32546C8.73354 2.58646 9.17465 2.88053 9.59275 3.20536L10.8497 4.2361C11.2929 4.57647 11.7128 4.946 12.1067 5.34225L13.2004 6.4987C13.5283 6.86613 13.8347 7.25225 14.118 7.65514C14.3992 7.99517 14.6594 8.35197 14.8973 8.72359C15.4243 9.47499 15.8788 10.2747 16.2549 11.1119Z" fill="#2C405B"/>
<path d="M20.026 11.1119C20.3699 10.2785 20.7907 9.47893 21.283 8.72359C21.4967 8.37163 21.7732 8.01967 22.0498 7.65514C22.3263 7.29061 22.628 6.86323 22.9799 6.4987L24.0735 5.34225C24.4473 4.94812 24.8461 4.57863 25.2677 4.2361L26.5247 3.20536C26.9226 2.88302 27.3426 2.589 27.7817 2.32546L29.0387 1.55869C29.4371 1.32058 29.8581 1.12268 30.2957 0.967896C31.8166 0.351966 32.8097 0 32.8097 0C32.8097 0 31.9046 0.641078 30.5471 1.4707C30.1717 1.68602 29.8106 1.92535 29.4661 2.18719L28.3096 3.04195C27.9199 3.34363 27.4674 3.60759 27.0526 3.95955L25.7956 4.99029C25.3734 5.30461 24.9782 5.65359 24.614 6.03361L23.4953 7.08948C23.1308 7.44144 22.8165 7.80598 22.4897 8.1328C22.1629 8.45962 21.8612 8.7613 21.6098 9.07555C21.0819 9.67891 20.6042 10.1566 20.3528 10.5337C20.1014 10.9108 20.026 11.1119 20.026 11.1119Z" fill="#2C405B"/>
<path d="M4.66545 40.3373C4.89455 39.9619 5.14643 39.6009 5.41966 39.2563C6.12901 38.3325 6.91083 37.4666 7.75768 36.6669C8.96212 35.5163 10.3048 34.5199 11.7549 33.7004C12.5894 33.2429 13.4647 32.8642 14.3695 32.5691C15.319 32.2878 16.2973 32.1149 17.2857 32.0537C18.2786 32.0002 19.274 32.0934 20.2397 32.3302C21.1726 32.5519 22.0727 32.8941 22.9171 33.3484C23.6993 33.7661 24.4364 34.2632 25.1169 34.8317C25.7218 35.3339 26.2929 35.8756 26.8264 36.4532C27.2846 36.9265 27.7049 37.435 28.0834 37.9742C28.4036 38.3737 28.6975 38.7936 28.9633 39.2312L29.6672 40.3499L28.8124 39.3443C28.5485 39.0175 28.2091 38.6404 27.8068 38.2256C27.4046 37.8108 26.9521 37.3457 26.4241 36.868C25.8794 36.3423 25.2953 35.8591 24.6769 35.4225C23.992 34.9516 23.2736 34.5315 22.5274 34.1655C21.7259 33.7828 20.8821 33.4959 20.0134 33.3107C19.1286 33.1026 18.218 33.0263 17.3109 33.0844C15.5076 33.196 13.7477 33.6842 12.1446 34.5174C10.7111 35.2392 9.35854 36.1114 8.10964 37.1194C7.23138 37.841 6.39219 38.6088 5.59564 39.4197C4.942 39.9728 4.66545 40.3373 4.66545 40.3373Z" fill="#381415"/>
<defs>
<filter id="filter0_d_260_16067" x="0.000518799" y="6.18457" width="17.4248" height="22.6162" filterUnits="userSpaceOnUse" color-interpolation-filters="sRGB">
<feFlood flood-opacity="0" result="BackgroundImageFix"/>
<feColorMatrix in="SourceAlpha" type="matrix" values="0 0 0 0 0 0 0 0 0 0 0 0 0 0 0 0 0 0 127 0" result="hardAlpha"/>
<feOffset dy="2"/>
<feGaussianBlur stdDeviation="1"/>
<feComposite in2="hardAlpha" operator="out"/>
<feColorMatrix type="matrix" values="0 0 0 0 0 0 0 0 0 0 0 0 0 0 0 0 0 0 0.1 0"/>
<feBlend mode="normal" in2="BackgroundImageFix" result="effect1_dropShadow_260_16067"/>
<feBlend mode="normal" in="SourceGraphic" in2="effect1_dropShadow_260_16067" result="shape"/>
</filter>
<filter id="filter1_d_260_16067" x="18.4033" y="6.18457" width="15.9164" height="22.6162" filterUnits="userSpaceOnUse" color-interpolation-filters="sRGB">
<feFlood flood-opacity="0" result="BackgroundImageFix"/>
<feColorMatrix in="SourceAlpha" type="matrix" values="0 0 0 0 0 0 0 0 0 0 0 0 0 0 0 0 0 0 127 0" result="hardAlpha"/>
<feOffset dy="2"/>
<feGaussianBlur stdDeviation="1"/>
<feComposite in2="hardAlpha" operator="out"/>
<feColorMatrix type="matrix" values="0 0 0 0 0 0 0 0 0 0 0 0 0 0 0 0 0 0 0.1 0"/>
<feBlend mode="normal" in2="BackgroundImageFix" result="effect1_dropShadow_260_16067"/>
<feBlend mode="normal" in="SourceGraphic" in2="effect1_dropShadow_260_16067" result="shape"/>
</filter>
</defs>
</svg>
