<svg width="20" height="20" viewBox="0 0 20 20" fill="none" xmlns="http://www.w3.org/2000/svg">
<g clip-path="url(#clip0_98_10857)">
<path d="M10 20C15.5228 20 20 15.5228 20 10C20 4.47715 15.5228 0 10 0C4.47715 0 0 4.47715 0 10C0 15.5228 4.47715 20 10 20Z" fill="#02C7DD"/>
<path d="M15.2026 1.875C17.1634 3.7007 18.3897 6.30473 18.3897 9.1952C18.3897 14.718 13.9126 19.1952 8.38973 19.1952C7.1041 19.1952 5.87512 18.9526 4.74609 18.5106C6.27273 19.455 8.07238 20 9.99938 20C15.5222 20 19.9994 15.5229 19.9994 10C19.9994 6.8909 18.5805 4.11316 16.3549 2.27906L15.2026 1.875Z" fill="#07B2CD"/>
<path d="M10 16.875C13.797 16.875 16.875 13.797 16.875 10C16.875 6.20304 13.797 3.125 10 3.125C6.20304 3.125 3.125 6.20304 3.125 10C3.125 13.797 6.20304 16.875 10 16.875Z" fill="#07B2CD"/>
<path d="M6.84893 9.49098C8.71975 10.5711 8.63658 12.517 8.05444 13.5253C7.47229 14.5336 5.82869 15.5786 3.95787 14.4985C2.49182 13.6521 1.54311 11.3676 1.30752 10.2345C1.24248 9.92168 1.23178 9.6966 1.27959 9.61383C1.31819 9.54699 1.45615 9.4668 1.66752 9.3857C2.66635 9.00258 5.3049 8.59953 6.84893 9.49098Z" fill="#80D261"/>
<path d="M15.3125 18.75C17.5562 18.75 19.375 16.9312 19.375 14.6875C19.375 12.4438 17.5562 10.625 15.3125 10.625C13.0688 10.625 11.25 12.4438 11.25 14.6875C11.25 16.9312 13.0688 18.75 15.3125 18.75Z" fill="#FFF3BE"/>
<path d="M9.01511 1.75965C10.3283 3.07281 10.3283 5.20192 9.01511 6.51512C7.70195 7.82832 5.57285 7.82828 4.25964 6.51512C3.15171 5.40719 2.1323 2.87223 2.62933 1.3182C2.7214 1.03031 2.86554 0.776056 3.07081 0.570822C3.27609 0.365549 3.53031 0.221447 3.8182 0.129338C5.37222 -0.367693 7.90718 0.651721 9.01511 1.75965Z" fill="#FFF6CE"/>
<path d="M6.63801 6.25C7.80477 6.25 8.75062 5.30415 8.75062 4.13738C8.75062 2.97062 7.80477 2.02477 6.63801 2.02477C5.47124 2.02477 4.52539 2.97062 4.52539 4.13738C4.52539 5.30415 5.47124 6.25 6.63801 6.25Z" fill="#FFC344"/>
<path d="M17.439 14.6875C17.8388 14.6875 18.1293 14.3056 18.0205 13.9209C17.9608 13.7098 17.8764 13.5064 17.7691 13.3149C17.5739 12.9665 17.0987 12.9025 16.8163 13.185C17.0987 12.9026 17.0348 12.4273 16.6864 12.2321C16.4949 12.1249 16.2915 12.0405 16.0804 11.9808C15.6957 11.872 15.3138 12.1625 15.3138 12.5622C15.3138 12.1625 14.9318 11.872 14.5472 11.9807C14.336 12.0405 14.1326 12.1248 13.9412 12.2321C13.5928 12.4273 13.5288 12.9025 13.8112 13.1849C13.5288 12.9025 13.0536 12.9665 12.8584 13.3149C12.7511 13.5063 12.6667 13.7097 12.607 13.9209C12.4982 14.3056 12.7888 14.6875 13.1885 14.6875C12.7888 14.6875 12.4982 15.0694 12.607 15.4541C12.6667 15.6652 12.7511 15.8686 12.8584 16.0601C13.0536 16.4085 13.5288 16.4725 13.8112 16.19C13.5288 16.4724 13.5927 16.9477 13.9411 17.1429C14.1326 17.2501 14.336 17.3345 14.5471 17.3942C14.9318 17.5029 15.3137 17.2125 15.3137 16.8127C15.3137 17.2125 15.6956 17.503 16.0803 17.3942C16.2914 17.3345 16.4949 17.2501 16.6863 17.1429C17.0347 16.9477 17.0987 16.4724 16.8163 16.19C17.0986 16.4724 17.5739 16.4085 17.7691 16.0601C17.8763 15.8686 17.9607 15.6652 18.0204 15.4541C18.1293 15.0694 17.8388 14.6875 17.439 14.6875Z" fill="#FFC344"/>
<path d="M17.748 14.7722C17.7331 14.7636 17.7208 14.7513 17.7122 14.7364C17.7036 14.7215 17.699 14.7047 17.699 14.6875C17.699 14.6703 17.7036 14.6534 17.7122 14.6386C17.7208 14.6237 17.7331 14.6114 17.748 14.6028C17.9721 14.469 18.0981 14.1957 18.0204 13.9209C17.9607 13.7098 17.8763 13.5064 17.7691 13.3149C17.6296 13.0661 17.3473 12.9623 17.0945 13.0263C17.0779 13.0308 17.0605 13.0308 17.0439 13.0264C17.0273 13.022 17.0122 13.0132 17.0001 13.0011C16.988 12.989 16.9792 12.9739 16.9748 12.9573C16.9704 12.9407 16.9704 12.9233 16.9749 12.9067C17.0389 12.6539 16.9351 12.3716 16.6863 12.2321C16.4948 12.1249 16.2914 12.0405 16.0803 11.9808C15.8055 11.9031 15.5321 12.0291 15.3984 12.2532C15.3898 12.2681 15.3775 12.2804 15.3626 12.289C15.3478 12.2976 15.3309 12.3021 15.3137 12.3021C15.2965 12.3021 15.2797 12.2976 15.2648 12.289C15.2499 12.2804 15.2376 12.2681 15.229 12.2532C15.0952 12.0291 14.8219 11.9031 14.5471 11.9808C14.336 12.0405 14.1326 12.1249 13.9411 12.2321C13.6923 12.3716 13.5885 12.6539 13.6525 12.9067C13.657 12.9233 13.657 12.9407 13.6526 12.9573C13.6482 12.9739 13.6394 12.989 13.6273 13.0011C13.6152 13.0132 13.6001 13.022 13.5835 13.0264C13.5669 13.0308 13.5495 13.0308 13.5329 13.0263C13.2801 12.9623 12.9978 13.0661 12.8584 13.3149C12.7511 13.5064 12.6667 13.7098 12.607 13.9209C12.5293 14.1957 12.6553 14.4691 12.8794 14.6028C12.8943 14.6114 12.9066 14.6237 12.9152 14.6386C12.9238 14.6534 12.9284 14.6703 12.9284 14.6875C12.9284 14.7047 12.9238 14.7215 12.9152 14.7364C12.9066 14.7513 12.8943 14.7636 12.8794 14.7722C12.6553 14.906 12.5293 15.1793 12.607 15.4541C12.6667 15.6652 12.7511 15.8686 12.8584 16.0601C12.9978 16.3089 13.2801 16.4127 13.5329 16.3487C13.5495 16.3442 13.5669 16.3442 13.5835 16.3486C13.6001 16.353 13.6152 16.3618 13.6273 16.3739C13.6394 16.386 13.6482 16.4011 13.6526 16.4177C13.657 16.4343 13.657 16.4517 13.6525 16.4683C13.5885 16.7211 13.6923 17.0034 13.9411 17.1428C14.1326 17.2501 14.336 17.3345 14.5471 17.3942C14.8219 17.4719 15.0953 17.3459 15.229 17.1218C15.2376 17.1069 15.2499 17.0946 15.2648 17.086C15.2797 17.0774 15.2965 17.0728 15.3137 17.0728C15.3309 17.0728 15.3478 17.0774 15.3626 17.086C15.3775 17.0946 15.3898 17.1069 15.3984 17.1218C15.5322 17.3459 15.8055 17.4719 16.0803 17.3942C16.2914 17.3345 16.4948 17.2501 16.6863 17.1428C16.9351 17.0034 17.0389 16.7211 16.9749 16.4683C16.9704 16.4517 16.9704 16.4343 16.9748 16.4177C16.9792 16.4011 16.988 16.386 17.0001 16.3739C17.0122 16.3618 17.0273 16.353 17.0439 16.3486C17.0605 16.3442 17.0779 16.3442 17.0945 16.3487C17.3473 16.4127 17.6296 16.3089 17.7691 16.0601C17.8763 15.8686 17.9607 15.6652 18.0204 15.4541C18.0981 15.1793 17.9721 14.9059 17.748 14.7722Z" fill="#FFC344"/>
<path d="M12.2272 8.73469L13.2924 7.66941V6.70672H12.3297L11.2645 7.77199C11.077 7.95945 10.7946 8.02691 10.5491 7.92695C10.1467 7.76316 9.66107 7.86668 9.364 8.2375C9.07213 8.60184 9.0683 9.12941 9.35553 9.49742C9.51479 9.70145 9.73037 9.82672 9.95881 9.87328C9.99991 9.88182 10.0376 9.90218 10.0673 9.93186C10.097 9.96155 10.1173 9.99925 10.1259 10.0404C10.1724 10.2688 10.2977 10.4844 10.5017 10.6436C10.8697 10.9309 11.3973 10.927 11.7617 10.6352C12.1324 10.3381 12.236 9.85242 12.0722 9.45004C11.9722 9.20453 12.0397 8.92215 12.2272 8.73469Z" fill="#FFF9DF"/>
<path d="M18.8281 5.98469C20.2903 4.52254 20.398 2.25972 19.0688 0.930506C17.7396 -0.398712 15.4767 -0.290939 14.0146 1.17117C13.2481 1.93762 12.8539 2.9241 12.8437 3.88074C12.8377 4.44545 12.6678 4.99627 12.3546 5.46621L12.1475 5.77691C12.0632 5.90337 12.0253 6.05514 12.0403 6.20638C12.0553 6.35763 12.1222 6.49901 12.2297 6.60648L13.3928 7.76965C13.5003 7.87711 13.6417 7.94403 13.7929 7.95901C13.9442 7.97398 14.0959 7.9361 14.2224 7.85179L14.5331 7.64469C15.003 7.33148 15.5538 7.16159 16.1185 7.15566C17.0752 7.14543 18.0617 6.75113 18.8281 5.98469Z" fill="#FE9738"/>
<path d="M19.0698 0.930504C18.184 0.0446448 16.8835 -0.202933 15.6816 0.163199C16.4917 0.191871 17.2699 0.498864 17.8625 1.09148C19.1918 2.4207 19.084 4.68355 17.6219 6.14566C17.1241 6.64339 16.5336 6.98418 15.9188 7.16472C15.9856 7.1594 16.0525 7.15636 16.1195 7.15562C17.0762 7.14539 18.0627 6.75113 18.8291 5.98468C20.2913 4.52253 20.399 2.25972 19.0698 0.930504Z" fill="#FE860A"/>
<path d="M8.58984 13.4963L6.36297 12.2106L5.71527 10.6943C5.68441 10.6234 5.62674 10.5675 5.55485 10.5389C5.48296 10.5103 5.40268 10.5114 5.33154 10.5417C5.26039 10.5721 5.20416 10.6294 5.1751 10.7011C5.14604 10.7728 5.14653 10.8531 5.17644 10.9245L5.51726 11.7223L2.84597 10.1801C2.77872 10.1418 2.69907 10.1318 2.62441 10.152C2.54975 10.1723 2.48614 10.2213 2.44746 10.2883C2.40877 10.3553 2.39816 10.4349 2.41794 10.5096C2.43771 10.5844 2.48626 10.6484 2.55301 10.6875L4.33242 11.7148L3.5166 11.8131C3.43985 11.8229 3.37009 11.8626 3.32252 11.9236C3.27495 11.9846 3.25345 12.062 3.2627 12.1388C3.27195 12.2156 3.31121 12.2856 3.37191 12.3336C3.4326 12.3816 3.50981 12.4036 3.58668 12.3948L5.17816 12.2031L6.33133 12.8689L5.51551 12.9672C5.43876 12.9769 5.36899 13.0166 5.32143 13.0776C5.27386 13.1387 5.25235 13.216 5.26161 13.2928C5.27086 13.3696 5.31012 13.4397 5.37081 13.4876C5.43151 13.5356 5.50872 13.5576 5.58558 13.5489L7.17711 13.3571L8.29691 14.0036C8.87426 14.337 9.23293 14.9582 9.23293 15.6249C9.23293 15.7026 9.26379 15.7771 9.31874 15.8321C9.37368 15.887 9.44819 15.9179 9.5259 15.9179C9.6036 15.9179 9.67811 15.887 9.73306 15.8321C9.788 15.7771 9.81886 15.7026 9.81886 15.6249C9.81886 14.7496 9.34793 13.9339 8.58984 13.4963Z" fill="#ADE194"/>
<path d="M7.45462 3.32016C7.39968 3.26522 7.32517 3.23436 7.24748 3.23436C7.16978 3.23436 7.09527 3.26522 7.04033 3.32016L6.6374 3.72309L6.23447 3.32016C6.17953 3.26522 6.10501 3.23436 6.02732 3.23436C5.94963 3.23436 5.87511 3.26522 5.82017 3.32016C5.76524 3.3751 5.73438 3.44961 5.73438 3.52731C5.73438 3.605 5.76524 3.67951 5.82017 3.73446L6.2231 4.13739L5.82017 4.54032C5.76524 4.59526 5.73438 4.66977 5.73438 4.74746C5.73438 4.82516 5.76524 4.89967 5.82017 4.95461C5.87511 5.00955 5.94963 5.04041 6.02732 5.04041C6.10501 5.04041 6.17953 5.00955 6.23447 4.95461L6.6374 4.55168L7.04033 4.95461C7.09527 5.00955 7.16978 5.04041 7.24748 5.04041C7.32517 5.04041 7.39968 5.00955 7.45462 4.95461C7.50956 4.89967 7.54042 4.82516 7.54042 4.74746C7.54042 4.66977 7.50956 4.59526 7.45462 4.54032L7.05169 4.13739L7.45462 3.73446C7.48184 3.70726 7.50343 3.67497 7.51816 3.63942C7.53289 3.60388 7.54047 3.56578 7.54047 3.52731C7.54047 3.48883 7.53289 3.45074 7.51816 3.41519C7.50343 3.37965 7.48184 3.34736 7.45462 3.32016ZM16.8613 3.55301L17.4762 2.93817C17.5307 2.88314 17.5613 2.80875 17.5611 2.73127C17.5609 2.65379 17.5301 2.57954 17.4753 2.52476C17.4205 2.46997 17.3462 2.43912 17.2687 2.43896C17.1913 2.43879 17.1169 2.46932 17.0619 2.52387L16.447 3.13871L15.8322 2.52387C15.7771 2.46932 15.7028 2.43879 15.6253 2.43896C15.5478 2.43912 15.4735 2.46997 15.4188 2.52476C15.364 2.57954 15.3331 2.65379 15.3329 2.73127C15.3328 2.80875 15.3633 2.88314 15.4178 2.93817L16.0327 3.55301L15.4178 4.16785C15.3633 4.22288 15.3328 4.29727 15.3329 4.37475C15.3331 4.45223 15.364 4.52648 15.4188 4.58127C15.4735 4.63605 15.5478 4.6669 15.6253 4.66706C15.7028 4.66723 15.7771 4.6367 15.8322 4.58215L16.447 3.96731L17.0619 4.58215C17.1169 4.6367 17.1913 4.66723 17.2687 4.66706C17.3462 4.6669 17.4205 4.63605 17.4753 4.58127C17.5301 4.52648 17.5609 4.45223 17.5611 4.37475C17.5613 4.29727 17.5307 4.22288 17.4762 4.16785L16.8613 3.55301Z" fill="#E94444"/>
<path d="M14.0372 6.61375C13.9677 6.61382 13.9004 6.58908 13.8475 6.54398C13.7069 6.42439 13.5761 6.29363 13.4565 6.15297C13.4316 6.12366 13.4127 6.08973 13.4009 6.05312C13.3891 6.0165 13.3846 5.97792 13.3877 5.93957C13.3908 5.90122 13.4014 5.86386 13.4189 5.82962C13.4365 5.79537 13.4606 5.76492 13.4899 5.74C13.5192 5.71506 13.5531 5.69614 13.5897 5.68433C13.6264 5.67251 13.6649 5.66802 13.7033 5.67112C13.7416 5.67421 13.779 5.68484 13.8132 5.70238C13.8475 5.71992 13.8779 5.74404 13.9029 5.77336C14.0021 5.88996 14.1105 5.9984 14.2271 6.09761C14.2728 6.13646 14.3054 6.1884 14.3206 6.2464C14.3359 6.3044 14.3329 6.36567 14.3122 6.42195C14.2915 6.47823 14.254 6.52679 14.2048 6.56109C14.1557 6.59539 14.0971 6.61377 14.0372 6.61375Z" fill="#FE860A"/>
<path d="M17.7476 14.6028C17.8332 14.5515 17.905 14.48 17.9565 14.3945H16.2563C16.1693 14.3945 16.1257 14.2893 16.1872 14.2278L17.3893 13.0257C17.2923 13.0017 17.1909 13.0019 17.094 13.0263C17.0775 13.0307 17.06 13.0308 17.0434 13.0263C17.0269 13.0219 17.0118 13.0132 16.9996 13.0011C16.9875 12.9889 16.9788 12.9738 16.9744 12.9573C16.9699 12.9407 16.97 12.9232 16.9745 12.9067C16.9991 12.8093 16.9988 12.7076 16.975 12.6114L15.7729 13.8135C15.7114 13.875 15.6062 13.8314 15.6062 13.7444V12.0442C15.5207 12.0957 15.4491 12.1674 15.3979 12.2531C15.3893 12.268 15.377 12.2803 15.3621 12.2889C15.3473 12.2975 15.3304 12.3021 15.3132 12.3021C15.296 12.3021 15.2792 12.2975 15.2643 12.2889C15.2494 12.2803 15.2371 12.268 15.2285 12.2531C15.1772 12.1675 15.1057 12.0957 15.0202 12.0442V13.7444C15.0202 13.8314 14.915 13.875 14.8535 13.8135L13.6514 12.6114C13.6274 12.7084 13.6276 12.8098 13.652 12.9067C13.6564 12.9232 13.6565 12.9407 13.652 12.9573C13.6476 12.9738 13.6389 12.9889 13.6268 13.0011C13.6146 13.0132 13.5995 13.0219 13.583 13.0263C13.5664 13.0308 13.5489 13.0307 13.5324 13.0263C13.4355 13.0019 13.3341 13.0017 13.2371 13.0257L14.4392 14.2278C14.5007 14.2893 14.4571 14.3945 14.3701 14.3945H12.6699C12.7214 14.48 12.7931 14.5516 12.8788 14.6028C12.8937 14.6114 12.906 14.6237 12.9146 14.6386C12.9232 14.6535 12.9278 14.6703 12.9278 14.6875C12.9278 14.7047 12.9232 14.7216 12.9146 14.7364C12.906 14.7513 12.8937 14.7636 12.8788 14.7722C12.7932 14.8235 12.7214 14.895 12.6699 14.9805H14.3701C14.4571 14.9805 14.5007 15.0857 14.4392 15.1472L13.2371 16.3493C13.3341 16.3733 13.4355 16.3731 13.5324 16.3488C13.5489 16.3443 13.5664 16.3442 13.583 16.3487C13.5995 16.3531 13.6146 16.3618 13.6268 16.3739C13.6389 16.3861 13.6476 16.4012 13.652 16.4177C13.6565 16.4343 13.6564 16.4518 13.652 16.4683C13.6276 16.5652 13.6274 16.6666 13.6514 16.7636L14.8535 15.5615C14.915 15.5 15.0202 15.5436 15.0202 15.6306V17.3308C15.1057 17.2793 15.1773 17.2076 15.2285 17.1219C15.2371 17.107 15.2494 17.0947 15.2643 17.0861C15.2792 17.0775 15.296 17.0729 15.3132 17.0729C15.3304 17.0729 15.3473 17.0775 15.3621 17.0861C15.377 17.0947 15.3893 17.107 15.3979 17.1219C15.4492 17.2075 15.5207 17.2793 15.6062 17.3308V15.6306C15.6062 15.5436 15.7114 15.5 15.7729 15.5615L16.975 16.7636C16.999 16.6666 16.9988 16.5652 16.9745 16.4683C16.97 16.4518 16.9699 16.4343 16.9744 16.4177C16.9788 16.4012 16.9875 16.3861 16.9996 16.3739C17.0118 16.3618 17.0269 16.3531 17.0434 16.3487C17.06 16.3442 17.0775 16.3443 17.094 16.3488C17.1914 16.3734 17.2931 16.3731 17.3893 16.3493L16.1872 15.1472C16.1257 15.0857 16.1693 14.9805 16.2563 14.9805H17.9565C17.905 14.895 17.8333 14.8235 17.7476 14.7722C17.7327 14.7636 17.7204 14.7513 17.7118 14.7364C17.7032 14.7216 17.6986 14.7047 17.6986 14.6875C17.6986 14.6703 17.7032 14.6535 17.7118 14.6386C17.7204 14.6237 17.7327 14.6114 17.7476 14.6028Z" fill="#FEB237"/>
</g>
<defs>
<clipPath id="clip0_98_10857">
<rect width="20" height="20" fill="white"/>
</clipPath>
</defs>
</svg>
