<svg width="41" height="43" viewBox="0 0 41 43" fill="none" xmlns="http://www.w3.org/2000/svg">
<path d="M14.771 17.4C14.771 17.4 7.12527 13.397 -3.05176e-05 18.1071C0.0133127 18.1071 7.39215 6.35173 14.771 17.4Z" fill="#381415"/>
<path d="M25.3655 17.4C25.3655 17.4 33.0112 13.397 40.1498 18.1071C40.1765 18.1071 32.7844 6.35173 25.3655 17.4Z" fill="#381415"/>
<path d="M1.828 6.48448C1.87198 5.79445 2.02047 5.11511 2.26835 4.46965C2.50529 3.80163 2.82346 3.16525 3.21571 2.57489C3.44701 2.22624 3.71058 1.90012 4.00296 1.60084C4.30735 1.27847 4.6476 0.991954 5.01706 0.74687C5.40201 0.495528 5.81951 0.297994 6.25798 0.159763C6.69106 0.0351757 7.14312 -0.0100177 7.5923 0.0263423C7.80744 0.0280402 8.02193 0.0503651 8.23279 0.0930424L8.80654 0.306539C9.14339 0.42687 9.45542 0.607764 9.72723 0.840282C9.97077 1.00023 10.1908 1.19333 10.381 1.41403C10.5545 1.61418 10.6879 1.80099 10.7947 1.93442C10.9014 2.06785 11.1149 2.40144 11.1149 2.40144L10.6879 2.18794L10.1275 1.92108C9.88802 1.8224 9.64299 1.73775 9.39365 1.66756C9.12735 1.56648 8.84943 1.49924 8.56637 1.46742H8.12602H7.68571C7.38509 1.48977 7.08886 1.5526 6.80505 1.65422C6.50582 1.77625 6.21973 1.92825 5.95111 2.10789C5.65639 2.28465 5.38322 2.49511 5.13715 2.73502C4.88362 2.94851 4.63011 3.22871 4.38993 3.45555C3.92291 3.97594 3.49591 4.48298 3.1223 4.93665L1.828 6.48448Z" fill="#2C405B"/>
<path d="M37.6947 6.48478L36.4404 4.92362C36.0802 4.46995 35.6532 3.96291 35.1862 3.44252C34.946 3.21568 34.7058 2.93546 34.4389 2.72197C34.1929 2.48206 33.9197 2.2716 33.625 2.09484C33.3564 1.91519 33.0703 1.7632 32.771 1.64117C32.4872 1.53955 32.191 1.47672 31.8904 1.45436H31.4501H31.0097C30.7264 1.48474 30.4483 1.55204 30.1824 1.65453C29.9331 1.72471 29.6881 1.80935 29.4486 1.90803L28.8882 2.17491L28.3678 2.38839C28.3678 2.38839 28.4745 2.21494 28.688 1.92139L29.0883 1.401C29.2867 1.18349 29.5107 0.990822 29.7555 0.82723C30.0273 0.594712 30.3393 0.413838 30.6762 0.293508L31.2499 0.0800105C31.4607 0.0366617 31.6752 0.0143095 31.8904 0.0132901C32.3396 -0.025188 32.792 0.0200642 33.2247 0.146731C33.6695 0.279381 34.0922 0.477236 34.479 0.733838C34.8489 0.978257 35.1893 1.26483 35.4931 1.58781C35.7823 1.88514 36.0456 2.20654 36.2803 2.54852C36.6704 3.1449 36.9884 3.78538 37.2277 4.4566C37.4861 5.10484 37.6435 5.78884 37.6947 6.48478Z" fill="#2C405B"/>
<path d="M13.7836 30.9429C13.8255 31.191 13.8834 31.4361 13.9571 31.6768C14.13 32.3081 14.3857 32.9138 14.7176 33.4781C14.9379 33.8315 15.1927 34.1623 15.4782 34.4655C15.8065 34.7807 16.169 35.0582 16.559 35.2928C16.9809 35.5168 17.4291 35.6871 17.8933 35.7998L18.6405 35.9332H19.4145C19.5879 35.9332 19.9348 35.9332 20.1884 35.9332L20.8822 35.7598C21.3477 35.6092 21.7951 35.4078 22.2166 35.1593C22.6169 34.9218 22.9924 34.6446 23.3374 34.3321C23.6176 33.9985 23.9245 33.6916 24.1513 33.3713C24.3781 33.0511 24.5516 32.7175 24.7251 32.4373C24.8502 32.181 24.9615 31.9182 25.0586 31.6501C25.2454 31.1964 25.3656 30.9429 25.3656 30.9429C25.3656 30.9429 25.3656 31.2097 25.2588 31.7034C25.2233 31.9999 25.1698 32.294 25.0987 32.5841C24.9786 32.9043 24.8452 33.2779 24.6717 33.6782C24.4428 34.0936 24.1888 34.4946 23.9111 34.8791C23.5567 35.2785 23.1583 35.6366 22.7236 35.9466C22.253 36.2821 21.7361 36.5473 21.1891 36.7338C20.8822 36.8139 20.5753 36.9073 20.2818 36.9607C19.9904 37.0059 19.696 37.0282 19.4011 37.0274L18.5205 36.9607C18.2269 36.9607 17.9333 36.8406 17.6398 36.7872C17.0764 36.6372 16.5404 36.3985 16.0519 36.08C15.5982 35.7787 15.1932 35.4097 14.8511 34.9859C14.5675 34.6037 14.3344 34.1866 14.1572 33.7449C13.9004 33.0981 13.756 32.4122 13.7302 31.7168C13.7197 31.4576 13.7376 31.1981 13.7836 30.9429Z" fill="#381415"/>
<path d="M15.5316 40.2031C15.9025 40.5249 16.2997 40.815 16.7191 41.0704C17.553 41.6381 18.5391 41.9404 19.5479 41.9377C19.8123 41.9371 20.076 41.9103 20.3351 41.8577C20.5753 41.7643 20.8422 41.7376 21.0824 41.6308L21.7762 41.3373L22.3767 40.9904C22.6841 40.819 22.9824 40.632 23.2706 40.43L23.6309 40.2031C23.6309 40.2031 23.5508 40.3366 23.3907 40.55C23.1804 40.8507 22.9437 41.132 22.6835 41.3907L22.1231 41.8844C21.8963 42.0311 21.6561 42.1913 21.3892 42.338C21.112 42.4675 20.8268 42.5789 20.5353 42.6716C20.214 42.741 19.8887 42.7901 19.5612 42.8184C19.2381 42.8166 18.9161 42.7808 18.6005 42.7116C18.2929 42.6397 17.9934 42.5369 17.7065 42.4048C17.2106 42.1681 16.7592 41.8476 16.3722 41.4574C16.021 41.0915 15.7365 40.667 15.5316 40.2031Z" fill="#2C405B"/>
</svg>
