<svg width="20" height="20" viewBox="0 0 20 20" fill="none" xmlns="http://www.w3.org/2000/svg">
<path d="M14.8611 1.6665H5.13889C3.22219 1.66882 1.66897 3.22204 1.66666 5.13874V14.861C1.66897 16.7776 3.22219 18.3309 5.13889 18.3332H14.8611C16.7778 18.3309 18.331 16.7776 18.3333 14.8609V5.13874C18.331 3.22204 16.7778 1.66882 14.8611 1.6665ZM15.5556 7.27692L9.12916 13.7033C8.58687 14.2458 7.70748 14.246 7.16496 13.7037C7.16483 13.7036 7.1647 13.7035 7.16457 13.7033L4.44442 10.9839C4.17268 10.7121 4.17268 10.2716 4.44442 9.99987C4.71617 9.72816 5.15673 9.72813 5.42844 9.99987L8.14787 12.7193L14.575 6.2929C14.8467 6.02214 15.2865 6.02292 15.5573 6.29463C15.8281 6.56637 15.8273 7.00615 15.5556 7.27692Z" fill="#FF5C00"/>
</svg>
