<svg width="54" height="34" viewBox="0 0 54 34" fill="none" xmlns="http://www.w3.org/2000/svg">
<path d="M13.7071 28.9477C13.7071 28.9477 14.125 28.7805 14.8493 28.5298C15.5737 28.2791 16.6462 27.9169 17.9278 27.5687C19.2093 27.2204 20.7137 26.8165 22.3435 26.4682C23.9733 26.12 25.7145 25.8274 27.4836 25.6046C28.3751 25.507 29.2666 25.4096 30.1441 25.3538C31.0217 25.2981 31.8854 25.2842 32.7211 25.2842C34.2648 25.2851 35.803 25.4674 37.304 25.8274C38.3831 26.0671 39.3844 26.5749 40.2153 27.304C40.4352 27.5223 40.6228 27.7709 40.7725 28.0423L40.9257 28.3209L40.7168 28.0701C40.5295 27.844 40.3142 27.6428 40.076 27.4712C39.1987 26.9144 38.2094 26.5577 37.1786 26.4264C36.4864 26.3224 35.7888 26.2573 35.0892 26.2314C34.337 26.2314 33.5569 26.2314 32.7351 26.2314C31.1053 26.3011 29.3641 26.4543 27.6229 26.6772C25.8816 26.9 24.1404 27.1508 22.5107 27.4015C20.8809 27.6522 19.3625 27.903 18.0671 28.1537L13.7071 28.9477Z" fill="#381415"/>
<g filter="url(#filter0_d_260_16023)">
<path d="M2.02 9.32061C2.02 9.32061 17.8999 7.78832 25.9373 8.42909C25.9373 8.42909 6.64467 22.2335 2.02 9.32061Z" fill="white"/>
</g>
<path d="M15.6155 12.3016C16.5305 12.3591 17.4312 12.0535 18.1223 11.4511C18.8134 10.8486 19.239 9.99803 19.3069 9.08377C19.3014 8.8192 19.2593 8.55667 19.1815 8.30371C16.7995 8.30371 14.2922 8.443 11.9659 8.5823C11.9522 8.74918 11.9522 8.9169 11.9659 9.08377C12.0338 9.99038 12.4536 10.8345 13.1356 11.4358C13.8175 12.037 14.7075 12.3477 15.6155 12.3016Z" fill="#472822"/>
<g filter="url(#filter1_d_260_16023)">
<path d="M51.9163 9.32061C51.9163 9.32061 36.0364 7.78832 28.0129 8.42909C28.0129 8.42909 47.2916 22.2335 51.9163 9.32061Z" fill="white"/>
</g>
<path d="M37.9169 12.3016C37.0019 12.3591 36.1012 12.0535 35.4101 11.4511C34.719 10.8486 34.2934 9.99803 34.2255 9.08377C34.231 8.8192 34.2731 8.55667 34.3509 8.30371C36.7329 8.30371 39.2263 8.443 41.5525 8.5823C41.5961 8.74599 41.6195 8.9144 41.6222 9.08377C41.5544 10.0006 41.1268 10.8534 40.4326 11.4562C39.7385 12.059 38.8342 12.3629 37.9169 12.3016Z" fill="#472822"/>
<path d="M2.02 6.71599C2.51506 6.15691 3.05552 5.63975 3.63586 5.16979C4.89655 4.1159 6.25373 3.18313 7.68941 2.38384C8.48341 2.00774 9.26347 1.56199 10.0575 1.26946C10.7617 0.980306 11.4827 0.733771 12.2166 0.531189C12.9363 0.340497 13.6665 0.191675 14.4035 0.0854492C13.7775 0.48117 13.1312 0.843837 12.4673 1.17197C11.8962 1.46449 11.2276 1.86844 10.5032 2.23062C9.77888 2.59279 9.02667 3.05248 8.26053 3.45644C7.4944 3.8604 6.74218 4.29222 6.00391 4.6544C5.26563 5.01657 4.61094 5.39267 4.02589 5.69913C2.84186 6.33989 2.02 6.71599 2.02 6.71599Z" fill="#2C405B"/>
<path d="M52 6.71571C52 6.71571 51.1782 6.33961 50.0081 5.74063C49.423 5.43418 48.7265 5.09986 48.0161 4.6959C47.3057 4.29194 46.5396 3.88798 45.7595 3.49794C44.9794 3.10791 44.2412 2.64822 43.5168 2.27212C42.7925 1.89602 42.1238 1.50599 41.5527 1.21347C40.8888 0.885341 40.2425 0.522673 39.6165 0.126953C40.358 0.233769 41.0928 0.382582 41.8174 0.572693C42.5512 0.775275 43.2722 1.02183 43.9765 1.31099C44.7705 1.60351 45.5366 2.04925 46.3445 2.42535C47.776 3.22446 49.1285 4.15727 50.3842 5.21129C50.9628 5.66794 51.5032 6.17109 52 6.71571Z" fill="#2C405B"/>
<path d="M2.02 9.32109L3.03689 9.12605C3.69159 9.02855 4.61094 8.83353 5.72532 8.69424C6.83969 8.55494 8.1491 8.37386 9.54207 8.2485C10.935 8.12313 12.4394 7.99775 13.9438 7.91417C15.4483 7.8306 16.9387 7.80273 18.3456 7.80273C19.7525 7.80273 21.1316 7.91418 22.2042 7.94204C23.1153 7.99281 24.0225 8.0998 24.9205 8.26242L25.9373 8.42957H24.8926C24.2379 8.42957 23.3186 8.42958 22.1903 8.52709L13.9996 8.97285L9.61172 9.16786L5.78105 9.27928C3.53836 9.36286 2.02 9.32109 2.02 9.32109Z" fill="#2C405B"/>
<path d="M51.9163 9.32101C51.9163 9.32101 50.4119 9.32101 48.1553 9.32101L44.3246 9.20957L39.9367 9.01455L31.7461 8.56879C30.6317 8.48521 29.6984 8.49915 29.0437 8.4713H28.0129L29.0298 8.30412C29.9506 8.13769 30.8812 8.03068 31.8157 7.98375C32.9301 7.98375 34.2534 7.81658 35.6603 7.84444C37.0672 7.8723 38.5716 7.84444 40.0621 7.95588C41.5526 8.06732 43.0709 8.13697 44.4639 8.2902C45.8569 8.44343 47.1663 8.61057 48.2807 8.73594C49.395 8.86131 50.3144 9.07027 50.9691 9.16778L51.9163 9.32101Z" fill="#2C405B"/>
<path d="M20.3655 33.2801C20.9999 33.0503 21.6463 32.855 22.3017 32.695C23.7281 32.3319 25.1816 32.085 26.6478 31.9568C28.1251 31.8041 29.6141 31.8041 31.0914 31.9568C31.5644 32.0071 32.0311 32.1051 32.4844 32.2493L33.0137 32.4164H32.4426C31.9754 32.4274 31.5097 32.474 31.0496 32.5557L26.7175 33.0433C25.1295 33.1826 23.5415 33.2801 22.3435 33.294C21.1456 33.3079 20.3655 33.2801 20.3655 33.2801Z" fill="#2C405B"/>
<defs>
<filter id="filter0_d_260_16023" x="0.0200043" y="8.27246" width="27.9173" height="10.5649" filterUnits="userSpaceOnUse" color-interpolation-filters="sRGB">
<feFlood flood-opacity="0" result="BackgroundImageFix"/>
<feColorMatrix in="SourceAlpha" type="matrix" values="0 0 0 0 0 0 0 0 0 0 0 0 0 0 0 0 0 0 127 0" result="hardAlpha"/>
<feOffset dy="2"/>
<feGaussianBlur stdDeviation="1"/>
<feComposite in2="hardAlpha" operator="out"/>
<feColorMatrix type="matrix" values="0 0 0 0 0 0 0 0 0 0 0 0 0 0 0 0 0 0 0.1 0"/>
<feBlend mode="normal" in2="BackgroundImageFix" result="effect1_dropShadow_260_16023"/>
<feBlend mode="normal" in="SourceGraphic" in2="effect1_dropShadow_260_16023" result="shape"/>
</filter>
<filter id="filter1_d_260_16023" x="26.0129" y="8.27246" width="27.9034" height="10.5649" filterUnits="userSpaceOnUse" color-interpolation-filters="sRGB">
<feFlood flood-opacity="0" result="BackgroundImageFix"/>
<feColorMatrix in="SourceAlpha" type="matrix" values="0 0 0 0 0 0 0 0 0 0 0 0 0 0 0 0 0 0 127 0" result="hardAlpha"/>
<feOffset dy="2"/>
<feGaussianBlur stdDeviation="1"/>
<feComposite in2="hardAlpha" operator="out"/>
<feColorMatrix type="matrix" values="0 0 0 0 0 0 0 0 0 0 0 0 0 0 0 0 0 0 0.1 0"/>
<feBlend mode="normal" in2="BackgroundImageFix" result="effect1_dropShadow_260_16023"/>
<feBlend mode="normal" in="SourceGraphic" in2="effect1_dropShadow_260_16023" result="shape"/>
</filter>
</defs>
</svg>
