<svg width="39" height="48" viewBox="0 0 39 48" fill="none" xmlns="http://www.w3.org/2000/svg">
<g filter="url(#filter0_d_260_16006)">
<path d="M17.3168 18.4676C17.3168 23.967 14.1029 28.4665 10.1747 28.4665C6.24659 28.4665 3.03265 24.0242 3.03265 18.4676C3.03265 12.9111 6.24659 8.46875 10.1747 8.46875C14.1029 8.46875 17.3168 13.0254 17.3168 18.4676Z" fill="white"/>
</g>
<path d="M2.96115 18.4678C2.96115 18.4678 2.96115 18.0392 2.87544 17.2964C2.85917 16.2427 2.97919 15.1912 3.23255 14.1682C3.40706 13.4767 3.6561 12.8062 3.97532 12.1684C4.3211 11.4335 4.76827 10.7508 5.30374 10.1401C5.89997 9.43268 6.63743 8.85759 7.46884 8.45173C8.30024 8.04586 9.20727 7.81814 10.1318 7.7832C11.086 7.81404 12.022 8.05295 12.8743 8.48316C13.6777 8.89003 14.3916 9.45339 14.9741 10.1401C15.5096 10.7508 15.9568 11.4335 16.3025 12.1684C16.6218 12.8062 16.8708 13.4767 17.0453 14.1682C17.3058 15.1899 17.4259 16.2423 17.4024 17.2964C17.4024 18.0392 17.3167 18.4678 17.3167 18.4678C17.3167 18.4678 17.3167 18.0392 17.1167 17.3107C17.0434 16.8764 16.9433 16.4471 16.8168 16.0252C16.6646 15.4855 16.4786 14.9559 16.2597 14.4396C16.0083 13.8303 15.7073 13.2427 15.3598 12.6827C14.9892 12.0757 14.5481 11.5147 14.0456 11.0114C13.5297 10.4861 12.9253 10.0558 12.2601 9.74017C11.6008 9.40594 10.871 9.2345 10.1318 9.24021C9.39722 9.26435 8.67464 9.43321 8.00547 9.73716C7.3363 10.0411 6.7337 10.4741 6.23221 11.0114C5.72536 11.5145 5.27948 12.0754 4.90379 12.6827C4.5551 13.2398 4.25864 13.8279 4.01818 14.4396C3.79928 14.9559 3.61322 15.4855 3.4611 16.0252C3.30397 16.5108 3.23255 16.9536 3.14685 17.3107C3.03257 18.0392 2.96115 18.4678 2.96115 18.4678Z" fill="#2C405B"/>
<g filter="url(#filter1_d_260_16006)">
<path d="M35.3719 18.4676C35.3719 23.967 32.5151 28.4665 29.0012 28.4665C25.4873 28.4665 22.6305 24.0242 22.6305 18.4676C22.6305 12.9111 25.4873 8.46875 29.0012 8.46875C32.5151 8.46875 35.3719 13.0254 35.3719 18.4676Z" fill="white"/>
</g>
<path d="M22.6304 18.4671C22.6304 18.4671 22.6304 18.0529 22.5304 17.3387C22.5027 16.3329 22.5841 15.3272 22.7733 14.339C23.0625 12.9063 23.6463 11.5492 24.4874 10.3537C24.9954 9.65197 25.63 9.05127 26.3586 8.58253C27.1658 8.06997 28.1021 7.79748 29.0583 7.79688H29.6725L30.401 7.96828C30.8432 8.10294 31.2658 8.29503 31.658 8.53963C32.3868 9.00811 33.0215 9.60889 33.5292 10.3109C34.372 11.5038 34.9514 12.8623 35.229 14.2962C35.4255 15.2834 35.507 16.2899 35.4719 17.2958C35.4719 18.0243 35.3719 18.4243 35.3719 18.4243C35.3719 18.4243 35.3719 18.0243 35.2005 17.3244C35.1148 16.9673 35.0576 16.5531 34.9148 16.0817C34.7719 15.6103 34.6291 15.0818 34.4434 14.5247C34.2201 13.9387 33.9626 13.3664 33.6721 12.8106C33.3464 12.2043 32.9638 11.6303 32.5293 11.0965C32.0774 10.5617 31.542 10.1035 30.9438 9.73954C30.6502 9.56197 30.3328 9.42729 30.0011 9.33959L29.5582 9.22529H28.944C28.2825 9.24548 27.6376 9.43749 27.0728 9.78239C26.4719 10.1425 25.9359 10.6013 25.4873 11.1394C25.0484 11.6699 24.6654 12.2443 24.3445 12.8535C24.0482 13.4064 23.7905 13.9791 23.5732 14.5675C23.3875 15.1246 23.2018 15.6532 23.0875 16.1246C22.9765 16.5292 22.8859 16.9392 22.8161 17.353C22.7019 18.0672 22.6304 18.4671 22.6304 18.4671Z" fill="#2C405B"/>
<path d="M14.9598 22.1383C14.9598 24.181 14.0599 25.8236 12.9457 25.8236C11.8316 25.8236 10.9317 24.181 10.9317 22.1383C10.9317 20.0957 11.8316 18.4673 12.9457 18.4673C14.0599 18.4673 14.9598 20.1671 14.9598 22.1383Z" fill="#472822"/>
<path d="M12.9458 20.4104C12.9429 20.5566 12.897 20.6988 12.8137 20.8191C12.7304 20.9393 12.6134 21.0323 12.4775 21.0863C12.3415 21.1403 12.1926 21.1531 12.0495 21.1228C11.9064 21.0925 11.7754 21.0207 11.6729 20.9163C11.5705 20.8118 11.5011 20.6795 11.4736 20.5358C11.4461 20.3921 11.4616 20.2435 11.5182 20.1086C11.5748 19.9737 11.67 19.8586 11.7918 19.7776C11.9137 19.6966 12.0567 19.6533 12.203 19.6533C12.3017 19.6533 12.3995 19.6729 12.4906 19.7112C12.5816 19.7494 12.6641 19.8054 12.7333 19.8759C12.8025 19.9464 12.8569 20.0299 12.8934 20.1217C12.9298 20.2135 12.9477 20.3116 12.9458 20.4104Z" fill="white"/>
<path d="M24.9588 22.1383C24.9588 24.181 25.873 25.8236 26.9871 25.8236C28.1013 25.8236 29.0012 24.181 29.0012 22.1383C29.0012 20.0957 28.1013 18.4673 26.9871 18.4673C25.873 18.4673 24.9588 20.1671 24.9588 22.1383Z" fill="#472822"/>
<path d="M26.9872 20.4104C26.99 20.5566 27.0359 20.6988 27.1192 20.8191C27.2025 20.9393 27.3195 21.0323 27.4554 21.0863C27.5914 21.1403 27.7402 21.1531 27.8834 21.1228C28.0265 21.0925 28.1575 21.0207 28.26 20.9163C28.3624 20.8118 28.4318 20.6795 28.4593 20.5358C28.4868 20.3921 28.4713 20.2435 28.4147 20.1086C28.3581 19.9737 28.2629 19.8586 28.1411 19.7776C28.0192 19.6966 27.8762 19.6533 27.7299 19.6533C27.6312 19.6533 27.5334 19.6729 27.4423 19.7112C27.3513 19.7494 27.2687 19.8054 27.1996 19.8759C27.1304 19.9464 27.076 20.0299 27.0395 20.1217C27.0031 20.2135 26.9853 20.3116 26.9872 20.4104Z" fill="white"/>
<path d="M0.589951 9.75362C0.589951 9.75362 1.43271 9.16797 2.704 8.41091C3.34678 8.02524 4.13242 7.58244 4.87519 7.12534C5.61797 6.66825 6.50359 6.16831 7.33207 5.69693C7.74631 5.43982 8.16054 5.19697 8.54622 4.92558C8.93189 4.65418 9.34612 4.42564 9.70323 4.15424C10.3811 3.68973 11.0299 3.18407 11.6459 2.64013C11.9316 2.41158 12.1458 2.16875 12.3601 1.96877C12.5482 1.79295 12.7159 1.59651 12.86 1.38314L13.2885 0.840332C13.2885 0.840332 13.2885 1.08316 13.1171 1.52596C13.0449 1.78844 12.9443 2.04228 12.8172 2.28302C12.6675 2.60527 12.4857 2.91155 12.2744 3.19721C11.7633 3.92153 11.1634 4.57895 10.4889 5.15413C9.7358 5.80552 8.9335 6.39772 8.08912 6.92539C6.506 7.88649 4.81309 8.65378 3.04682 9.21082C2.24482 9.46137 1.42287 9.64297 0.589951 9.75362Z" fill="#2C405B"/>
<path d="M39 9.75364C38.1654 9.62434 37.3434 9.42365 36.5431 9.15373C34.7769 8.59669 33.084 7.82936 31.5008 6.86826C30.6487 6.34543 29.8413 5.75301 29.0868 5.09704C28.4164 4.52184 27.8213 3.86432 27.3156 3.1401C27.1043 2.85444 26.9224 2.54816 26.7728 2.22592C26.6334 1.99099 26.5322 1.73547 26.4728 1.46886C26.3443 1.02605 26.3014 0.783203 26.3014 0.783203L26.7299 1.32601C26.8741 1.53938 27.0418 1.73584 27.2299 1.91166C27.4545 2.14932 27.693 2.3735 27.9441 2.58302C28.5601 3.12697 29.2088 3.63262 29.8867 4.09713C30.2438 4.36853 30.6438 4.61138 31.0295 4.86849C31.4151 5.1256 31.8437 5.38269 32.2579 5.6398C33.0721 6.16831 33.9291 6.63969 34.7148 7.06822L36.8717 8.35382C38.1572 9.16802 39 9.75364 39 9.75364Z" fill="#2C405B"/>
<path d="M27.1585 47.3071C29.2726 47.3071 30.1439 45.8073 29.0869 43.9789C29.0869 43.9789 25.5158 37.751 19.088 37.751C12.6601 37.751 9.08909 43.9789 9.08909 43.9789C8.04635 45.8073 8.90339 47.3071 11.0174 47.3071H27.1585Z" fill="#381415"/>
<defs>
<filter id="filter0_d_260_16006" x="1.03265" y="8.46875" width="18.2841" height="23.9976" filterUnits="userSpaceOnUse" color-interpolation-filters="sRGB">
<feFlood flood-opacity="0" result="BackgroundImageFix"/>
<feColorMatrix in="SourceAlpha" type="matrix" values="0 0 0 0 0 0 0 0 0 0 0 0 0 0 0 0 0 0 127 0" result="hardAlpha"/>
<feOffset dy="2"/>
<feGaussianBlur stdDeviation="1"/>
<feComposite in2="hardAlpha" operator="out"/>
<feColorMatrix type="matrix" values="0 0 0 0 0 0 0 0 0 0 0 0 0 0 0 0 0 0 0.1 0"/>
<feBlend mode="normal" in2="BackgroundImageFix" result="effect1_dropShadow_260_16006"/>
<feBlend mode="normal" in="SourceGraphic" in2="effect1_dropShadow_260_16006" result="shape"/>
</filter>
<filter id="filter1_d_260_16006" x="20.6305" y="8.46875" width="16.7414" height="23.9976" filterUnits="userSpaceOnUse" color-interpolation-filters="sRGB">
<feFlood flood-opacity="0" result="BackgroundImageFix"/>
<feColorMatrix in="SourceAlpha" type="matrix" values="0 0 0 0 0 0 0 0 0 0 0 0 0 0 0 0 0 0 127 0" result="hardAlpha"/>
<feOffset dy="2"/>
<feGaussianBlur stdDeviation="1"/>
<feComposite in2="hardAlpha" operator="out"/>
<feColorMatrix type="matrix" values="0 0 0 0 0 0 0 0 0 0 0 0 0 0 0 0 0 0 0.1 0"/>
<feBlend mode="normal" in2="BackgroundImageFix" result="effect1_dropShadow_260_16006"/>
<feBlend mode="normal" in="SourceGraphic" in2="effect1_dropShadow_260_16006" result="shape"/>
</filter>
</defs>
</svg>
