<svg width="20" height="20" viewBox="0 0 20 20" fill="none" xmlns="http://www.w3.org/2000/svg">
<path d="M14.6667 3H5.33333C4.4496 3.00106 3.60237 3.35259 2.97748 3.97748C2.35259 4.60237 2.00106 5.4496 2 6.33333L2 14.3333C2.00106 15.2171 2.35259 16.0643 2.97748 16.6892C3.60237 17.3141 4.4496 17.6656 5.33333 17.6667H14.6667C15.5504 17.6656 16.3976 17.3141 17.0225 16.6892C17.6474 16.0643 17.9989 15.2171 18 14.3333V6.33333C17.9989 5.4496 17.6474 4.60237 17.0225 3.97748C16.3976 3.35259 15.5504 3.00106 14.6667 3ZM5.33333 4.33333H14.6667C15.0659 4.33412 15.4557 4.45434 15.786 4.67854C16.1163 4.90273 16.3719 5.22063 16.52 5.59133L11.4147 10.6973C11.039 11.0715 10.5303 11.2816 10 11.2816C9.46972 11.2816 8.96105 11.0715 8.58533 10.6973L3.48 5.59133C3.6281 5.22063 3.88374 4.90273 4.21403 4.67854C4.54432 4.45434 4.93414 4.33412 5.33333 4.33333ZM14.6667 16.3333H5.33333C4.8029 16.3333 4.29419 16.1226 3.91912 15.7475C3.54405 15.3725 3.33333 14.8638 3.33333 14.3333V7.33333L7.64267 11.64C8.26842 12.2642 9.11617 12.6147 10 12.6147C10.8838 12.6147 11.7316 12.2642 12.3573 11.64L16.6667 7.33333V14.3333C16.6667 14.8638 16.456 15.3725 16.0809 15.7475C15.7058 16.1226 15.1971 16.3333 14.6667 16.3333Z" fill="#374957"/>
</svg>
