<svg width="44" height="49" viewBox="0 0 44 49" fill="none" xmlns="http://www.w3.org/2000/svg">
<path d="M17.3325 16.0374C17.3325 16.0374 9.94168 6.88058 2.53777 13.1595C7.6007 13.2367 12.6098 14.211 17.3325 16.0374Z" fill="#381415"/>
<path d="M27.0125 16.0374C27.0125 16.0374 34.4033 6.88058 41.8072 13.1595C36.7443 13.2367 31.7352 14.211 27.0125 16.0374Z" fill="#381415"/>
<path d="M17.7642 15.1082C17.7642 15.1082 17.5287 14.8858 17.2148 14.5326C16.9009 14.1794 16.8747 14.1402 16.7046 13.9047C16.5346 13.6692 16.3514 13.4076 16.1552 13.1591L15.2134 11.7202C15.0703 11.4962 14.9393 11.2648 14.821 11.0269C15.0361 11.1842 15.2414 11.3546 15.4358 11.537C15.6437 11.7169 15.8362 11.9138 16.0113 12.1257L16.5738 12.8713C16.9092 13.3463 17.2024 13.8496 17.4503 14.3756C17.5677 14.6141 17.6725 14.8586 17.7642 15.1082Z" fill="#2C405B"/>
<path d="M26.5154 15.1082C26.5983 14.8572 26.6988 14.6124 26.8163 14.3756C27.0741 13.855 27.3669 13.3524 27.6927 12.8713L28.2683 12.1257C28.4391 11.9142 28.6272 11.7173 28.8308 11.537C29.0308 11.3559 29.2404 11.1856 29.4586 11.0269C29.4586 11.0269 29.3017 11.3277 29.0531 11.7202L28.1244 13.1591C27.9282 13.4076 27.745 13.6692 27.575 13.9047C27.4049 14.1402 27.2087 14.3495 27.0648 14.5326C26.9209 14.7157 26.5154 15.1082 26.5154 15.1082Z" fill="#2C405B"/>
<path d="M43.5601 29.7592C43.5601 29.7592 40.5514 48.3082 21.78 48.8838C3.00862 48.3082 -4.57764e-05 29.7592 -4.57764e-05 29.7592C-4.57764e-05 29.7592 18.5621 20.21 43.5601 29.7592Z" fill="#381415"/>
<path d="M7.52159 6.38317C7.5647 5.7067 7.71025 5.0407 7.95327 4.40792C8.18788 3.74989 8.49965 3.12198 8.88204 2.53732C9.11447 2.22015 9.3726 1.92264 9.65382 1.64781C9.95182 1.32752 10.2854 1.04225 10.648 0.797532C11.0329 0.556276 11.4458 0.362987 11.8776 0.221964C12.3018 0.0977864 12.7453 0.0534332 13.1857 0.0911554C13.3965 0.103593 13.6062 0.129808 13.8136 0.169639L14.3761 0.378936C14.7111 0.486416 15.019 0.664891 15.2787 0.902183C15.5203 1.05517 15.7366 1.24495 15.9197 1.46467C16.0653 1.62613 16.2008 1.79652 16.3252 1.97483L16.6391 2.41959C16.6391 2.41959 16.4429 2.41959 16.129 2.21029C15.815 2.001 15.7758 2.0664 15.5796 1.96175C15.3603 1.83271 15.1279 1.72746 14.8863 1.64781C14.6276 1.54129 14.354 1.47511 14.0752 1.45159H13.6436H13.2119C12.9166 1.47803 12.6262 1.54403 12.3485 1.64781C12.0503 1.75687 11.7686 1.90653 11.5113 2.09256C11.2246 2.2633 10.9609 2.46991 10.7265 2.70738C10.4649 2.91668 10.2294 3.17829 9.98085 3.41375C9.53609 3.92392 9.10441 4.421 8.75122 4.86576L7.52159 6.38317Z" fill="#2C405B"/>
<path d="M34.678 6.3829L33.4615 4.85241C33.0952 4.40765 32.6766 3.91057 32.2188 3.40041C31.9876 3.15181 31.7431 2.916 31.4862 2.69403C31.245 2.45883 30.9772 2.25251 30.6883 2.07922C30.4326 1.89061 30.1505 1.74074 29.8511 1.63446C29.5775 1.5321 29.2916 1.46613 29.0008 1.43824H28.556H28.1244C27.8458 1.46315 27.5725 1.52927 27.3133 1.63446C27.0695 1.69136 26.8327 1.7747 26.607 1.883L26.0575 2.13154C25.7305 2.27543 25.5343 2.34083 25.5343 2.34083L25.8483 1.89608C25.9727 1.71776 26.1081 1.54738 26.2538 1.38591C26.4368 1.1662 26.6531 0.976413 26.8947 0.823426C27.1575 0.583464 27.4703 0.404763 27.8104 0.300184L28.3598 0.0908869C28.5715 0.0502895 28.7856 0.0240655 29.0008 0.0123984C29.4412 -0.0241239 29.8845 0.0202073 30.3089 0.143208C30.7397 0.286778 31.1523 0.479933 31.5385 0.71878C31.8971 0.963664 32.2263 1.24896 32.5196 1.56905C32.8031 1.86054 33.0613 2.17562 33.2914 2.51089C33.6788 3.09266 33.9909 3.7212 34.2202 4.38149C34.4747 5.02113 34.6292 5.6962 34.678 6.3829Z" fill="#2C405B"/>
<path d="M39.2171 31.4595C39.2171 31.4595 42.4612 32.3621 42.4482 29.3534C20.4196 21.3739 3.558 28.0453 0.470856 29.5104C0.636902 29.9821 0.915518 30.4061 1.28252 30.7457C1.64952 31.0854 2.09382 31.3304 2.57692 31.4595C4.7353 31.7342 30.335 30.5307 39.2171 31.4595Z" fill="white"/>
<path d="M21.4268 43.8473C15.7889 42.0682 13.1857 45.0246 12.27 46.6335C15.2524 48.0668 18.5107 48.8345 21.8193 48.8835C25.1596 48.8403 28.4484 48.0539 31.447 46.5812C29.04 41.7543 21.4268 43.8473 21.4268 43.8473Z" fill="#D45555"/>
<path d="M21.0998 45.496C19.9626 45.2165 18.7685 45.2756 17.6645 45.666C16.5605 46.0565 15.5948 46.7613 14.8863 47.6936C17.1144 48.422 19.4366 48.823 21.78 48.884C24.0774 48.8323 26.3552 48.449 28.5429 47.7459C27.5226 43.9916 21.0998 45.496 21.0998 45.496Z" fill="#BA474B"/>
</svg>
