<svg width="42" height="48" viewBox="0 0 42 48" fill="none" xmlns="http://www.w3.org/2000/svg">
<path d="M-3.05176e-05 6.06829L1.81791 5.21054L3.67423 4.35279C4.33995 4.04553 5.05691 3.71267 5.74823 3.35421C6.43956 2.99574 7.14365 2.62447 7.79657 2.27881L8.70556 1.74111C8.97441 1.54908 9.24325 1.36985 9.4993 1.21623C9.96018 0.85776 10.3954 0.601707 10.6387 0.358463L11.074 0C11.074 0 10.9843 0.179239 10.7923 0.486494C10.5204 0.905534 10.212 1.29967 9.87054 1.6643C9.37845 2.16711 8.84294 2.6255 8.27025 3.03415C7.6129 3.50696 6.92428 3.93469 6.2091 4.31438C5.49195 4.66044 4.75691 4.96813 4.0071 5.23615C3.35233 5.46429 2.68562 5.65661 2.00994 5.81225C1.34646 5.9426 0.674943 6.02814 -3.05176e-05 6.06829Z" fill="#2C405B"/>
<path d="M41.3899 6.06829C40.7138 6.01124 40.0422 5.9086 39.3799 5.76104C38.7042 5.6054 38.0375 5.41308 37.3828 5.18494C36.633 4.91692 35.8979 4.60923 35.1808 4.26317C34.4656 3.88348 33.7769 3.45575 33.1196 2.98294C32.5401 2.59177 31.9961 2.15054 31.4937 1.6643C31.1523 1.29967 30.8438 0.905534 30.5719 0.486494C30.3799 0.179239 30.2903 0 30.2903 0L30.7256 0.358463C31.0901 0.6641 31.4704 0.950418 31.865 1.21623C32.121 1.36985 32.3899 1.54908 32.6715 1.74111L33.5677 2.27881C34.2206 2.62447 34.8479 3.00855 35.6032 3.35421C36.3586 3.69987 37.0243 4.04553 37.69 4.35279L39.5464 5.21054L41.3899 6.06829Z" fill="#2C405B"/>
<path d="M-3.05176e-05 12.8663C1.46532 12.2215 3.03564 11.8485 4.6344 11.7653C6.2583 11.6489 7.89044 11.7827 9.47367 12.1622C10.2689 12.3689 11.0477 12.6342 11.8037 12.9559C12.5657 13.2804 13.2981 13.6701 13.9929 14.1209C14.692 14.5577 15.3517 15.0546 15.9644 15.606C16.5756 16.1596 17.1528 16.7495 17.6928 17.3727C17.8284 17.5333 17.9092 17.733 17.9233 17.9428C17.9374 18.1525 17.8841 18.3613 17.7711 18.5385C17.6582 18.7158 17.4915 18.8524 17.2955 18.9282C17.0994 19.0041 16.8842 19.0153 16.6814 18.9602L16.0157 18.8194L15.2859 18.7041C14.7851 18.6318 14.2809 18.5848 13.7753 18.5633C12.7511 18.5633 11.7141 18.5633 10.6771 18.5633C9.6401 18.5633 8.60311 18.7297 7.55332 18.8706C6.50353 19.0114 5.45374 19.1906 4.39115 19.3699C5.34162 18.8658 6.33052 18.4377 7.34852 18.0896C8.37555 17.7194 9.42809 17.4241 10.4979 17.2063C11.5833 16.9949 12.6832 16.8665 13.7881 16.8222C14.3467 16.7902 14.9066 16.7902 15.4652 16.8222H16.3229C16.6174 16.8222 16.8734 16.9118 17.2191 17.0014L16.2077 18.5889C15.2241 17.5019 14.1154 16.535 12.9047 15.7084C11.6913 14.8883 10.3738 14.2338 8.98721 13.7625C7.57024 13.2726 6.10075 12.9503 4.60881 12.8023C3.07425 12.6695 1.53025 12.691 -3.05176e-05 12.8663Z" fill="#2C405B"/>
<path d="M41.1978 12.8668C39.6654 12.7128 38.1214 12.7128 36.589 12.8668C35.1012 13.0149 33.636 13.3372 32.2234 13.827C30.8327 14.2983 29.511 14.9527 28.2931 15.7729C27.0849 16.6028 25.9766 17.5694 24.9901 18.6534L23.9915 17.066C24.3372 16.9763 24.5932 16.9379 24.8876 16.8867H25.7326C26.2912 16.8549 26.8511 16.8549 27.4097 16.8867C28.5147 16.9302 29.6146 17.0586 30.6999 17.2708C31.7701 17.487 32.8227 17.7823 33.8493 18.1542C34.8673 18.5022 35.8561 18.9303 36.8066 19.4344C35.744 19.2551 34.6942 19.0759 33.6444 18.9351C32.5946 18.7943 31.5576 18.679 30.5206 18.6278C29.4837 18.5766 28.4467 18.6278 27.4353 18.6278C26.9296 18.6488 26.4254 18.6958 25.9246 18.7687C25.6686 18.7687 25.4254 18.8455 25.1821 18.8839L24.5164 19.0247C24.2685 19.0959 24.0025 19.0657 23.7769 18.9409C23.5512 18.8161 23.3844 18.6068 23.3129 18.359C23.2648 18.2007 23.2583 18.0327 23.2942 17.8712C23.3301 17.7097 23.4071 17.5602 23.5178 17.4372C24.0533 16.8141 24.6262 16.2241 25.2333 15.6705C25.851 15.1251 26.5102 14.6286 27.2049 14.1854C27.8996 13.7347 28.6321 13.3449 29.394 13.0204C30.1544 12.6987 30.9375 12.4334 31.7369 12.2267C33.32 11.8462 34.9523 11.7123 36.5762 11.8298C38.1666 11.8942 39.7323 12.2456 41.1978 12.8668Z" fill="#2C405B"/>
<path d="M33.7341 38.0996C33.3884 31.8649 27.3329 26.8848 19.8308 26.8848C12.3286 26.8848 6.2603 31.8649 5.91464 38.0996H33.7341Z" fill="#381415"/>
<path d="M26.9232 34.2848C24.6572 30.4441 19.8179 32.4924 19.8179 32.4924C19.8179 32.4924 15.0042 30.4697 12.7254 34.2848C10.4466 38.0998 10.165 47.4967 19.8179 47.9576C29.5476 47.4967 29.202 38.0998 26.9232 34.2848Z" fill="#E56662"/>
<path d="M26.9231 34.2848C24.6571 30.4441 19.8179 32.4924 19.8179 32.4924C19.8179 32.4924 15.0042 30.4697 12.7254 34.2848C11.9487 35.7155 11.5107 37.3054 11.4452 38.932C12.2517 36.922 14.4921 32.7357 18.9601 33.8111L19.8435 38.1255C19.8435 38.1255 20.6372 33.4014 22.1479 33.6446C23.6586 33.8879 26.3983 34.4 28.2546 38.8808C28.17 37.2668 27.7144 35.694 26.9231 34.2848Z" fill="#D45555"/>
</svg>
