<svg width="20" height="20" viewBox="0 0 20 20" fill="none" xmlns="http://www.w3.org/2000/svg">
<g clip-path="url(#clip0_98_10863)">
<path d="M10 20C15.5228 20 20 15.5228 20 10C20 4.47715 15.5228 0 10 0C4.47715 0 0 4.47715 0 10C0 15.5228 4.47715 20 10 20Z" fill="#FE76A8"/>
<path d="M10.0003 0C9.81801 0 9.63695 0.00519531 9.45707 0.0148437C14.7272 0.297031 18.9138 4.65945 18.9138 10C18.9138 15.3405 14.7272 19.703 9.45703 19.9852C9.63691 19.9948 9.81801 20 10.0003 20C15.5231 20 20.0003 15.5229 20.0003 10C20.0003 4.47715 15.5232 0 10.0003 0Z" fill="#E759AA"/>
<path d="M16.5968 14.9869C17.6465 13.6005 18.2697 11.8732 18.2697 10.0001C18.2697 5.43715 14.5629 1.73031 9.99992 1.73039C8.12687 1.73043 6.39957 2.35356 5.0132 3.40332C4.89688 3.49141 4.88629 3.66266 4.98949 3.76586L16.2343 15.0106C16.3374 15.1138 16.5087 15.1032 16.5968 14.9869ZM3.4034 5.01313C2.35363 6.39949 1.73051 8.12676 1.73047 9.99977C1.73035 14.5627 5.43719 18.2696 10.0002 18.2696C11.8732 18.2696 13.6005 17.6464 14.987 16.5967C15.1033 16.5086 15.1139 16.3373 15.0107 16.2341L3.7659 4.98942C3.66273 4.88621 3.49148 4.8968 3.4034 5.01313Z" fill="#F3F0F3"/>
<path d="M12.6946 13.0453C13.0765 10.7807 13.0765 8.51617 12.6946 6.2516C12.6452 5.95883 12.699 5.66144 12.8288 5.39437C12.9347 5.17637 12.9351 4.94152 12.8069 4.77254C12.6396 4.55203 12.297 4.51031 11.9825 4.6577C11.7153 4.78285 11.4129 4.81129 11.1247 4.74812C9.61372 4.41695 8.1027 4.41687 6.59169 4.74789C6.30536 4.81062 6.00349 4.78629 5.73899 4.65992C5.41946 4.50727 5.07392 4.55445 4.90845 4.77254C4.78024 4.94152 4.78071 5.17637 4.88661 5.39437C5.01634 5.66144 5.07009 5.95883 5.02075 6.2516C4.63892 8.51617 4.63892 10.7807 5.02075 13.0453C5.07013 13.338 5.01634 13.6354 4.88661 13.9025C4.78071 14.1205 4.78024 14.3554 4.90845 14.5243C5.07575 14.7449 5.41829 14.7866 5.7329 14.6392C6.00005 14.514 6.30243 14.4856 6.59063 14.5488C8.10145 14.8799 9.61227 14.88 11.1231 14.5491C11.4093 14.4864 11.7113 14.51 11.9755 14.6367C12.296 14.7902 12.6419 14.7419 12.8069 14.5244C12.9351 14.3554 12.9347 14.1205 12.8288 13.9025C12.699 13.6354 12.6452 13.338 12.6946 13.0453Z" fill="#D77F4A"/>
<path d="M12.6945 13.0453C13.0764 10.7807 13.0764 8.51617 12.6945 6.2516C12.6451 5.95883 12.6989 5.66144 12.8287 5.39437C12.9346 5.17637 12.935 4.94152 12.8068 4.77254C12.6395 4.55203 12.2969 4.51031 11.9824 4.65769C11.8789 4.70591 11.7695 4.74023 11.657 4.75976C11.661 4.7641 11.6654 4.76805 11.6693 4.77254C11.8146 4.94152 11.8141 5.17637 11.6941 5.39437C11.547 5.66144 11.486 5.95883 11.542 6.2516C11.9749 8.51617 11.9749 10.7807 11.542 13.0453C11.486 13.338 11.547 13.6354 11.6941 13.9025C11.8141 14.1205 11.8147 14.3554 11.6693 14.5243C11.6659 14.5283 11.6619 14.5318 11.6584 14.5357C11.7682 14.5547 11.8748 14.5887 11.9755 14.6366C12.2959 14.7902 12.6418 14.7419 12.8069 14.5243C12.9351 14.3554 12.9346 14.1205 12.8287 13.9025C12.6989 13.6354 12.6451 13.338 12.6945 13.0453Z" fill="#C86D36"/>
<path d="M8.85844 13.6181C8.7784 13.6181 8.70163 13.5863 8.64503 13.5297C8.58844 13.4731 8.55664 13.3964 8.55664 13.3163V8.00903C8.55664 7.92899 8.58844 7.85222 8.64503 7.79562C8.70163 7.73903 8.7784 7.70723 8.85844 7.70723C8.93848 7.70723 9.01524 7.73903 9.07184 7.79562C9.12844 7.85222 9.16023 7.92899 9.16023 8.00903V13.3163C9.16024 13.3559 9.15244 13.3952 9.13727 13.4318C9.12211 13.4684 9.09988 13.5017 9.07185 13.5297C9.04383 13.5577 9.01056 13.58 8.97394 13.5952C8.93732 13.6103 8.89807 13.6181 8.85844 13.6181Z" fill="#FFD15B"/>
<path d="M10.4721 8.87015C10.4634 8.83166 10.444 8.79642 10.4161 8.76853C10.3882 8.74063 10.353 8.72121 10.3145 8.71254C9.91661 8.6225 9.4827 8.73218 9.17294 9.04195C9.02371 9.19074 8.91546 9.37557 8.85868 9.57851C8.80191 9.37557 8.69365 9.19074 8.54442 9.04195C8.23466 8.73218 7.80075 8.6225 7.4029 8.71254C7.36441 8.72121 7.32917 8.74063 7.30127 8.76853C7.27337 8.79642 7.25396 8.83166 7.24528 8.87015C7.15524 9.268 7.26493 9.70191 7.5747 10.0117C7.88446 10.3214 8.31837 10.4312 8.71626 10.3411C8.7472 10.3341 8.77612 10.32 8.80081 10.3001C8.8255 10.2802 8.84531 10.2549 8.85872 10.2261C8.87213 10.2549 8.89193 10.2802 8.91663 10.3001C8.94132 10.3201 8.97024 10.3341 9.00118 10.3411C9.39903 10.4312 9.83298 10.3214 10.1427 10.0117C10.4525 9.70195 10.5622 9.268 10.4721 8.87015ZM10.4721 11.3519C10.4634 11.3134 10.444 11.2781 10.4161 11.2502C10.3882 11.2223 10.353 11.2029 10.3145 11.1943C9.91661 11.1042 9.4827 11.2139 9.17294 11.5237C9.0237 11.6725 8.91545 11.8573 8.85868 12.0602C8.80191 11.8573 8.69366 11.6725 8.54442 11.5237C8.23466 11.2139 7.80075 11.1042 7.4029 11.1943C7.36441 11.2029 7.32917 11.2223 7.30127 11.2502C7.27337 11.2781 7.25396 11.3134 7.24528 11.3519C7.15524 11.7497 7.26493 12.1836 7.5747 12.4934C7.88446 12.8032 8.31837 12.9128 8.71626 12.8228C8.7472 12.8158 8.77613 12.8017 8.80082 12.7818C8.82551 12.7619 8.84531 12.7365 8.85872 12.7078C8.87212 12.7365 8.89192 12.7619 8.91662 12.7818C8.94131 12.8017 8.97023 12.8158 9.00118 12.8228C9.39903 12.9128 9.83298 12.8032 10.1427 12.4934C10.4525 12.1836 10.5622 11.7497 10.4721 11.3519ZM8.97013 6.01285C8.93678 5.99176 8.89814 5.98056 8.85868 5.98056C8.81923 5.98056 8.78058 5.99176 8.74724 6.01285C8.40224 6.2305 8.17298 6.61488 8.17298 7.05297C8.17298 7.49105 8.40224 7.87543 8.74724 8.09308C8.78058 8.11417 8.81923 8.12537 8.85868 8.12537C8.89814 8.12537 8.93678 8.11417 8.97013 8.09308C9.31513 7.87543 9.54438 7.49101 9.54438 7.05297C9.54438 6.61492 9.31513 6.2305 8.97013 6.01285Z" fill="#FFE177"/>
<path d="M15.7096 13.3163C15.5526 12.4398 14.6745 11.4031 13.6146 11.4031C12.5547 11.4031 11.6765 12.4397 11.5195 13.3163H15.7096Z" fill="#FFE177"/>
<path d="M13.6148 11.4032C13.4279 11.4032 13.2469 11.436 13.0742 11.4938C13.8417 11.543 14.4699 12.5019 14.5847 13.3163H15.7098C15.5529 12.4398 14.6747 11.4032 13.6148 11.4032Z" fill="#FFD15B"/>
<path d="M14.6881 15.3339H12.5435C11.691 15.3339 11 14.6429 11 13.7905V13.2424C11 13.1825 11.0238 13.1251 11.0661 13.0828C11.1085 13.0404 11.1659 13.0166 11.2258 13.0166H16.0058C16.0657 13.0166 16.1231 13.0404 16.1654 13.0828C16.2078 13.1251 16.2316 13.1825 16.2316 13.2424V13.7905C16.2316 14.6429 15.5405 15.3339 14.6881 15.3339Z" fill="#7ACAA6"/>
<path d="M15.9983 13.0166H14.9922C15.0539 13.0166 15.1131 13.0411 15.1567 13.0848C15.2003 13.1284 15.2248 13.1875 15.2248 13.2492V13.7439C15.2248 14.622 14.5129 15.3339 13.6348 15.3339H14.6408C15.519 15.3339 16.2309 14.622 16.2309 13.7439V13.2492C16.2309 13.2187 16.2249 13.1884 16.2132 13.1602C16.2015 13.132 16.1844 13.1063 16.1628 13.0847C16.1412 13.0631 16.1155 13.046 16.0873 13.0343C16.0591 13.0226 16.0288 13.0166 15.9983 13.0166Z" fill="#57BE92"/>
</g>
<defs>
<clipPath id="clip0_98_10863">
<rect width="20" height="20" fill="white"/>
</clipPath>
</defs>
</svg>
