<svg width="43" height="53" viewBox="0 0 43 53" fill="none" xmlns="http://www.w3.org/2000/svg">
<path d="M21.3391 33.4439C14.1037 33.6667 6.94072 31.9469 0.595123 28.4634C0.595123 28.4634 3.4714 46.1693 21.3391 46.7545C39.2194 46.2066 42.0707 28.5505 42.0707 28.5505C35.7203 32.0016 28.5624 33.6911 21.3391 33.4439Z" fill="#381415"/>
<g filter="url(#filter0_d_260_15941)">
<path d="M19.7578 18.4899C19.7578 23.2837 16.9562 27.2059 13.5321 27.2059C10.1079 27.2059 7.30637 23.321 7.30637 18.4899C7.30637 13.6588 10.1079 9.77393 13.5321 9.77393C16.9562 9.77393 19.7578 13.7086 19.7578 18.4899Z" fill="white"/>
</g>
<path d="M7.24408 18.4904C7.24408 18.4904 7.24408 18.1293 7.24408 17.4818C7.24373 16.5691 7.36516 15.6605 7.60517 14.7799C7.77116 14.1878 7.9921 13.6126 8.26509 13.0616C8.56409 12.4272 8.95421 11.8399 9.42307 11.3184C9.93213 10.7161 10.5621 10.2275 11.2721 9.88433C11.9821 9.54113 12.7563 9.35097 13.5445 9.32617C14.3554 9.33849 15.1525 9.53882 15.8729 9.91139C16.5357 10.2635 17.1236 10.7414 17.6036 11.3184C18.0725 11.8399 18.4626 12.4272 18.7616 13.0616C19.0452 13.6078 19.2666 14.1842 19.4215 14.7799C19.6637 15.6561 19.7893 16.5604 19.7951 17.4694C19.7951 18.1293 19.7951 18.4904 19.7951 18.4904C19.7951 18.4904 19.7951 18.1293 19.6457 17.4943C19.5868 17.1127 19.5079 16.7345 19.4091 16.3612C19.297 15.9379 19.1352 15.4647 18.9484 14.9542C18.7435 14.4172 18.4892 13.9003 18.1889 13.4102C17.8617 12.8659 17.4685 12.3641 17.0184 11.9161C16.5654 11.438 16.0297 11.0456 15.4371 10.7581C14.8435 10.4682 14.1926 10.315 13.532 10.3098C12.869 10.3255 12.2157 10.4735 11.6106 10.745C11.0055 11.0166 10.4608 11.4062 10.0083 11.8912C9.56559 12.3457 9.17317 12.8466 8.83786 13.3853C8.53752 13.8754 8.28325 14.3923 8.07832 14.9293C7.90198 15.3893 7.75232 15.8591 7.63008 16.3363C7.52324 16.7042 7.44006 17.0785 7.38105 17.4569L7.24408 18.4904Z" fill="#2C405B"/>
<g filter="url(#filter1_d_260_15941)">
<path d="M35.4964 18.4899C35.4964 23.2837 33.0061 27.2059 29.943 27.2059C26.88 27.2059 24.3897 23.321 24.3897 18.4899C24.3897 13.6588 26.88 9.77393 29.943 9.77393C33.0061 9.77393 35.4964 13.7086 35.4964 18.4899Z" fill="white"/>
</g>
<path d="M24.3901 18.4904C24.3901 18.4904 24.3901 18.1418 24.3278 17.5192C24.3177 16.6488 24.4054 15.7801 24.5893 14.9293C24.8615 13.6961 25.3734 12.5285 26.0959 11.4927C26.5346 10.8998 27.0792 10.3932 27.7022 9.99854C28.3811 9.55959 29.1723 9.32611 29.9808 9.32617H30.5162C30.7218 9.36126 30.9254 9.40698 31.1263 9.46314C31.4994 9.57651 31.8554 9.73986 32.1847 9.94874C32.8077 10.3434 33.3523 10.85 33.7909 11.4429C34.5184 12.4759 35.0307 13.6446 35.2975 14.8795C35.4814 15.7303 35.5691 16.599 35.559 17.4694C35.559 18.0919 35.559 18.4406 35.559 18.4406C35.559 18.4406 35.559 18.092 35.4345 17.4818C35.296 16.6372 35.092 15.8046 34.8244 14.9916C34.6453 14.4644 34.4246 13.9523 34.1644 13.46C33.8855 12.9247 33.5517 12.4198 33.1683 11.9534C32.7736 11.4613 32.2978 11.0402 31.7613 10.7083C31.4957 10.5523 31.2111 10.4309 30.9146 10.3472C30.7757 10.3053 30.6343 10.272 30.4913 10.2476H29.9683C29.3627 10.2657 28.7715 10.4371 28.25 10.7456C27.7161 11.0809 27.2408 11.5016 26.843 11.9908C26.4597 12.4571 26.1259 12.962 25.8469 13.4974C25.5868 13.9896 25.3661 14.5017 25.187 15.0289C25.0376 15.527 24.8882 15.9752 24.801 16.3986C24.7138 16.8219 24.6516 17.1706 24.5893 17.4818L24.3901 18.4904Z" fill="#2C405B"/>
<path d="M17.7031 21.7027C17.7031 23.4832 16.9187 24.9152 15.9474 24.9152C14.9762 24.9152 14.1794 23.4832 14.1794 21.7027C14.1794 19.9221 14.9762 18.4902 15.9474 18.4902C16.9187 18.4902 17.7031 19.9346 17.7031 21.7027Z" fill="#472822"/>
<path d="M15.9474 20.1836C15.9474 20.3117 15.9094 20.4368 15.8383 20.5433C15.7671 20.6498 15.666 20.7328 15.5477 20.7818C15.4294 20.8308 15.2992 20.8436 15.1736 20.8186C15.048 20.7937 14.9327 20.732 14.8421 20.6414C14.7516 20.5509 14.6899 20.4355 14.6649 20.3099C14.6399 20.1843 14.6527 20.0541 14.7018 19.9358C14.7508 19.8175 14.8337 19.7164 14.9402 19.6452C15.0467 19.5741 15.1719 19.5361 15.2999 19.5361C15.4717 19.5361 15.6363 19.6043 15.7578 19.7258C15.8792 19.8472 15.9474 20.0119 15.9474 20.1836Z" fill="white"/>
<path d="M26.4193 21.7027C26.4193 23.4832 27.2162 24.9152 28.1874 24.9152C29.1586 24.9152 29.9431 23.4832 29.9431 21.7027C29.9431 19.9221 29.1586 18.4902 28.1874 18.4902C27.2162 18.4902 26.4193 19.9346 26.4193 21.7027Z" fill="#472822"/>
<path d="M28.1873 20.1836C28.1873 20.3117 28.2253 20.4368 28.2965 20.5433C28.3676 20.6498 28.4687 20.7328 28.587 20.7818C28.7054 20.8308 28.8355 20.8436 28.9611 20.8186C29.0867 20.7937 29.2021 20.732 29.2927 20.6414C29.3832 20.5509 29.4449 20.4355 29.4699 20.3099C29.4948 20.1843 29.482 20.0541 29.433 19.9358C29.384 19.8175 29.301 19.7164 29.1945 19.6452C29.0881 19.5741 28.9629 19.5361 28.8348 19.5361C28.6631 19.5361 28.4984 19.6043 28.377 19.7258C28.2556 19.8472 28.1873 20.0119 28.1873 20.1836Z" fill="white"/>
<path d="M8.43948 6.01397C8.4871 5.37101 8.62544 4.73802 8.85038 4.13381C9.07339 3.50506 9.37458 2.90684 9.74688 2.35325C10.1853 1.70308 10.7379 1.13778 11.378 0.684771C11.7456 0.457423 12.1384 0.273566 12.5484 0.136907C12.9522 0.0187067 13.3744 -0.0235018 13.7936 0.0124044C13.9926 -0.00111778 14.1923 -0.00111778 14.3912 0.0124044L14.9267 0.224076C15.2437 0.324429 15.5363 0.489819 15.7858 0.70968C16.0138 0.862816 16.2228 1.04254 16.4084 1.24508L16.7819 1.73068C16.9811 2.00461 17.0808 2.16649 17.0808 2.16649C17.0808 2.16649 16.894 2.10423 16.5951 1.96726L16.0722 1.71824C15.8487 1.62615 15.62 1.54716 15.3874 1.48166C15.1387 1.39014 14.8792 1.33154 14.6154 1.30734L14.2045 1.24508H13.7936C13.5132 1.26725 13.237 1.32585 12.9718 1.4194C12.6937 1.53262 12.4304 1.67895 12.1874 1.85521C11.9081 2.01383 11.6524 2.21082 11.4278 2.44042C11.1788 2.63965 10.9547 2.88866 10.7181 3.11279C10.2947 3.58594 9.88384 4.0591 9.54766 4.4949L8.43948 6.01397Z" fill="#2C405B"/>
<path d="M34.3011 6.01392L33.1306 4.55711C32.7944 4.12131 32.3835 3.64816 31.9602 3.175C31.7236 2.95088 31.4995 2.70186 31.2505 2.50264C31.0229 2.27286 30.7678 2.0721 30.4909 1.90495C30.2446 1.73747 29.9817 1.59562 29.7065 1.48161C29.441 1.38925 29.1649 1.33068 28.8847 1.30729H28.4738L28.0629 1.36955C27.7991 1.39375 27.5396 1.45235 27.2909 1.54387C27.0582 1.60937 26.8296 1.68837 26.6061 1.78045L26.0831 2.02948C25.9211 2.10535 25.7548 2.17187 25.5851 2.2287C25.5851 2.2287 25.6847 2.06683 25.8839 1.7929C26.0831 1.51897 26.1205 1.49406 26.2699 1.30729C26.448 1.10552 26.6534 0.92951 26.88 0.784337C27.1302 0.555926 27.4278 0.385813 27.7516 0.286269L28.2746 0.0745979C28.4778 0.0617099 28.6815 0.0617099 28.8847 0.0745979C29.3039 0.039267 29.726 0.0814839 30.1298 0.199119C30.5372 0.316005 30.9298 0.478923 31.3003 0.684723C31.9571 1.14528 32.5229 1.72367 32.9688 2.39056C33.3411 2.94414 33.6423 3.54236 33.8653 4.17112C34.0953 4.76219 34.242 5.38241 34.3011 6.01392Z" fill="#2C405B"/>
<path d="M21.3391 42.4462C16.4582 41.338 13.8683 43.6166 12.9095 44.9365C15.5742 46.0857 18.4377 46.7033 21.3391 46.7544C24.2322 46.7 27.0869 46.0826 29.7438 44.9365C28.81 43.6166 26.2325 41.338 21.3391 42.4462Z" fill="#E56662"/>
<path d="M14.7774 45.6096C16.8981 46.3056 19.1082 46.6915 21.3393 46.7551C23.6557 46.6897 25.9485 46.2698 28.1378 45.51C22.4475 41.538 16.1222 44.8127 14.7774 45.6096Z" fill="#D45555"/>
<path d="M15.674 49.5181C15.674 49.5181 15.8358 49.6301 16.1347 49.792C17.105 50.3102 18.139 50.6995 19.2101 50.95C19.9107 51.0926 20.6245 51.1594 21.3393 51.1492C21.7015 51.1429 22.063 51.118 22.4226 51.0745L23.4685 50.8753L24.4273 50.6013C24.7386 50.5017 25.0125 50.3772 25.2864 50.2776C25.7125 50.1211 26.1283 49.9381 26.5316 49.7297L27.0296 49.5181C26.9105 49.6521 26.7815 49.777 26.6436 49.8916C26.3027 50.2327 25.9271 50.5374 25.523 50.8006C25.2544 50.982 24.9759 51.1482 24.6888 51.2986C24.3775 51.448 24.0413 51.5974 23.6802 51.7344C23.3191 51.8714 22.9331 51.9585 22.5471 52.0457C22.1611 52.1329 21.7378 52.1702 21.302 52.1702C20.8855 52.1675 20.4696 52.1383 20.0568 52.0831C19.6625 52.0316 19.2745 51.9398 18.8989 51.8091C18.549 51.697 18.2078 51.5597 17.8778 51.3982C17.5846 51.2542 17.3053 51.0833 17.0436 50.8877C16.6391 50.6208 16.2709 50.3027 15.9479 49.9414C15.8413 49.8108 15.7494 49.6688 15.674 49.5181Z" fill="#2C405B"/>
<defs>
<filter id="filter0_d_260_15941" x="5.30637" y="9.77393" width="16.4514" height="21.4321" filterUnits="userSpaceOnUse" color-interpolation-filters="sRGB">
<feFlood flood-opacity="0" result="BackgroundImageFix"/>
<feColorMatrix in="SourceAlpha" type="matrix" values="0 0 0 0 0 0 0 0 0 0 0 0 0 0 0 0 0 0 127 0" result="hardAlpha"/>
<feOffset dy="2"/>
<feGaussianBlur stdDeviation="1"/>
<feComposite in2="hardAlpha" operator="out"/>
<feColorMatrix type="matrix" values="0 0 0 0 0 0 0 0 0 0 0 0 0 0 0 0 0 0 0.1 0"/>
<feBlend mode="normal" in2="BackgroundImageFix" result="effect1_dropShadow_260_15941"/>
<feBlend mode="normal" in="SourceGraphic" in2="effect1_dropShadow_260_15941" result="shape"/>
</filter>
<filter id="filter1_d_260_15941" x="22.3897" y="9.77393" width="15.1067" height="21.4321" filterUnits="userSpaceOnUse" color-interpolation-filters="sRGB">
<feFlood flood-opacity="0" result="BackgroundImageFix"/>
<feColorMatrix in="SourceAlpha" type="matrix" values="0 0 0 0 0 0 0 0 0 0 0 0 0 0 0 0 0 0 127 0" result="hardAlpha"/>
<feOffset dy="2"/>
<feGaussianBlur stdDeviation="1"/>
<feComposite in2="hardAlpha" operator="out"/>
<feColorMatrix type="matrix" values="0 0 0 0 0 0 0 0 0 0 0 0 0 0 0 0 0 0 0.1 0"/>
<feBlend mode="normal" in2="BackgroundImageFix" result="effect1_dropShadow_260_15941"/>
<feBlend mode="normal" in="SourceGraphic" in2="effect1_dropShadow_260_15941" result="shape"/>
</filter>
</defs>
</svg>
