<svg width="43" height="47" viewBox="0 0 43 47" fill="none" xmlns="http://www.w3.org/2000/svg">
<path d="M29.9175 40.1683C31.9883 40.1683 32.8418 38.6991 31.8064 36.9081C31.8064 36.9081 28.3084 30.8076 22.012 30.8076C15.7156 30.8076 12.2176 36.9081 12.2176 36.9081C11.1962 38.6991 12.0497 40.1683 14.1065 40.1683H29.9175Z" fill="#381415"/>
<path d="M1.52763 9.1342C1.52763 9.1342 2.35315 8.57451 3.59844 7.81894C4.22808 7.44116 4.99764 7.0074 5.72523 6.55965C6.45281 6.11191 7.33431 5.62219 8.13185 5.16045C8.53762 4.92259 8.94339 4.67074 9.32117 4.40489C9.69895 4.13905 10.1047 3.91516 10.4545 3.64931C11.1132 3.21698 11.7484 2.74992 12.3574 2.25011C12.6037 2.04031 12.8374 1.81605 13.057 1.5785C13.2376 1.40373 13.4059 1.21674 13.5607 1.01883L13.9665 0.473145C13.9665 0.473145 13.9665 0.711003 13.7986 1.14475C13.7428 1.40665 13.6435 1.65732 13.5048 1.88633C13.3613 2.20359 13.1829 2.50393 12.9731 2.78182C12.4724 3.49132 11.8849 4.1353 11.2241 4.69871C10.4961 5.3488 9.70916 5.92965 8.87343 6.43373C8.04443 6.95193 7.18466 7.41919 6.29889 7.83293C5.53058 8.18154 4.74076 8.48065 3.93425 8.72842C3.14426 8.92816 2.33944 9.06387 1.52763 9.1342Z" fill="#2C405B"/>
<path d="M39.1521 9.13415C38.3356 9.00884 37.5307 8.81697 36.7455 8.56047C35.939 8.3127 35.1492 8.01359 34.3808 7.66498C33.4951 7.25125 32.6353 6.78398 31.8063 6.26578C30.9685 5.75831 30.1772 5.1777 29.4417 4.53077C28.7887 3.96357 28.2062 3.32 27.7067 2.61387C27.4968 2.33598 27.3185 2.03565 27.175 1.71838C27.0421 1.48649 26.9432 1.23676 26.8811 0.976807C26.7552 0.543055 26.7132 0.305176 26.7132 0.305176L27.133 0.850863C27.2784 1.05232 27.4423 1.23971 27.6227 1.41056C27.8424 1.6481 28.076 1.87237 28.3223 2.08217C28.9314 2.58197 29.5666 3.04903 30.2252 3.48137C30.575 3.74721 30.9668 3.98509 31.3586 4.23695C31.7503 4.4888 32.1421 4.75464 32.5479 4.99251C33.3454 5.51021 34.185 5.97195 34.9545 6.39171L37.0813 7.65098C38.3266 8.57445 39.1521 9.13415 39.1521 9.13415Z" fill="#2C405B"/>
<path d="M16.3592 20.3001C16.3592 20.3001 8.34177 16.1024 0.870041 21.0556C0.870041 21.0556 8.60762 8.71468 16.3592 20.3001Z" fill="#381415"/>
<path d="M27.4969 20.3001C27.4969 20.3001 35.5143 16.1024 43 21.0556C43 21.0556 35.3044 8.71468 27.4969 20.3001Z" fill="#381415"/>
<path d="M17.1147 44.2119C17.4994 44.5547 17.9165 44.8593 18.36 45.1214C19.2352 45.7169 20.2678 46.0384 21.3263 46.0449C21.6035 46.0327 21.8795 46 22.1518 45.9469C22.4037 45.863 22.6836 45.821 22.9354 45.7231C23.1873 45.6251 23.4251 45.4992 23.663 45.4012L24.2926 45.0374C24.6204 44.8592 24.938 44.663 25.2441 44.4498L25.6079 44.2119C25.6079 44.2119 25.5239 44.3518 25.356 44.5757C25.1354 44.8909 24.8873 45.1859 24.6144 45.4572C24.4325 45.6251 24.2367 45.807 24.0268 45.9749C23.8169 46.1428 23.5371 46.2967 23.2572 46.4506C22.6639 46.7596 22.0089 46.9318 21.3403 46.9544C21.0015 46.9525 20.6638 46.915 20.3329 46.8424C20.008 46.7756 19.6929 46.6674 19.3954 46.5206C18.8725 46.2773 18.3983 45.9406 17.9962 45.5272C17.6244 45.1463 17.3257 44.7005 17.1147 44.2119Z" fill="#2C405B"/>
</svg>
