<svg width="20" height="20" viewBox="0 0 20 20" fill="none" xmlns="http://www.w3.org/2000/svg">
<path d="M9.99979 20C6.10241 20 3.1637 16.4591 3.88194 12.6285L5.69585 2.9543C6.01706 1.24129 7.51272 0 9.25557 0H10.7441C12.4869 0 13.9826 1.24129 14.3037 2.9543L16.1176 12.6285C16.8359 16.4591 13.8972 20 9.99979 20Z" fill="#80D261"/>
<path d="M9.99934 18.75C6.88156 18.75 4.53672 15.917 5.11008 12.8588L6.92399 3.18465C7.13418 2.06363 8.11457 1.25 9.25512 1.25H10.7436C11.8841 1.25 12.8645 2.06363 13.0747 3.18465L14.8886 12.8588C15.4631 15.9232 13.1108 18.75 9.99934 18.75Z" fill="#FFE177"/>
<path d="M10 16.875C11.7259 16.875 13.125 15.4759 13.125 13.75C13.125 12.0241 11.7259 10.625 10 10.625C8.27411 10.625 6.875 12.0241 6.875 13.75C6.875 15.4759 8.27411 16.875 10 16.875Z" fill="#FE860A"/>
<path d="M10.1882 10.6306C10.9907 11.1962 11.5148 12.1302 11.5148 13.1866C11.5148 14.9125 10.1157 16.3116 8.38984 16.3116C8.32691 16.3116 8.26399 16.3098 8.20117 16.306C8.70973 16.6645 9.33004 16.875 9.99953 16.875C11.7254 16.875 13.1245 15.4759 13.1245 13.75C13.1245 12.0875 11.8262 10.7282 10.1882 10.6306Z" fill="#FE7701"/>
<path d="M15.8689 2.5H4.13105C3.57543 2.5 3.125 2.95043 3.125 3.50605V7.74398C3.125 8.29957 3.57543 8.75 4.13105 8.75H9.29168C9.3181 8.75 9.34427 8.75521 9.36868 8.76532C9.39309 8.77544 9.41527 8.79026 9.43395 8.80895L9.85773 9.23273C9.87642 9.25142 9.89859 9.26624 9.923 9.27635C9.94741 9.28647 9.97358 9.29167 10 9.29167C10.0264 9.29167 10.0526 9.28647 10.077 9.27635C10.1014 9.26624 10.1236 9.25142 10.1423 9.23273L10.5661 8.80895C10.5847 8.79026 10.6069 8.77544 10.6313 8.76532C10.6557 8.75521 10.6819 8.75 10.7083 8.75H15.8689C16.4246 8.75 16.875 8.29957 16.875 7.74395V3.50605C16.875 2.95043 16.4246 2.5 15.8689 2.5Z" fill="#02C7DD"/>
<path d="M15.8693 2.5H15.0645C15.6201 2.5 16.0705 2.95043 16.0705 3.50605V7.74398C16.0705 8.29961 15.6201 8.75004 15.0645 8.75004H15.8693C16.4249 8.75 16.8754 8.29957 16.8754 7.74395V3.50605C16.8754 2.95043 16.4249 2.5 15.8693 2.5Z" fill="#07B2CD"/>
<path d="M6.25 3.45703C6.1723 3.45703 6.09778 3.4879 6.04284 3.54284C5.9879 3.59778 5.95703 3.6723 5.95703 3.75V4.6875C5.95703 5.04289 5.66789 5.33203 5.3125 5.33203H4.66797V3.75C4.66797 3.58816 4.5368 3.45703 4.375 3.45703C4.2132 3.45703 4.08203 3.58816 4.08203 3.75V7.5C4.08203 7.66184 4.2132 7.79297 4.375 7.79297C4.5368 7.79297 4.66797 7.66184 4.66797 7.5V5.91797H5.3125C5.66789 5.91797 5.95703 6.20711 5.95703 6.5625V7.5C5.95703 7.66184 6.0882 7.79297 6.25 7.79297C6.4118 7.79297 6.54297 7.66184 6.54297 7.5V6.5625C6.54297 6.18734 6.37418 5.85086 6.10859 5.625C6.37418 5.39914 6.54297 5.06266 6.54297 4.6875V3.75C6.54297 3.6723 6.5121 3.59778 6.45716 3.54284C6.40222 3.4879 6.3277 3.45703 6.25 3.45703ZM9.375 4.04297C9.5368 4.04297 9.66797 3.91184 9.66797 3.75C9.66797 3.58816 9.5368 3.45703 9.375 3.45703H7.5C7.4223 3.45703 7.34778 3.4879 7.29284 3.54284C7.2379 3.59778 7.20703 3.6723 7.20703 3.75V7.5C7.20703 7.5777 7.2379 7.65222 7.29284 7.70716C7.34778 7.7621 7.4223 7.79297 7.5 7.79297H9.375C9.5368 7.79297 9.66797 7.66184 9.66797 7.5C9.66797 7.33816 9.5368 7.20703 9.375 7.20703H7.79297V5.91797H8.4375C8.5993 5.91797 8.73047 5.78684 8.73047 5.625C8.73047 5.46316 8.5993 5.33203 8.4375 5.33203H7.79297V4.04297H9.375ZM14.6875 3.45703C14.009 3.45703 13.457 4.00902 13.457 4.6875V6.5625C13.457 7.24098 14.009 7.79297 14.6875 7.79297C15.366 7.79297 15.918 7.24098 15.918 6.5625V4.6875C15.918 4.00902 15.366 3.45703 14.6875 3.45703ZM15.332 6.5625C15.332 6.91789 15.0429 7.20703 14.6875 7.20703C14.3321 7.20703 14.043 6.91789 14.043 6.5625V4.6875C14.043 4.33211 14.3321 4.04297 14.6875 4.04297C15.0429 4.04297 15.332 4.33211 15.332 4.6875V6.5625ZM12.5 3.45703H10.625C10.4632 3.45703 10.332 3.58816 10.332 3.75C10.332 3.91184 10.4632 4.04297 10.625 4.04297H11.2695V7.5C11.2695 7.66184 11.4007 7.79297 11.5625 7.79297C11.7243 7.79297 11.8555 7.66184 11.8555 7.5V4.04297H12.5C12.6618 4.04297 12.793 3.91184 12.793 3.75C12.793 3.58816 12.6618 3.45703 12.5 3.45703Z" fill="#EAF9FA"/>
</svg>
