<svg width="60" height="60" viewBox="0 0 60 60" fill="none" xmlns="http://www.w3.org/2000/svg">
<path d="M29.6603 43.3202C23.8821 43.5032 18.1608 42.1297 13.0947 39.3433C13.0947 39.3433 15.3704 53.4513 29.6404 53.8888C43.9006 53.4513 46.1861 39.3433 46.1861 39.3433C41.132 42.1232 35.4252 43.4965 29.6603 43.3202Z" fill="#381415"/>
<path d="M19.3354 21.4075C19.3673 20.8965 19.4779 20.3935 19.6633 19.9162C19.8415 19.4161 20.0784 18.9388 20.3689 18.4945C20.5411 18.2378 20.7375 17.9981 20.9552 17.7786C21.178 17.5353 21.4281 17.3185 21.7005 17.1324C21.9938 16.9509 22.3073 16.804 22.6346 16.6949C22.9571 16.6021 23.2938 16.5684 23.6283 16.5955C23.7871 16.5852 23.9465 16.5852 24.1053 16.5955L24.5326 16.7645C24.7847 16.8467 25.0179 16.9785 25.2183 17.1523C25.3974 17.2744 25.5609 17.418 25.7052 17.5798C25.8344 17.7289 25.9338 17.8582 26.0133 17.9675C26.0928 18.0769 26.2518 18.3155 26.2518 18.3155L25.8543 18.1564L25.4369 17.9576C25.262 17.884 25.0828 17.8209 24.9003 17.7687C24.7029 17.692 24.4953 17.6451 24.2842 17.6295L23.9562 17.5798H23.6283C23.4044 17.5964 23.1838 17.6433 22.9724 17.719C22.7486 17.8078 22.5353 17.9212 22.3364 18.057C22.1214 18.1952 21.9186 18.3515 21.7303 18.5243C21.5315 18.6933 21.3526 18.8922 21.1738 19.0711C20.826 19.4489 20.508 19.8267 20.18 20.1747L19.3354 21.4075Z" fill="#2C405B"/>
<path d="M39.9654 21.4075L39.0412 20.2542C38.763 19.9062 38.445 19.5284 38.0972 19.1506C37.9216 18.9616 37.7358 18.7824 37.5407 18.6137C37.355 18.4349 37.1519 18.275 36.9345 18.1365C36.7356 18.0006 36.5223 17.8873 36.2985 17.7984C36.0903 17.7237 35.8731 17.6769 35.6526 17.6593H35.3147L34.9868 17.709C34.7756 17.7246 34.568 17.7715 34.3706 17.8482C34.1882 17.9004 34.009 17.9635 33.834 18.0371L33.4167 18.2359L33.0192 18.395C33.0192 18.395 33.0987 18.2657 33.2577 18.047C33.4167 17.8283 33.4365 17.8084 33.5657 17.6593C33.71 17.4975 33.8736 17.3539 34.0527 17.2317C34.2531 17.058 34.4862 16.9262 34.7383 16.844L35.1656 16.6749C35.3278 16.6642 35.4904 16.6642 35.6526 16.6749C35.9871 16.6472 36.3239 16.6809 36.6463 16.7744C36.9736 16.8835 37.287 17.0303 37.5804 17.2118C37.8528 17.398 38.1029 17.6148 38.3257 17.8581C38.5434 18.0775 38.7397 18.3172 38.912 18.5739C39.2063 19.0161 39.4434 19.4938 39.6176 19.9957C39.802 20.4467 39.9192 20.9224 39.9654 21.4075Z" fill="#2C405B"/>
<path d="M29.6504 50.5084C25.7649 49.6235 23.688 51.4429 22.9228 52.4968C25.0441 53.4093 27.3219 53.9022 29.6305 53.9484C31.9391 53.9022 34.2169 53.4093 36.3382 52.4968C35.5731 51.4429 33.5359 49.6235 29.6504 50.5084Z" fill="#E56662"/>
<path d="M24.3836 53.0339C26.0807 53.5805 27.848 53.8785 29.6305 53.9187C31.4792 53.8665 33.3091 53.5312 35.0563 52.9245C30.505 49.7828 25.4667 52.3976 24.3836 53.0339Z" fill="#D45555"/>
<path d="M45.888 29.053C46.0969 28.252 46.037 27.4044 45.7175 26.6408C45.398 25.8771 44.8367 25.2396 44.1198 24.8262C43.4029 24.4128 42.5702 24.2464 41.7496 24.3526C40.929 24.4589 40.1659 24.8318 39.5778 25.4141C39.3464 24.6187 38.8601 23.9215 38.1938 23.4297C37.5275 22.9379 36.7181 22.6788 35.8903 22.6924C35.0624 22.706 34.2619 22.9914 33.612 23.5047C32.9622 24.0181 32.499 24.7309 32.2937 25.5334C32.2937 25.5334 30.8528 30.0472 36.7655 36.0126C44.9042 33.7259 45.8781 29.053 45.888 29.053Z" fill="#F17090"/>
<path d="M45.8881 29.0529C46.0942 28.2447 46.0242 27.3908 45.6893 26.627C45.7518 27.105 45.7248 27.5905 45.6098 28.0586C45.6098 28.0586 44.6161 32.7414 36.5469 35.0182C34.6892 33.2744 33.2606 31.1237 32.3733 28.7347C33.1208 31.527 34.6437 34.0503 36.7656 36.0124C44.9043 33.7257 45.8781 29.0529 45.8881 29.0529Z" fill="#C84269"/>
<path d="M37.0239 23.1874C36.0906 23.0059 35.1232 23.1768 34.3084 23.667C33.4935 24.1572 32.8891 24.9321 32.6118 25.8419C32.6118 25.8419 35.1458 23.5552 37.0239 23.1874Z" fill="white"/>
<path d="M43.3639 24.8375C42.6251 24.6799 41.854 24.8089 41.2065 25.1983C40.559 25.5877 40.0835 26.2086 39.8759 26.9353C40.8841 26.0062 42.0709 25.2924 43.3639 24.8375Z" fill="white"/>
<path d="M13.4127 29.0531C13.2887 28.5713 13.2608 28.0698 13.3305 27.5773C13.4002 27.0847 13.5662 26.6106 13.8191 26.1823C14.0719 25.7539 14.4066 25.3795 14.8041 25.0806C15.2016 24.7816 15.654 24.5639 16.1356 24.4399C16.7683 24.2785 17.4322 24.2853 18.0614 24.4597C18.6907 24.6341 19.2634 24.97 19.723 25.4341C19.9543 24.6387 20.4406 23.9415 21.1069 23.4497C21.7732 22.9579 22.5826 22.6989 23.4105 22.7124C24.2384 22.726 25.0389 23.0114 25.6887 23.5247C26.3386 24.0381 26.8018 24.7509 27.007 25.5535C27.007 25.5535 28.4181 30.1269 22.4756 36.0525C14.4065 33.726 13.4227 29.0531 13.4127 29.0531Z" fill="#F17090"/>
<path d="M13.4127 29.0529C13.2119 28.2443 13.2817 27.3921 13.6115 26.627C13.5476 27.1054 13.578 27.5918 13.7009 28.0586C13.7009 28.0586 14.6946 32.7414 22.7538 35.0182C24.6171 33.2772 26.0495 31.1258 26.9375 28.7347C26.1732 31.5339 24.6292 34.0579 22.4855 36.0124C14.4064 33.7257 13.4226 29.0529 13.4127 29.0529Z" fill="#C84269"/>
<path d="M22.2868 23.1871C23.2188 23.006 24.1849 23.1772 24.9981 23.6675C25.8113 24.1579 26.4138 24.9325 26.6891 25.8416C26.6891 25.8416 24.155 23.5549 22.2868 23.1871Z" fill="white"/>
<path d="M15.8971 24.8375C16.6359 24.6799 17.4071 24.8089 18.0545 25.1983C18.702 25.5877 19.1776 26.2086 19.3851 26.9353C18.377 26.0062 17.1901 25.2924 15.8971 24.8375Z" fill="white"/>
<path d="M3.05802 15.8596C2.9572 15.4628 2.98866 15.0439 3.14763 14.6667C3.3066 14.2894 3.58436 13.9744 3.93868 13.7696C4.293 13.5648 4.70449 13.4813 5.11055 13.532C5.51662 13.5826 5.89504 13.7645 6.18828 14.0501C6.27734 13.7394 6.44624 13.4575 6.67814 13.2324C6.91004 13.0074 7.19683 12.8471 7.50995 12.7675C7.74877 12.7046 7.99766 12.6894 8.24235 12.7228C8.48704 12.7563 8.72274 12.8376 8.93596 12.9623C9.14918 13.087 9.33572 13.2525 9.48493 13.4494C9.63413 13.6463 9.74306 13.8707 9.80548 14.1097C9.80548 14.1097 10.5011 16.3766 7.54971 19.3095C3.54495 18.1761 3.05802 15.8695 3.05802 15.8596Z" fill="#EE4C74"/>
<path d="M3.05803 15.8598C2.95494 15.459 2.98995 15.0351 3.15739 14.6567C3.11306 14.8899 3.11306 15.1294 3.15739 15.3627C3.15739 15.3627 3.64433 17.6792 7.64909 18.8225C8.57196 17.9554 9.28265 16.8872 9.72599 15.7007C9.34328 17.0892 8.57488 18.3406 7.50996 19.3097C3.54496 18.1763 3.05803 15.8697 3.05803 15.8598Z" fill="#C84269"/>
<path d="M7.45033 12.9563C7.91255 12.8645 8.39239 12.948 8.79648 13.1905C9.20056 13.4331 9.5 13.8174 9.63655 14.2687C9.00601 13.6851 8.2617 13.2383 7.45033 12.9563Z" fill="#E57794"/>
<path d="M4.31015 13.7722C4.67652 13.6997 5.05674 13.7665 5.3765 13.9596C5.69626 14.1526 5.93258 14.458 6.03926 14.8161C5.53873 14.3556 4.95068 14.0006 4.31015 13.7722Z" fill="#E57794"/>
<path d="M56.0638 15.8598C56.1647 15.463 56.1332 15.0442 55.9742 14.6669C55.8153 14.2897 55.5375 13.9747 55.1832 13.7698C54.8289 13.565 54.4174 13.4816 54.0113 13.5322C53.6052 13.5829 53.2268 13.7648 52.9336 14.0503C52.8157 13.6574 52.5725 13.3138 52.2412 13.0721C51.9098 12.8304 51.5086 12.7039 51.0986 12.7118C50.6886 12.7197 50.2925 12.8616 49.9707 13.1158C49.6489 13.3701 49.4191 13.7228 49.3164 14.1199C49.3164 14.1199 48.6208 16.3868 51.5622 19.3197C55.567 18.1764 56.0539 15.8698 56.0638 15.8598Z" fill="#EE4C74"/>
<path d="M56.0639 15.8598C56.1617 15.4586 56.1269 15.0364 55.9646 14.6567C56.0089 14.8899 56.0089 15.1294 55.9646 15.3627C55.9646 15.3627 55.4677 17.6792 51.4729 18.8225C50.5467 17.9582 49.8354 16.8891 49.396 15.7007C49.7739 17.0889 50.5391 18.3407 51.602 19.3097C55.5671 18.1763 56.054 15.8697 56.0639 15.8598Z" fill="#C84269"/>
<path d="M51.6716 12.9566C51.2104 12.8628 50.7309 12.9457 50.3279 13.1887C49.9249 13.4317 49.6278 13.8172 49.4953 14.269C50.1234 13.6873 50.8641 13.2406 51.6716 12.9566Z" fill="#E57794"/>
<path d="M54.8117 13.7722C54.4454 13.6997 54.0652 13.7665 53.7454 13.9596C53.4256 14.1526 53.1893 14.458 53.0826 14.8161C53.5832 14.3556 54.1712 14.0006 54.8117 13.7722Z" fill="#E57794"/>
<path d="M50.1412 8.17427C50.1845 8.00909 50.1946 7.83699 50.1709 7.66788C50.1473 7.49877 50.0904 7.33602 50.0036 7.18903C49.9167 7.04204 49.8016 6.91372 49.6649 6.81149C49.5282 6.70927 49.3726 6.63517 49.2071 6.59346C48.9902 6.53605 48.7619 6.53706 48.5455 6.59643C48.3291 6.6558 48.1322 6.77141 47.9749 6.93149C47.8955 6.65858 47.7285 6.41943 47.4996 6.25109C47.2707 6.08274 46.9927 5.9946 46.7087 6.00026C46.4247 6.00592 46.1504 6.10507 45.9284 6.2824C45.7064 6.45973 45.549 6.70533 45.4806 6.98119C45.4806 6.98119 44.9937 8.54214 47.0308 10.5704C49.8033 9.74515 50.1412 8.17427 50.1412 8.17427Z" fill="#EE4C74"/>
<path d="M50.1412 8.17401C50.2085 7.89539 50.184 7.60252 50.0717 7.33887C50.1013 7.50325 50.1013 7.6716 50.0717 7.83598C50.0717 7.83598 49.7338 9.43668 46.9712 10.2221C46.3356 9.62391 45.8489 8.88502 45.5502 8.06466C45.8028 9.02707 46.3313 9.89451 47.0706 10.5601C49.8034 9.74488 50.1412 8.17401 50.1412 8.17401Z" fill="#C84269"/>
<path d="M47.1004 6.12625C46.7813 6.06281 46.4501 6.12026 46.1709 6.28745C45.8918 6.45464 45.6848 6.71964 45.59 7.031C46.0273 6.63052 46.5411 6.32275 47.1004 6.12625Z" fill="#E57794"/>
<path d="M49.2766 6.69279C49.0232 6.64189 48.7599 6.6869 48.5377 6.81916C48.3156 6.95141 48.1504 7.16149 48.0742 7.40863C48.4216 7.08985 48.8309 6.84616 49.2766 6.69279Z" fill="#E57794"/>
<path d="M8.5832 8.17421C8.53996 8.00903 8.52986 7.83692 8.55348 7.66781C8.57711 7.4987 8.634 7.33595 8.72085 7.18896C8.80771 7.04198 8.9228 6.91365 9.05951 6.81143C9.19622 6.7092 9.35182 6.63511 9.51732 6.59339C9.73426 6.53598 9.96252 6.537 10.1789 6.59637C10.3953 6.65573 10.5922 6.77134 10.7496 6.93143C10.8136 6.71801 10.9312 6.52458 11.0913 6.36966C11.2514 6.21473 11.4485 6.10348 11.6638 6.04655C11.8289 6.00329 12.0009 5.99321 12.1699 6.01685C12.339 6.04048 12.5016 6.09737 12.6486 6.18427C12.7955 6.27117 12.9237 6.38635 13.0259 6.52312C13.1281 6.65989 13.2021 6.81555 13.2438 6.98112C13.2438 6.98112 13.7308 8.54207 11.6936 10.5703C8.94095 9.74508 8.59314 8.17421 8.5832 8.17421Z" fill="#EE4C74"/>
<path d="M8.5832 8.17401C8.51599 7.89539 8.54039 7.60252 8.65277 7.33887C8.62317 7.50325 8.62317 7.6716 8.65277 7.83598C8.65277 7.83598 8.99063 9.43668 11.7632 10.2221C12.3988 9.62391 12.8855 8.88502 13.1842 8.06466C12.9316 9.02707 12.403 9.89451 11.6638 10.5601C8.94095 9.74488 8.59313 8.17401 8.5832 8.17401Z" fill="#C84269"/>
<path d="M11.624 6.12625C11.9431 6.06281 12.2744 6.12026 12.5535 6.28745C12.8326 6.45464 13.0397 6.71964 13.1345 7.031C12.6972 6.63052 12.1834 6.32275 11.624 6.12625Z" fill="#E57794"/>
<path d="M9.44772 6.69279C9.70117 6.64189 9.96449 6.6869 10.1866 6.81916C10.4088 6.95141 10.574 7.16149 10.6502 7.40863C10.3028 7.08985 9.89345 6.84616 9.44772 6.69279Z" fill="#E57794"/>
</svg>
