<svg width="20" height="20" viewBox="0 0 20 20" fill="none" xmlns="http://www.w3.org/2000/svg">
<g clip-path="url(#clip0_98_10860)">
<path d="M9.375 15C13.5171 15 16.875 11.6422 16.875 7.50002C16.875 3.35788 13.5171 1.52588e-05 9.375 1.52588e-05C5.23286 1.52588e-05 1.875 3.35788 1.875 7.50002C1.875 11.6422 5.23286 15 9.375 15Z" fill="#DCF5F8"/>
<path d="M9.375 12.5C12.1364 12.5 14.375 10.2614 14.375 7.5C14.375 4.73858 12.1364 2.5 9.375 2.5C6.61358 2.5 4.375 4.73858 4.375 7.5C4.375 10.2614 6.61358 12.5 9.375 12.5Z" fill="#A6E7F0"/>
<path d="M7.26173 1.45489C8.34747 2.54063 8.34747 4.30099 7.26173 5.38673C6.17599 6.47247 4.41563 6.47247 3.32989 5.38673C2.41388 4.47067 1.57099 2.37477 1.98192 1.08989C2.05806 0.851845 2.17724 0.64165 2.34692 0.471924C2.51665 0.302197 2.72685 0.183056 2.96489 0.106923C4.24978 -0.304014 6.34567 0.538877 7.26173 1.45489Z" fill="#FFF6CE"/>
<path d="M5.29637 4.8109C6.06411 4.8109 6.68648 4.18852 6.68648 3.42078C6.68648 2.65304 6.06411 2.03066 5.29637 2.03066C4.52863 2.03066 3.90625 2.65304 3.90625 3.42078C3.90625 4.18852 4.52863 4.8109 5.29637 4.8109Z" fill="#FFC344"/>
<path d="M17.4994 0.393907L17.4362 1.28582C17.4144 1.59371 17.3155 1.89116 17.1485 2.15077C16.9816 2.41039 16.752 2.62382 16.4809 2.77141C16.3474 2.84406 16.3417 3.03356 16.4704 3.11426L16.9755 3.43078C17.2789 3.62086 17.283 4.06129 16.9834 4.25707L15.6987 5.09637C15.3627 5.31594 15.2453 5.75297 15.426 6.11141C15.6142 6.48449 15.3822 6.93238 14.9689 6.99395L13.9072 7.15207C13.7721 7.1722 13.6445 7.22711 13.5369 7.31142C13.4294 7.39574 13.3456 7.50656 13.2938 7.63301L13.1281 8.03746C12.9399 8.4968 12.3124 8.55383 12.0445 8.1359L11.8913 7.89688C11.8124 7.77381 11.7009 7.6751 11.5691 7.61177C11.4374 7.54844 11.2906 7.52298 11.1453 7.53824L11.0278 7.55059C10.4074 7.6157 9.8846 7.09289 9.94968 6.4725L9.96202 6.355C9.97728 6.20962 9.95182 6.06287 9.88849 5.93112C9.82516 5.79937 9.72645 5.68783 9.60339 5.60895L9.36436 5.45574C8.94643 5.18785 9.00347 4.56035 9.4628 4.37215L9.86725 4.20645C9.9937 4.15464 10.1045 4.07087 10.1888 3.96333C10.2731 3.8558 10.3281 3.7282 10.3482 3.59305L10.5063 2.53137C10.5679 2.11809 11.0158 1.8861 11.3889 2.07426C11.7473 2.25504 12.1843 2.13762 12.4039 1.80152L13.2432 0.516876C13.439 0.217228 13.8794 0.221368 14.0695 0.524728L14.386 1.02984C14.4667 1.1586 14.6562 1.15281 14.7289 1.01934C14.8764 0.748249 15.0899 0.51866 15.3495 0.35172C15.6091 0.184779 15.9066 0.0858565 16.2144 0.0640638L17.1064 0.000899716C17.3296 -0.0148815 17.5152 0.170665 17.4994 0.393907Z" fill="#80D261"/>
<path d="M15.1891 2.31117C15.1619 2.28397 15.1296 2.26238 15.0941 2.24766C15.0585 2.23294 15.0204 2.22536 14.9819 2.22536C14.9435 2.22536 14.9054 2.23294 14.8698 2.24766C14.8343 2.26238 14.802 2.28397 14.7748 2.31117L13.4183 3.66766V2.87004C13.4183 2.70824 13.2872 2.57707 13.1253 2.57707C12.9635 2.57707 12.8324 2.70824 12.8324 2.87004V4.2536L9.78111 7.30485C9.74014 7.34582 9.71224 7.39802 9.70094 7.45485C9.68964 7.51167 9.69544 7.57058 9.71761 7.62411C9.73978 7.67764 9.77733 7.72339 9.82551 7.75558C9.87368 7.78777 9.93032 7.80496 9.98826 7.80496C10.0267 7.80502 10.0648 7.79746 10.1004 7.78273C10.1359 7.768 10.1682 7.74639 10.1954 7.71914L15.1891 2.72547C15.2441 2.67053 15.2749 2.59602 15.2749 2.51832C15.2749 2.44063 15.2441 2.36611 15.1891 2.31117Z" fill="#ADE194"/>
<path d="M9.61891 10.8696C9.71187 10.9626 9.70582 11.1157 9.60516 11.2004C8.50887 12.1221 6.87039 12.0671 5.83875 11.0355C4.80711 10.0039 4.75215 8.36539 5.67391 7.2691C5.75852 7.16848 5.91168 7.16238 6.00465 7.25535L6.82523 8.07594L7.35312 9.52109L8.79828 10.049L9.61891 10.8696Z" fill="#E94444"/>
<path d="M14.2749 9.27582L15.1405 9.15883C15.1971 9.16692 15.1289 9.39872 15.1851 9.40852C15.9579 9.54338 16.6933 9.84053 17.3429 10.2804C17.6864 10.5129 18.1466 10.2477 18.1231 9.8336C18.0946 9.32911 17.9441 8.8302 17.6716 8.38489C17.5455 8.17879 17.2144 7.80536 17.2144 7.80536L16.3407 6.93164L15.7437 6.66184L15.7712 6.36211L15.0401 5.63098L14.5789 5.45926L14.4955 5.18477C14.3745 5.10653 14.2482 5.03684 14.1174 4.97622C13.8211 4.83879 12.8774 4.68438 12.7212 4.68852C12.0428 4.70661 11.3691 4.94485 10.8166 5.40317C10.742 5.465 10.7105 5.71157 10.7105 5.71157C10.6406 5.78141 10.4641 5.74293 10.4023 5.8175C9.94393 6.37004 9.70573 7.04368 9.6876 7.72207C9.68284 7.90075 9.84748 8.84278 9.9753 9.11836C10.0358 9.24873 10.1052 9.37472 10.1832 9.49543L10.6305 10.0414L11.3601 10.7711L11.605 10.8545L11.9298 11.3408L12.8024 12.2134C12.8024 12.2134 13.1769 12.5457 13.3825 12.6717C13.8282 12.9447 14.3276 13.0955 14.8326 13.1241C15.2467 13.1475 15.5119 12.6873 15.2793 12.3438C14.8394 11.6942 14.5423 10.9587 14.4074 10.1859C14.3976 10.1297 14.2388 10.0136 14.2307 9.95704L14.2749 9.27582Z" fill="#FE9738"/>
<path d="M8.79965 10.049C8.2548 10.5939 7.37145 10.5939 6.8266 10.049C6.28176 9.50418 6.28176 8.62082 6.8266 8.07597L8.79965 10.049Z" fill="#F79595"/>
<path d="M4.97863 20H15.0214C15.3548 20 15.625 19.7298 15.625 19.3964V15.1542C15.625 14.8208 15.3548 14.5505 15.0214 14.5505H10.9672C10.9408 14.5505 10.9146 14.5453 10.8902 14.5352C10.8658 14.5251 10.8436 14.5103 10.825 14.4916L10.1423 13.8089C10.1236 13.7903 10.1014 13.7754 10.077 13.7653C10.0526 13.7552 10.0264 13.75 10 13.75C9.97358 13.75 9.94742 13.7552 9.92301 13.7653C9.89859 13.7754 9.87642 13.7903 9.85774 13.8089L9.17508 14.4916C9.1564 14.5103 9.13422 14.5251 9.10981 14.5352C9.0854 14.5453 9.05924 14.5505 9.03281 14.5505H4.97863C4.64527 14.5505 4.375 14.8208 4.375 15.1542V19.3964C4.375 19.7298 4.64523 20 4.97863 20Z" fill="#02C7DD"/>
<path d="M15.0214 14.5505H14.7799V17.9655C14.7799 18.6446 14.2294 19.1952 13.5502 19.1952H4.375V19.3964C4.375 19.7297 4.64523 20 4.97863 20H15.0214C15.3548 20 15.625 19.7298 15.625 19.3964V15.1542C15.625 14.8208 15.3547 14.5505 15.0214 14.5505Z" fill="#07B2CD"/>
<path d="M17.6725 8.38496C17.5436 8.17458 17.3903 7.98019 17.2157 7.80586L17.2153 7.80547C16.8729 7.83263 16.5358 7.90691 16.2137 8.02621C15.5181 8.28371 14.9226 8.73602 14.5176 9.31043L15.0168 9.38176C15.0734 9.38984 15.1298 9.39883 15.186 9.40863C15.509 9.04375 15.9337 8.75465 16.4171 8.57574C16.8246 8.42481 17.2559 8.36051 17.6725 8.38496ZM14.3816 10.0168L14.3103 9.51766C13.7356 9.92262 13.2838 10.5174 13.0261 11.2137C12.9045 11.5421 12.8301 11.8782 12.8033 12.2135L12.8057 12.2159C12.9797 12.3901 13.1736 12.5431 13.3835 12.6718C13.3581 12.2562 13.4226 11.8303 13.5756 11.4172C13.7547 10.9332 14.0436 10.5089 14.4085 10.186C14.3986 10.1298 14.3897 10.0734 14.3816 10.0168ZM11.7469 9.81039C11.5453 10.1092 11.4158 10.4386 11.3611 10.7711L11.9308 11.3409C11.876 10.945 11.9801 10.5123 12.2326 10.1382C12.5849 9.61621 13.1651 9.31559 13.7109 9.37203C13.7492 9.37605 13.7879 9.37248 13.8248 9.36153C13.8617 9.35057 13.8961 9.33244 13.9259 9.30817C13.9558 9.2839 13.9806 9.25398 13.9989 9.22012C14.0172 9.18625 14.0286 9.14911 14.0325 9.11082C14.0365 9.07244 14.0329 9.03365 14.0219 8.99668C14.0481 9.00176 14.075 9.00319 14.1016 9.00094C14.1791 8.99455 14.2508 8.95766 14.301 8.89839C14.3513 8.83912 14.3759 8.76232 14.3695 8.68488C14.3252 8.14766 14.6269 7.57762 15.1381 7.2327C15.5103 6.98156 15.9448 6.87719 16.3417 6.93172L15.7722 6.36223C15.4384 6.4168 15.1081 6.54617 14.8104 6.74703C14.2256 7.1416 13.8549 7.7434 13.7895 8.37524L13.7225 8.3082C13.7149 8.26991 13.6998 8.23352 13.678 8.20118C13.6561 8.16885 13.628 8.14121 13.5953 8.11992C13.5628 8.09871 13.5297 8.07848 13.496 8.05926C13.2019 7.35867 13.5228 6.46848 14.2861 5.95344C14.5209 5.79496 14.7788 5.68617 15.041 5.63109L15.0108 5.60086C14.8545 5.44443 14.6821 5.305 14.4965 5.18488C14.3072 5.25911 14.1268 5.35397 13.9583 5.46773C13.2568 5.94109 12.8482 6.66949 12.8064 7.39215L12.5137 7.09941L12.5134 7.0991C12.32 6.90566 12.2255 6.63277 12.2475 6.33078C12.2706 6.0127 12.4181 5.70273 12.6629 5.45797C12.8942 5.22668 13.1876 5.08066 13.489 5.04688L14.1184 4.97629C13.6814 4.77398 13.2035 4.67553 12.7221 4.68863C12.5481 4.78376 12.3887 4.90332 12.2486 5.04367C11.9135 5.37879 11.7076 5.80656 11.6662 6.25191L10.8176 5.40332C10.667 5.52829 10.5283 5.66699 10.4033 5.81762L11.2532 6.66758C10.8241 6.70719 10.3896 6.90273 10.0437 7.24867C9.9033 7.38875 9.78374 7.54821 9.68861 7.72219C9.67592 8.19871 9.77178 8.67754 9.97627 9.11848L10.0469 8.48902C10.0806 8.18766 10.2267 7.89426 10.4579 7.66297C10.9508 7.17012 11.6854 7.10246 12.0971 7.51149L12.3931 7.80746C12.234 7.81726 12.0763 7.84382 11.9228 7.88672C11.3421 8.04773 10.8253 8.42832 10.4677 8.9584C10.3539 9.12656 10.2588 9.30669 10.1842 9.49555C10.3044 9.68156 10.4441 9.85428 10.6008 10.0108L10.6315 10.0415C10.6871 9.77738 10.7967 9.51832 10.9533 9.28613C11.4647 8.52832 12.3641 8.20785 13.0596 8.4968C13.0683 8.51207 13.0773 8.52727 13.0865 8.54234C13.125 8.60595 13.1863 8.65245 13.258 8.67234L13.3762 8.79059C12.7475 8.85836 12.1369 9.23242 11.7469 9.81039Z" fill="#FDB97E"/>
<path d="M6.875 18.2216H5.91797V16.0146C5.91797 15.9369 5.8871 15.8624 5.83216 15.8074C5.77722 15.7525 5.7027 15.7216 5.625 15.7216C5.5473 15.7216 5.47278 15.7525 5.41784 15.8074C5.3629 15.8624 5.33203 15.9369 5.33203 16.0146V18.5146C5.33203 18.5923 5.3629 18.6668 5.41784 18.7217C5.47278 18.7767 5.5473 18.8075 5.625 18.8075H6.875C6.9527 18.8075 7.02722 18.7767 7.08216 18.7217C7.1371 18.6668 7.16797 18.5923 7.16797 18.5146C7.16797 18.4369 7.1371 18.3624 7.08216 18.3074C7.02722 18.2525 6.9527 18.2216 6.875 18.2216ZM14.375 15.7216H13.125C13.0473 15.7216 12.9728 15.7525 12.9178 15.8074C12.8629 15.8624 12.832 15.9369 12.832 16.0146V18.5146C12.832 18.6764 12.9632 18.8075 13.125 18.8075C13.2868 18.8075 13.418 18.6764 13.418 18.5146V17.5575H13.75C13.9118 17.5575 14.043 17.4264 14.043 17.2646C14.043 17.1028 13.9118 16.9716 13.75 16.9716H13.418V16.3075H14.375C14.5368 16.3075 14.668 16.1764 14.668 16.0146C14.668 15.8528 14.5368 15.7216 14.375 15.7216ZM11.25 16.3075C11.4331 16.3075 11.582 16.4565 11.582 16.6396C11.582 16.8014 11.7132 16.9325 11.875 16.9325C12.0368 16.9325 12.168 16.8014 12.168 16.6396C12.168 16.1334 11.7562 15.7216 11.25 15.7216C10.7438 15.7216 10.332 16.1334 10.332 16.6396V17.8896C10.332 18.3957 10.7438 18.8075 11.25 18.8075C11.7562 18.8075 12.168 18.3957 12.168 17.8896C12.168 17.7278 12.0368 17.5966 11.875 17.5966C11.7132 17.5966 11.582 17.7278 11.582 17.8896C11.582 18.0727 11.4331 18.2216 11.25 18.2216C11.0669 18.2216 10.918 18.0727 10.918 17.8896V16.6396C10.918 16.4565 11.0669 16.3075 11.25 16.3075ZM9.375 15.7216C9.2973 15.7216 9.22278 15.7525 9.16784 15.8074C9.1129 15.8624 9.08203 15.9369 9.08203 16.0146V16.9716H8.41797V16.0146C8.41797 15.9369 8.3871 15.8624 8.33216 15.8074C8.27722 15.7525 8.2027 15.7216 8.125 15.7216C8.0473 15.7216 7.97278 15.7525 7.91784 15.8074C7.8629 15.8624 7.83203 15.9369 7.83203 16.0146V18.5146C7.83203 18.5923 7.8629 18.6668 7.91784 18.7217C7.97278 18.7767 8.0473 18.8075 8.125 18.8075C8.2027 18.8075 8.27722 18.7767 8.33216 18.7217C8.3871 18.6668 8.41797 18.5923 8.41797 18.5146V17.5575H9.08203V18.5146C9.08203 18.5923 9.1129 18.6668 9.16784 18.7217C9.22278 18.7767 9.2973 18.8075 9.375 18.8075C9.4527 18.8075 9.52722 18.7767 9.58216 18.7217C9.6371 18.6668 9.66797 18.5923 9.66797 18.5146V16.0146C9.66797 15.9369 9.6371 15.8624 9.58216 15.8074C9.52722 15.7525 9.4527 15.7216 9.375 15.7216Z" fill="#EAF9FA"/>
<path d="M14.6404 9.64384C14.8951 9.38906 14.7783 8.85911 14.3794 8.46018C13.9804 8.06125 13.4505 7.9444 13.1957 8.19919C12.9409 8.45398 13.0578 8.98392 13.4567 9.38285C13.8556 9.78178 14.3856 9.89863 14.6404 9.64384Z" fill="#FFF9DF"/>
</g>
<defs>
<clipPath id="clip0_98_10860">
<rect width="20" height="20" fill="white"/>
</clipPath>
</defs>
</svg>
