<svg width="175" height="39" viewBox="0 0 175 39" fill="none" xmlns="http://www.w3.org/2000/svg">
<path d="M94.8174 7.261H100.225L105.936 21.195H106.179L111.891 7.261H117.298V28H113.045V14.5014H112.873L107.506 27.8987H104.61L99.2427 14.4508H99.0705V28H94.8174V7.261ZM120.911 28V7.261H134.885V10.8761H125.296V15.8179H134.166V19.433H125.296V24.3849H134.926V28H120.911ZM141.946 28H137.247L144.407 7.261H150.057L157.207 28H152.508L147.313 12.0002H147.151L141.946 28ZM141.652 19.8482H152.751V23.2709H141.652V19.8482ZM159.703 28V7.261H164.088V24.3849H172.979V28H159.703Z" fill="#2D3134"/>
<path d="M2.74069 7.261H8.14822L13.8595 21.195H14.1026L19.8139 7.261H25.2214V28H20.9683V14.5014H20.7962L15.4292 27.8987H12.533L7.16595 14.4508H6.9938V28H2.74069V7.261Z" fill="#2D3134"/>
<path d="M74.409 28H67.0571V7.261H74.4697C76.5558 7.261 78.3515 7.67618 79.857 8.50655C81.3625 9.33017 82.5203 10.515 83.3304 12.0609C84.1472 13.6069 84.5557 15.4567 84.5557 17.6102C84.5557 19.7706 84.1472 21.6271 83.3304 23.1798C82.5203 24.7325 81.3557 25.9241 79.8367 26.7544C78.3245 27.5848 76.5153 28 74.409 28ZM71.4419 24.2431H74.2267C75.5229 24.2431 76.6132 24.0135 77.4975 23.5545C78.3887 23.0887 79.057 22.3697 79.5026 21.3975C79.9549 20.4187 80.181 19.1562 80.181 17.6102C80.181 16.0778 79.9549 14.8255 79.5026 13.8533C79.057 12.8812 78.392 12.1656 77.5077 11.7065C76.6233 11.2474 75.533 11.0179 74.2368 11.0179H71.4419V24.2431Z" fill="#2D3134"/>
<path fill-rule="evenodd" clip-rule="evenodd" d="M36.9374 7.12915C38.1079 7.12915 39.1483 7.46188 40.1887 8.01643C38.8882 8.46007 37.9778 9.56917 37.9778 10.9001C37.9778 12.5637 39.6685 14.0056 41.6193 14.0056C42.6597 14.0056 43.5701 13.6728 44.2203 13.0074C44.6105 14.2274 44.8706 15.5583 44.8706 17.0001C44.8706 22.4347 41.2291 26.8711 36.9374 26.8711C32.5156 26.8711 29.0042 22.4347 29.0042 17.0001C28.8742 11.5655 32.5156 7.12915 36.9374 7.12915Z" fill="#FF5C00"/>
<path fill-rule="evenodd" clip-rule="evenodd" d="M55.0009 7.12939C56.1714 7.12939 57.2118 7.46212 58.2522 8.01667C56.9517 8.46031 56.0413 9.56941 56.0413 10.9003C56.0413 12.564 57.732 14.0058 59.6828 14.0058C60.7232 14.0058 61.6336 13.6731 62.2838 13.0076C62.674 14.2276 62.9341 15.5585 62.9341 17.0004C62.9341 22.4349 59.2926 26.8713 55.0009 26.8713C50.5791 26.8713 47.0677 22.4349 47.0677 17.0004C46.9377 11.5658 50.5791 7.12939 55.0009 7.12939Z" fill="#FF5C00"/>
<path fill-rule="evenodd" clip-rule="evenodd" d="M54.4491 33.0046C52.9103 33.6818 51.1956 33.9978 50.4042 35.2617C56.7793 42.9358 60.6484 34.2235 54.4491 33.0046Z" fill="#FF5C00"/>
<path fill-rule="evenodd" clip-rule="evenodd" d="M55.7314 35.4304C55.8074 35.4656 55.8074 35.5714 55.7314 35.642C55.6935 35.7125 55.5795 35.7125 55.5036 35.642C55.1618 35.3598 54.7821 35.0777 54.4023 34.8309C54.0226 34.584 53.6049 34.3724 53.1872 34.1608C53.1112 34.1256 53.0732 34.055 53.1112 33.9845C53.1492 33.914 53.2251 33.8787 53.3011 33.914C53.7188 34.1256 54.1365 34.3372 54.5542 34.584C54.972 34.8661 55.3517 35.1483 55.7314 35.4304Z" fill="white"/>
<path fill-rule="evenodd" clip-rule="evenodd" d="M33.3544 28.5168C39.9987 36.7668 50.3494 37.0562 57.265 29.4335C57.5814 29.0958 57.6718 29.2405 57.491 29.5782C54.779 34.4992 50.3946 37.4905 45.6939 37.4905C40.6315 37.4905 35.9759 34.1133 33.3544 28.5168Z" fill="#2D3134"/>
</svg>
