<svg width="39" height="44" viewBox="0 0 39 44" fill="none" xmlns="http://www.w3.org/2000/svg">
<path d="M19.3917 31.2837C12.6351 31.5265 5.93754 29.9484 3.05176e-05 26.7148C3.05176e-05 26.7148 2.66232 43.2117 19.3568 43.7233C36.0978 43.1769 38.7601 26.7148 38.7601 26.7148C32.8299 29.9455 26.1406 31.5234 19.3917 31.2837Z" fill="#381415"/>
<path d="M19.3918 39.6889C14.8461 38.6659 12.4163 40.7818 11.5211 42.0141C13.9992 43.0939 16.6658 43.6747 19.3685 43.7231C22.0747 43.6732 24.7449 43.0925 27.2275 42.0141C26.309 40.7818 23.9374 38.6659 19.3918 39.6889Z" fill="#E56662"/>
<path d="M13.2301 42.6417C15.215 43.2849 17.2826 43.6374 19.3685 43.688C21.5344 43.6203 23.6779 43.2284 25.7277 42.5254C20.3915 38.8517 14.4973 41.8976 13.2301 42.6417Z" fill="#D45555"/>
<g filter="url(#filter0_d_260_16038)">
<path d="M17.8804 17.3323C17.8804 21.7966 15.2646 25.4703 12.0675 25.4703C8.87045 25.4703 6.25467 21.8431 6.25467 17.3323C6.25467 12.8216 8.87045 9.19434 12.0675 9.19434C15.2646 9.19434 17.8804 12.8564 17.8804 17.3323Z" fill="white"/>
</g>
<path d="M6.19661 17.3328C6.19661 17.3328 6.19661 16.9841 6.12686 16.3795C6.11361 15.5219 6.2113 14.6661 6.4175 13.8335C6.55953 13.2707 6.76223 12.725 7.02204 12.2059C7.31424 11.6057 7.68999 11.0499 8.13811 10.5551C8.62253 9.97919 9.22279 9.5118 9.89982 9.1833C10.5768 8.8548 11.3155 8.67256 12.0676 8.64844C12.8442 8.66374 13.6073 8.85451 14.2997 9.20647C14.9516 9.54071 15.5321 9.99878 16.0087 10.5551C16.4445 11.0521 16.8085 11.6078 17.0899 12.2059C17.3497 12.725 17.5524 13.2707 17.6944 13.8335C17.9006 14.6661 17.9983 15.5219 17.9851 16.3795C17.9851 16.9841 17.9153 17.3328 17.9153 17.3328C17.9153 17.3328 17.8572 16.9841 17.7526 16.3911C17.6929 16.0377 17.6114 15.6882 17.5084 15.3448C17.3846 14.9056 17.2332 14.4746 17.055 14.0544C16.8504 13.5585 16.6055 13.0802 16.3226 12.6244C16.021 12.1304 15.662 11.6738 15.253 11.2642C14.8305 10.8368 14.3393 10.4831 13.7998 10.2179C13.2594 9.95649 12.6679 9.81757 12.0676 9.81101C10.8611 9.8649 9.72288 10.3861 8.89378 11.2642C8.48484 11.6738 8.12582 12.1304 7.82421 12.6244C7.53687 13.0777 7.2917 13.5563 7.09179 14.0544C6.91363 14.4746 6.76219 14.9056 6.63839 15.3448C6.51051 15.7401 6.45238 16.1005 6.38263 16.3911C6.25474 16.9841 6.19661 17.3328 6.19661 17.3328Z" fill="#2C405B"/>
<path d="M15.9622 20.3203C15.9622 21.9828 15.2297 23.3198 14.3229 23.3198C13.4161 23.3198 12.6837 21.9828 12.6837 20.3203C12.6837 18.6579 13.4161 17.3325 14.3229 17.3325C15.2297 17.3325 15.9622 18.6695 15.9622 20.3203Z" fill="#472822"/>
<path d="M14.3229 18.9141C14.3229 19.0337 14.2875 19.1506 14.2211 19.25C14.1546 19.3494 14.0602 19.4269 13.9497 19.4726C13.8393 19.5184 13.7177 19.5303 13.6005 19.507C13.4832 19.4837 13.3755 19.4261 13.2909 19.3416C13.2064 19.257 13.1488 19.1493 13.1255 19.032C13.1022 18.9148 13.1141 18.7932 13.1599 18.6828C13.2056 18.5723 13.2831 18.4779 13.3825 18.4114C13.482 18.345 13.5988 18.3096 13.7184 18.3096C13.8787 18.3096 14.0325 18.3733 14.1459 18.4866C14.2592 18.6 14.3229 18.7538 14.3229 18.9141Z" fill="white"/>
<path d="M7.31265 5.67173C7.35818 5.07156 7.48731 4.4807 7.6963 3.91625C7.90682 3.33018 8.1879 2.77192 8.53335 2.25379C8.73734 1.95865 8.96271 1.67889 9.20764 1.41673C9.47235 1.13533 9.76885 0.885645 10.0912 0.672688C10.4315 0.452193 10.7988 0.276352 11.184 0.149517C11.5611 0.0396823 11.9552 0.000282649 12.3466 0.0332707C12.534 0.0436245 12.7204 0.0669288 12.9046 0.103022L13.4045 0.289038C13.7016 0.393786 13.9773 0.551317 14.2183 0.754059C14.4305 0.893418 14.6222 1.06168 14.788 1.25397L15.1368 1.70738C15.3344 1.96314 15.4274 2.11426 15.4274 2.11426L14.9624 1.92825L14.4741 1.69574C14.2674 1.60464 14.0535 1.53075 13.8347 1.47485C13.6047 1.38018 13.3616 1.32137 13.1139 1.30047H12.7302H12.3466C12.0846 1.32642 11.8268 1.385 11.5793 1.47485C11.3223 1.5813 11.0769 1.71376 10.8469 1.87013C10.588 2.02105 10.3496 2.2047 10.1377 2.41654C9.90519 2.60256 9.69592 2.84669 9.48666 3.04432C9.07976 3.49773 8.69611 3.9395 8.32409 4.33478L7.31265 5.67173Z" fill="#2C405B"/>
<path d="M31.4593 5.67233L30.3665 4.31212C30.0526 3.91685 29.6689 3.47507 29.2737 3.02167C29.0528 2.82403 28.8435 2.5799 28.6226 2.39389C28.4082 2.18486 28.1702 2.00149 27.9134 1.84748C27.6794 1.69096 27.4301 1.55853 27.1694 1.45221C26.9226 1.35997 26.6645 1.30131 26.4021 1.27781H26.0185H25.6348C25.387 1.29871 25.1439 1.35754 24.914 1.45221C24.6952 1.50811 24.4813 1.582 24.2746 1.6731L23.7863 1.90561L23.3329 2.09162C23.3329 2.09162 23.4259 1.94048 23.6119 1.68472C23.7979 1.42895 23.8212 1.4057 23.9723 1.23131C24.1381 1.03902 24.3298 0.870759 24.542 0.7314C24.7788 0.528812 25.0507 0.371221 25.3442 0.266379L25.8441 0.0803632C26.0284 0.0449642 26.2148 0.0216658 26.4021 0.0106118C26.7935 -0.0210679 27.1873 0.0183258 27.5647 0.126876C28.3151 0.378729 28.9905 0.814358 29.5294 1.39407C29.7887 1.67481 30.0221 1.9783 30.227 2.30088C30.5671 2.82447 30.8441 3.3864 31.0524 3.97498C31.2727 4.51706 31.4099 5.08929 31.4593 5.67233Z" fill="#2C405B"/>
<path d="M22.647 20.3206C22.647 20.3206 30.5409 15.461 35.7724 18.9139C35.7724 18.9139 29.2039 10.0667 22.647 20.3206Z" fill="#381415"/>
<path d="M22.647 18.9138C22.6839 18.625 22.7501 18.3406 22.8447 18.0652C23.0354 17.4589 23.3051 16.8804 23.6468 16.3446C23.8373 16.0593 24.0471 15.7874 24.2746 15.5308C24.4838 15.316 24.7092 15.1178 24.9489 14.9378C25.1289 14.8125 25.3242 14.7109 25.5302 14.6356L25.7627 14.5542L25.6 14.7519C25.5069 14.8681 25.3674 15.0192 25.2279 15.2169C25.0884 15.4145 24.914 15.647 24.7513 15.9144C24.5885 16.1818 24.3909 16.4259 24.2281 16.7166L23.6933 17.5304C23.519 17.7978 23.3329 18.0303 23.1934 18.2396C22.8912 18.6465 22.647 18.9138 22.647 18.9138Z" fill="#2C405B"/>
<defs>
<filter id="filter0_d_260_16038" x="4.25467" y="9.19434" width="15.6257" height="20.2759" filterUnits="userSpaceOnUse" color-interpolation-filters="sRGB">
<feFlood flood-opacity="0" result="BackgroundImageFix"/>
<feColorMatrix in="SourceAlpha" type="matrix" values="0 0 0 0 0 0 0 0 0 0 0 0 0 0 0 0 0 0 127 0" result="hardAlpha"/>
<feOffset dy="2"/>
<feGaussianBlur stdDeviation="1"/>
<feComposite in2="hardAlpha" operator="out"/>
<feColorMatrix type="matrix" values="0 0 0 0 0 0 0 0 0 0 0 0 0 0 0 0 0 0 0.1 0"/>
<feBlend mode="normal" in2="BackgroundImageFix" result="effect1_dropShadow_260_16038"/>
<feBlend mode="normal" in="SourceGraphic" in2="effect1_dropShadow_260_16038" result="shape"/>
</filter>
</defs>
</svg>
