<svg width="20" height="20" viewBox="0 0 20 20" fill="none" xmlns="http://www.w3.org/2000/svg">
<g clip-path="url(#clip0_98_10859)">
<path d="M17.163 13.5779L16.6577 16.0099L3.47287 16.052L2.57166 13.5779C2.0208 11.0081 2.71482 7.54981 6.66209 7.335C6.79009 7.32785 6.9215 7.32446 7.05627 7.32446C8.33693 7.32446 9.7974 7.62766 11.2028 8.12883C14.5116 9.30801 17.5176 11.5834 17.163 13.5779Z" fill="#B35222"/>
<path d="M10.5058 14.6307C9.23969 14.4458 8.15039 14.1817 7.24867 13.8695C3.90399 12.7114 4.38668 7.85363 7.89465 7.38226C7.92098 7.37871 7.9475 7.37535 7.97414 7.37211C7.66051 7.34078 7.3536 7.32433 7.05641 7.32433C2.76106 7.32433 2.00309 10.9248 2.57156 13.5778L3.47281 16.0518L5.20551 16.0463L4.97449 15.4121L9.66352 15.9071C9.66356 15.9071 14.6329 15.2334 10.5058 14.6307Z" fill="#9B361F"/>
<path d="M19.9438 15.3471L19.1311 16.9044C19.0416 17.0757 18.9069 17.2192 18.7417 17.3194C18.5764 17.4195 18.3868 17.4725 18.1936 17.4725H1.80606C1.61275 17.4726 1.42312 17.4196 1.25783 17.3194C1.09254 17.2192 0.957925 17.0755 0.868641 16.904L0.0562584 15.3471C-0.113898 15.0211 0.122391 14.6307 0.490438 14.6307H19.5092C19.8773 14.6307 20.114 15.0211 19.9438 15.3471Z" fill="#EBA31E"/>
<path d="M19.9446 15.3471L19.1318 16.9044C19.0424 17.0757 18.9077 17.2192 18.7424 17.3194C18.5772 17.4195 18.3876 17.4725 18.1944 17.4725H4.9232C4.72991 17.4725 4.54033 17.4195 4.37506 17.3193C4.20979 17.219 4.07515 17.0754 3.98578 16.904L3.1734 15.3471C3.00324 15.0212 3.23992 14.6308 3.60758 14.6308H19.51C19.878 14.6307 20.1147 15.0211 19.9446 15.3471Z" fill="#FDDC65"/>
<path d="M9.35594 8.33695L12.337 5.35586C12.3552 5.37699 12.3743 5.39785 12.3942 5.41781C12.8135 5.83711 13.4933 5.83738 13.9129 5.41781C14.3322 4.99851 14.3322 4.3184 13.9129 3.89914C13.7074 3.69367 13.4391 3.58914 13.1696 3.58527C13.1658 3.31578 13.0612 3.0475 12.8558 2.84203C12.4365 2.42273 11.7564 2.42273 11.3371 2.84203C10.9175 3.2616 10.9178 3.94144 11.3371 4.3607C11.3574 4.38098 11.3779 4.39969 11.3991 4.41789L8.41797 7.39898" fill="#FED799"/>
<path d="M11.944 4.96277L8.96293 7.94387L8.41797 7.39891L11.3991 4.41781C11.3777 4.39954 11.357 4.38047 11.3371 4.36063C10.9178 3.94133 10.9175 3.26152 11.3371 2.84195C11.7564 2.42266 12.4365 2.42266 12.8558 2.84195C12.921 2.90719 12.9758 2.97867 13.0207 3.05457C12.7813 2.98371 12.3692 3.16656 12.0154 3.52031C11.5959 3.93988 11.4172 4.44078 11.6155 4.6391C11.6251 4.64859 11.9333 4.95504 11.944 4.96277Z" fill="#E5B776"/>
<path d="M11.2021 8.12887C10.861 8.54074 10.6285 9.03176 10.5089 9.55652C10.3754 10.1406 10.0596 10.7252 9.57019 11.2141C8.39859 12.3861 7.12551 12.1195 6.17586 11.1695C5.22578 10.2198 4.95922 8.94672 6.13121 7.77512C6.29373 7.6121 6.47125 7.46476 6.66141 7.33504C6.78941 7.32789 6.92082 7.32449 7.05559 7.32449C8.33629 7.32449 9.79676 7.62766 11.2021 8.12887Z" fill="#9B361F"/>
<path d="M11.4029 7.31809L11.478 7.24297C11.7534 6.96758 11.762 6.50836 11.4814 6.23817C11.2094 5.97614 10.7765 5.97926 10.5082 6.24746C10.7764 5.97926 10.7796 5.54633 10.5175 5.2743C10.2473 4.99379 9.78807 5.00231 9.51271 5.2777L9.4376 5.35281C8.98619 5.80422 8.41131 6.10508 7.78893 6.24703C7.20475 6.38028 6.62018 6.69629 6.131 7.18539C4.95928 8.35711 5.22588 9.63031 6.17561 10.58C7.12533 11.5297 8.3985 11.7964 9.57021 10.6246C10.0594 10.1355 10.3753 9.5509 10.5086 8.96668C10.6506 8.34434 10.9515 7.76946 11.4029 7.31809Z" fill="#B35222"/>
<path d="M10.6699 5.51809C10.5195 5.5282 10.2925 5.6575 10.0925 5.8575L10.0171 5.93246C9.56608 6.38391 9.07167 6.76547 8.59116 7.0493C8.14015 7.31547 7.63476 7.71047 7.14542 8.19984C5.97382 9.37145 5.78601 10.1905 6.17554 10.5801C5.22589 9.63043 4.95933 8.35691 6.13089 7.18531C6.62023 6.69637 7.2048 6.38012 7.7889 6.24703C8.41132 6.10512 8.98616 5.80398 9.43765 5.35254L9.51261 5.27758C9.78804 5.00215 10.2475 4.99375 10.5174 5.27422C10.5848 5.34388 10.6368 5.42698 10.6699 5.51809ZM15.1176 12.2844C13.5889 11.4011 13.867 9.78313 15.0729 8.93449C15.7789 8.43773 15.8879 8.04805 15.7494 7.70285C15.6611 7.48262 15.9001 7.27418 16.1048 7.39438C16.6624 7.72199 17.2448 8.28266 17.0829 9.15781C16.7883 10.7506 16.2183 12.9204 15.1176 12.2844Z" fill="#9B361F"/>
<path d="M3.68273 4.99719C3.59896 4.99719 3.51862 4.96391 3.45939 4.90467C3.40015 4.84544 3.36687 4.7651 3.36687 4.68133V3.98644C3.36687 3.90267 3.40015 3.82233 3.45939 3.7631C3.51862 3.70386 3.59896 3.67059 3.68273 3.67059C3.76651 3.67059 3.84685 3.70386 3.90608 3.7631C3.96532 3.82233 3.99859 3.90267 3.99859 3.98644V4.68133C3.99859 4.7651 3.96532 4.84544 3.90608 4.90467C3.84685 4.96391 3.76651 4.99719 3.68273 4.99719ZM3.68273 7.20801C3.59896 7.20801 3.51862 7.17473 3.45939 7.11549C3.40015 7.05626 3.36687 6.97592 3.36687 6.89215V6.1973C3.36687 6.11353 3.40015 6.03319 3.45939 5.97396C3.51862 5.91472 3.59896 5.88145 3.68273 5.88145C3.76651 5.88145 3.84685 5.91472 3.90608 5.97396C3.96532 6.03319 3.99859 6.11353 3.99859 6.1973V6.89215C3.99859 6.97592 3.96532 7.05626 3.90608 7.11549C3.84685 7.17473 3.76651 7.20801 3.68273 7.20801ZM5.13555 5.75519H4.44074C4.35697 5.75519 4.27663 5.72192 4.2174 5.66268C4.15816 5.60345 4.12488 5.52311 4.12488 5.43934C4.12488 5.35556 4.15816 5.27522 4.2174 5.21599C4.27663 5.15675 4.35697 5.12348 4.44074 5.12348H5.13559C5.21936 5.12348 5.29969 5.15676 5.35893 5.216C5.41816 5.27524 5.45143 5.35558 5.45143 5.43936C5.45142 5.52313 5.41814 5.60346 5.3589 5.6627C5.29966 5.72193 5.21932 5.7552 5.13555 5.75519ZM2.92473 5.75519H2.22992C2.14615 5.75519 2.06581 5.72192 2.00658 5.66268C1.94734 5.60345 1.91406 5.52311 1.91406 5.43934C1.91406 5.35556 1.94734 5.27522 2.00658 5.21599C2.06581 5.15675 2.14615 5.12348 2.22992 5.12348H2.92473C3.0085 5.12348 3.08884 5.15675 3.14807 5.21599C3.20731 5.27522 3.24059 5.35556 3.24059 5.43934C3.24059 5.52311 3.20731 5.60345 3.14807 5.66268C3.08884 5.72192 3.0085 5.75519 2.92473 5.75519Z" fill="#FDDC65"/>
</g>
<defs>
<clipPath id="clip0_98_10859">
<rect width="20" height="20" fill="white"/>
</clipPath>
</defs>
</svg>
