<svg width="20" height="20" viewBox="0 0 20 20" fill="none" xmlns="http://www.w3.org/2000/svg">
<g clip-path="url(#clip0_98_10861)">
<path d="M19.159 14.4913L18.2591 15.7694C17.8246 16.3865 17.2454 16.8875 16.5723 17.2285C15.8991 17.5696 15.1525 17.7403 14.398 17.7256L5.58839 17.5542C4.9188 17.5412 4.26008 17.3825 3.65802 17.0891C3.05595 16.7958 2.52499 16.3749 2.10203 15.8557L1.03632 14.5473C-0.0403962 13.2255 -0.300162 11.4175 0.360854 9.84601L1.3564 7.47922C1.65397 6.77176 2.12339 6.14976 2.7221 5.66957L5.64331 3.32656C6.44632 2.68249 7.4417 2.32555 8.47101 2.31257L11.5354 2.27394C12.684 2.25946 13.7966 2.67408 14.6557 3.43668L17.3821 5.85714C17.8964 6.3137 18.3021 6.87947 18.5695 7.51304L19.637 10.0426C19.9414 10.7638 20.0572 11.5505 19.9736 12.3288C19.8899 13.1071 19.6096 13.8513 19.159 14.4913Z" fill="#B4D2E2"/>
<path d="M19.6378 10.0426L18.5703 7.51304C18.3029 6.87946 17.8972 6.31368 17.3829 5.85714L14.6564 3.43667C13.9818 2.83773 13.1462 2.4498 12.2533 2.32089C12.3892 2.41741 12.5197 2.52122 12.6444 2.63187L15.3709 5.05234C15.8851 5.50889 16.2908 6.07466 16.5582 6.70824L17.6257 9.23781C17.9301 9.95897 18.0459 10.7457 17.9623 11.524C17.8786 12.3023 17.5983 13.0465 17.1477 13.6865L16.2478 14.9646C15.8133 15.5817 15.2341 16.0827 14.5609 16.4237C13.8878 16.7648 13.1412 16.9355 12.3867 16.9208L3.57707 16.7494C3.38654 16.7457 3.19642 16.7302 3.00781 16.7029C3.76321 17.2395 4.66272 17.5362 5.58914 17.5542L14.3988 17.7256C15.1533 17.7403 15.8998 17.5696 16.573 17.2285C17.2462 16.8875 17.8254 16.3864 18.2598 15.7694L19.1597 14.4913C19.6104 13.8513 19.8907 13.1071 19.9743 12.3288C20.058 11.5505 19.9422 10.7638 19.6378 10.0426Z" fill="#8ABBD5"/>
<path d="M11.2573 12.1596C11.2165 12.2035 11.1665 12.238 11.1109 12.2605C11.0553 12.283 10.9954 12.293 10.9355 12.2898C10.739 12.2797 10.5614 12.1054 10.5479 11.9091C10.5437 11.8506 10.5522 11.792 10.5726 11.737C10.6843 11.4372 10.6389 11.1014 10.4382 10.8522C10.3196 10.7049 10.2146 10.5834 10.1367 10.5C10.0629 10.421 10.0135 10.3762 10 10.3762C9.98652 10.3762 9.93707 10.421 9.86328 10.5C9.46543 10.9259 8.35938 12.3463 8.35938 13.1106C8.35938 14.0167 9.09391 14.7512 10 14.7512C10.9061 14.7512 11.6406 14.0167 11.6406 13.1106C11.6406 12.8509 11.5129 12.5153 11.3286 12.1687C11.3252 12.1625 11.3205 12.1572 11.3147 12.1532C11.3089 12.1492 11.3023 12.1467 11.2953 12.1458C11.2883 12.1449 11.2813 12.1457 11.2747 12.1481C11.2681 12.1505 11.2621 12.1544 11.2573 12.1596Z" fill="#FFC344"/>
<path d="M8.125 15.3763C8.81536 15.3763 9.375 14.9565 9.375 14.4388C9.375 13.921 8.81536 13.5013 8.125 13.5013C7.43464 13.5013 6.875 13.921 6.875 14.4388C6.875 14.9565 7.43464 15.3763 8.125 15.3763Z" fill="#025F80"/>
<path d="M11.875 15.3763C12.5654 15.3763 13.125 14.9565 13.125 14.4388C13.125 13.921 12.5654 13.5013 11.875 13.5013C11.1846 13.5013 10.625 13.921 10.625 14.4388C10.625 14.9565 11.1846 15.3763 11.875 15.3763Z" fill="#017297"/>
<path d="M9.375 16.0013C10.0654 16.0013 10.625 15.5815 10.625 15.0638C10.625 14.546 10.0654 14.1263 9.375 14.1263C8.68464 14.1263 8.125 14.546 8.125 15.0638C8.125 15.5815 8.68464 16.0013 9.375 16.0013Z" fill="#017297"/>
<path d="M10.9375 16.0013C11.4553 16.0013 11.875 15.5815 11.875 15.0638C11.875 14.546 11.4553 14.1263 10.9375 14.1263C10.4197 14.1263 10 14.546 10 15.0638C10 15.5815 10.4197 16.0013 10.9375 16.0013Z" fill="#025F80"/>
<path d="M17.2359 15.3427C17.1822 15.3427 17.1296 15.3279 17.0838 15.3C17.038 15.2721 17.0007 15.2322 16.976 15.1846C16.9513 15.137 16.9402 15.0835 16.9438 15.03C16.9474 14.9764 16.9657 14.925 16.9966 14.8811L17.8964 13.603C18.5101 12.7314 18.6291 11.6247 18.2146 10.6425C18.1844 10.571 18.1839 10.4903 18.2131 10.4183C18.2424 10.3463 18.299 10.2889 18.3706 10.2587C18.4422 10.2285 18.5229 10.228 18.5949 10.2572C18.6668 10.2865 18.7242 10.3431 18.7545 10.4147C19.248 11.5844 19.1064 12.9023 18.3756 13.9403L17.4757 15.2184C17.4486 15.2569 17.4127 15.2883 17.371 15.3099C17.3292 15.3315 17.2829 15.3428 17.2359 15.3427ZM6.42477 4.59461C6.36408 4.59465 6.30487 4.57584 6.25533 4.54077C6.20579 4.50571 6.16836 4.45612 6.14821 4.39887C6.12807 4.34161 6.12621 4.27951 6.14288 4.22116C6.15956 4.1628 6.19394 4.11106 6.24129 4.07308C6.87461 3.56512 7.67047 3.27972 8.48223 3.26949L11.5466 3.23086H11.5504C11.6276 3.23113 11.7015 3.26187 11.7562 3.31639C11.8109 3.37091 11.8418 3.4448 11.8423 3.52201C11.8428 3.59921 11.8127 3.67349 11.7588 3.72868C11.7048 3.78387 11.6312 3.81553 11.554 3.81676L8.48965 3.85539C7.80801 3.86398 7.13969 4.10359 6.6079 4.53015C6.55601 4.57193 6.49138 4.59468 6.42477 4.59461ZM5.61196 16.5974L5.60618 16.5973C4.52997 16.5764 3.52293 16.0858 2.84317 15.2513C2.79409 15.191 2.77096 15.1138 2.77886 15.0365C2.78676 14.9592 2.82505 14.8882 2.8853 14.8391C2.94555 14.79 3.02282 14.7669 3.10013 14.7748C3.17743 14.7827 3.24843 14.821 3.29751 14.8812C3.57872 15.227 3.93201 15.5073 4.33273 15.7026C4.73344 15.8978 5.17192 16.0032 5.61758 16.0115C5.69528 16.013 5.76919 16.0453 5.82306 16.1013C5.87694 16.1573 5.90636 16.2325 5.90485 16.3102C5.90332 16.3868 5.87179 16.4599 5.81703 16.5136C5.76227 16.5673 5.68865 16.5973 5.61196 16.5974Z" fill="#6CABCA"/>
<path d="M8.125 7.54425H4.375C4.21316 7.54425 4.08203 7.41308 4.08203 7.25128C4.08203 7.08948 4.21316 6.95831 4.375 6.95831H8.125C8.28684 6.95831 8.41797 7.08948 8.41797 7.25128C8.41797 7.41308 8.28684 7.54425 8.125 7.54425ZM15.625 7.54425H10.9375C10.7757 7.54425 10.6445 7.41308 10.6445 7.25128C10.6445 7.08948 10.7757 6.95831 10.9375 6.95831H15.625C15.7868 6.95831 15.918 7.08948 15.918 7.25128C15.918 7.41308 15.7868 7.54425 15.625 7.54425Z" fill="#025F80"/>
<path d="M11.9736 6.62628H11.2695C11.056 6.62627 10.8513 6.54148 10.7004 6.39054L10.5468 6.23699C10.3959 6.08605 10.1912 6.00125 9.97773 6.00124H8.32464C7.84507 6.00124 7.43218 6.33972 7.33816 6.80999L7.11558 7.92292C6.99109 8.54546 7.46722 9.12624 8.10206 9.12624H9.16964C9.3831 9.12623 9.58781 9.04144 9.73874 8.8905L9.8923 8.73695C10.0432 8.58601 10.2479 8.50121 10.4614 8.5012H11.751C11.8777 8.5012 12.0012 8.46134 12.104 8.38726C12.2067 8.31319 12.2836 8.20865 12.3237 8.08847L12.5462 7.4207C12.6766 7.02992 12.3856 6.62628 11.9736 6.62628Z" fill="#FE860A"/>
<path d="M10.8051 7.82398L9.89209 8.73702C9.96682 8.66229 10.0555 8.603 10.1532 8.56255C10.2508 8.5221 10.3555 8.50128 10.4612 8.50128H10.9565L11.2195 8.23827C11.274 8.18325 11.3045 8.10886 11.3044 8.03138C11.3042 7.9539 11.2733 7.87965 11.2185 7.82486C11.1638 7.77008 11.0895 7.73923 11.012 7.73906C10.9345 7.7389 10.8602 7.76943 10.8051 7.82398ZM9.97752 6.00128H9.35135L8.48748 7.56788C8.46831 7.60161 8.45603 7.6388 8.45136 7.67731C8.44668 7.71581 8.44969 7.75487 8.46023 7.7922C8.47076 7.82953 8.4886 7.8644 8.51272 7.89478C8.53684 7.92516 8.56674 7.95045 8.60071 7.96918C8.63468 7.98791 8.67203 7.99971 8.71059 8.0039C8.74915 8.00808 8.78816 8.00457 8.82536 7.99355C8.86255 7.98254 8.89719 7.96425 8.92726 7.93975C8.95733 7.91525 8.98223 7.88502 9.00053 7.85081L10.0198 6.00238C10.0058 6.00167 9.99166 6.00128 9.97752 6.00128Z" fill="#FE7701"/>
<path d="M5.62458 14.4193C5.54688 14.4193 5.47236 14.3884 5.41742 14.3334C5.36247 14.2785 5.33161 14.204 5.33161 14.1263V7.32981L4.92891 6.63234C4.89067 6.56509 4.88059 6.48544 4.90086 6.41078C4.92113 6.33612 4.97011 6.27251 5.03711 6.23383C5.10411 6.19514 5.18368 6.18453 5.25848 6.20431C5.33327 6.22408 5.39721 6.27263 5.43633 6.33938L5.87825 7.10484C5.90396 7.14938 5.9175 7.1999 5.91751 7.25133V14.1263C5.91751 14.1648 5.90994 14.2029 5.89522 14.2384C5.8805 14.274 5.85892 14.3063 5.83172 14.3335C5.80452 14.3607 5.77222 14.3823 5.73668 14.397C5.70114 14.4117 5.66305 14.4193 5.62458 14.4193ZM14.3746 14.4193C14.2969 14.4193 14.2224 14.3884 14.1674 14.3334C14.1125 14.2785 14.0816 14.204 14.0816 14.1263V7.25129C14.0816 7.19988 14.0952 7.14934 14.1209 7.1048L14.5628 6.33934C14.6019 6.2726 14.6658 6.22404 14.7406 6.20427C14.8154 6.18449 14.895 6.1951 14.962 6.23379C15.029 6.27247 15.078 6.33608 15.0983 6.41074C15.1185 6.4854 15.1084 6.56505 15.0702 6.63231L14.6675 7.32981V14.1263C14.6675 14.204 14.6367 14.2785 14.5817 14.3334C14.5268 14.3884 14.4523 14.4193 14.3746 14.4193Z" fill="#017297"/>
</g>
<defs>
<clipPath id="clip0_98_10861">
<rect width="20" height="20" fill="white"/>
</clipPath>
</defs>
</svg>
