<svg width="41" height="50" viewBox="0 0 41 50" fill="none" xmlns="http://www.w3.org/2000/svg">
<g filter="url(#filter0_d_260_15888)">
<path d="M18.0194 19.1159C18.0194 24.7745 14.7108 29.4311 10.667 29.4311C6.62319 29.4311 3.31462 24.8335 3.31462 19.1159C3.31462 13.3984 6.62319 8.80078 10.667 8.80078C14.7108 8.80078 18.0194 13.4131 18.0194 19.1159Z" fill="white"/>
</g>
<path d="M3.24099 19.1167C3.24099 19.1167 3.241 18.6746 3.15277 17.9084C3.13601 16.8213 3.25958 15.7366 3.52039 14.6812C3.69752 13.967 3.95401 13.275 4.28504 12.6182C4.64111 11.8566 5.10683 11.1516 5.66729 10.5257C6.27865 9.79304 7.03729 9.19785 7.8937 8.77889C8.75011 8.35994 9.68503 8.12664 10.6375 8.09424C11.6169 8.11366 12.5784 8.36083 13.4461 8.81629C14.2731 9.23602 15.008 9.81721 15.6077 10.5257C16.1622 11.1532 16.6228 11.858 16.9753 12.6182C17.3063 13.275 17.5628 13.967 17.7399 14.6812C18.0071 15.7304 18.1308 16.8111 18.1075 17.8936C18.1075 18.6746 18.0193 19.1167 18.0193 19.1167C18.0193 19.1167 17.9458 18.6746 17.8134 17.9231C17.738 17.4751 17.6348 17.0321 17.5046 16.5969C17.348 16.0401 17.1565 15.4938 16.9311 14.9612C16.6724 14.3326 16.3625 13.7264 16.0047 13.1487C15.6233 12.5225 15.1692 11.9438 14.6519 11.4246C14.1174 10.8827 13.4961 10.4345 12.8138 10.0983C12.1349 9.76863 11.3919 9.59255 10.6375 9.58256C9.10628 9.64709 7.66068 10.308 6.6084 11.4246C6.09116 11.9438 5.63706 12.5225 5.25556 13.1487C4.90092 13.7231 4.59119 14.3241 4.32916 14.9464C4.10587 15.4848 3.91438 16.0359 3.75567 16.5969C3.6237 17.0316 3.52053 17.4747 3.44686 17.9231C3.31452 18.6452 3.24099 19.1167 3.24099 19.1167Z" fill="#2C405B"/>
<g filter="url(#filter1_d_260_15888)">
<path d="M36.6062 19.1159C36.6062 24.7745 33.6653 29.4311 30.0479 29.4311C26.4305 29.4311 23.4895 24.8335 23.4895 19.1159C23.4895 13.3984 26.4305 8.80078 30.0479 8.80078C33.6653 8.80078 36.6062 13.4131 36.6062 19.1159Z" fill="white"/>
</g>
<path d="M23.4895 19.1167C23.4895 19.1167 23.4895 18.6894 23.3865 17.9526C23.358 16.915 23.4418 15.8775 23.6365 14.858C23.9319 13.3792 24.5329 11.9787 25.4011 10.7467C25.92 10.0192 26.5741 9.39877 27.3274 8.91945C28.1601 8.39275 29.122 8.10715 30.1066 8.09424H30.7389L31.4889 8.27106C31.9441 8.40999 32.3791 8.60815 32.7829 8.86049C33.5332 9.34378 34.1865 9.96355 34.7092 10.6878C35.5796 11.9168 36.1764 13.3189 36.4591 14.7991C36.6613 15.8175 36.7452 16.8559 36.7091 17.8936C36.7091 18.6304 36.6061 19.0578 36.6061 19.0578C36.6061 19.0578 36.6061 18.6452 36.4297 17.9084C36.2406 16.9327 35.9801 15.9722 35.6503 15.0349C35.4234 14.4243 35.1581 13.8288 34.8563 13.2518C34.5173 12.6332 34.1236 12.0463 33.6799 11.4982C33.2146 10.9465 32.6634 10.4738 32.0477 10.0983C31.7425 9.9173 31.4166 9.77381 31.0771 9.67097L30.6213 9.56783H29.989C29.308 9.58866 28.6441 9.78672 28.0627 10.1425C27.4441 10.5141 26.8923 10.9873 26.4304 11.5424C25.9867 12.0905 25.593 12.6774 25.2541 13.296C24.9522 13.873 24.687 14.4686 24.46 15.0791C24.2688 15.6538 24.0777 16.1843 23.96 16.6853C23.8424 17.1863 23.7689 17.5989 23.6807 17.9526C23.563 18.6599 23.4895 19.1167 23.4895 19.1167Z" fill="#2C405B"/>
<path d="M15.593 22.8746C15.593 24.9818 14.6666 26.6764 13.5196 26.6764C12.3726 26.6764 11.4462 24.9818 11.4462 22.8746C11.4462 20.7673 12.3726 19.0874 13.5196 19.0874C14.6666 19.0874 15.593 20.782 15.593 22.8746Z" fill="#472822"/>
<path d="M13.5196 21.0905C13.5521 21.2045 13.5578 21.3245 13.5361 21.4411C13.5145 21.5577 13.4661 21.6677 13.3948 21.7624C13.3236 21.8571 13.2313 21.9339 13.1254 21.9868C13.0195 22.0397 12.9027 22.0672 12.7844 22.0672C12.666 22.0672 12.5493 22.0397 12.4434 21.9868C12.3375 21.9339 12.2452 21.8571 12.1739 21.7624C12.1027 21.6677 12.0543 21.5577 12.0327 21.4411C12.011 21.3245 12.0166 21.2045 12.0491 21.0905C12.0948 20.9303 12.1912 20.7895 12.3239 20.6892C12.4566 20.5889 12.6182 20.5347 12.7844 20.5347C12.9506 20.5347 13.1122 20.5889 13.2449 20.6892C13.3775 20.7895 13.474 20.9303 13.5196 21.0905Z" fill="white"/>
<path d="M25.9009 22.8746C25.9009 24.9818 26.8273 26.6764 27.9743 26.6764C29.1213 26.6764 30.1065 25.0113 30.1065 22.8746C30.1065 20.7378 29.1801 19.0874 28.0331 19.0874C26.8861 19.0874 25.9009 20.782 25.9009 22.8746Z" fill="#472822"/>
<path d="M27.9744 21.091C27.9419 21.205 27.9362 21.3251 27.9579 21.4417C27.9795 21.5583 28.0279 21.6682 28.0992 21.7629C28.1704 21.8576 28.2627 21.9344 28.3686 21.9873C28.4745 22.0402 28.5913 22.0677 28.7096 22.0677C28.828 22.0677 28.9447 22.0402 29.0506 21.9873C29.1565 21.9344 29.2488 21.8576 29.32 21.7629C29.3913 21.6682 29.4397 21.5583 29.4613 21.4417C29.483 21.3251 29.4773 21.205 29.4448 21.091C29.4773 20.977 29.483 20.8569 29.4613 20.7403C29.4397 20.6237 29.3913 20.5138 29.32 20.4191C29.2488 20.3244 29.1565 20.2476 29.0506 20.1947C28.9447 20.1418 28.828 20.1143 28.7096 20.1143C28.5913 20.1143 28.4745 20.1418 28.3686 20.1947C28.2627 20.2476 28.1704 20.3244 28.0992 20.4191C28.0279 20.5138 27.9795 20.6237 27.9579 20.7403C27.9362 20.8569 27.9419 20.977 27.9744 21.091Z" fill="white"/>
<path d="M0.79998 10.0981C0.79998 10.0981 1.66756 9.49389 2.97628 8.71289L5.21141 7.38664C6.02017 6.88562 6.90244 6.39933 7.74061 5.91304C8.16705 5.6478 8.5935 5.3973 8.99053 5.11731C9.38755 4.83733 9.81399 4.60156 10.1816 4.32158C10.8795 3.84237 11.5473 3.32071 12.1815 2.75955C12.4399 2.54341 12.6854 2.31214 12.9167 2.06696C13.1103 1.88558 13.283 1.68293 13.4314 1.46281L13.8725 0.902832C13.8725 0.902832 13.8725 1.15334 13.696 1.61015C13.6349 1.8852 13.5307 2.1488 13.3873 2.39115C13.2332 2.72359 13.046 3.03956 12.8285 3.33425C12.3035 4.07793 11.6913 4.75574 11.0051 5.35309C10.2247 6.02516 9.3939 6.63603 8.51998 7.18034C7.62299 7.71083 6.69658 8.19712 5.81429 8.65393C4.932 9.11074 4.07912 9.36125 3.32918 9.59703C2.501 9.83226 1.65518 9.99984 0.79998 10.0981Z" fill="#2C405B"/>
<path d="M40.4 10.0982C39.5419 9.96621 38.696 9.76414 37.8707 9.494C37.1208 9.25823 36.2826 8.93404 35.3856 8.5509C34.4886 8.16777 33.577 7.65201 32.68 7.07731C31.8074 6.53788 30.9811 5.92668 30.2096 5.25004C29.5151 4.65667 28.8976 3.97846 28.3715 3.23123C28.154 2.93654 27.9668 2.62056 27.8127 2.28813C27.6692 2.04577 27.565 1.78217 27.5039 1.50712C27.3715 1.05031 27.3274 0.799805 27.3274 0.799805L27.7686 1.35976C27.9169 1.57988 28.0896 1.78255 28.2832 1.96393C28.5145 2.20911 28.76 2.44038 29.0185 2.65653C29.6526 3.21768 30.3205 3.73932 31.0183 4.21853C31.3859 4.49851 31.7977 4.74902 32.2094 5.01426C32.6211 5.27951 33.0329 5.54477 33.4593 5.81002C34.2975 6.35525 35.1798 6.84153 35.9885 7.28361C36.7973 7.72569 37.562 8.21197 38.2237 8.60984C39.4736 9.49399 40.4 10.0982 40.4 10.0982Z" fill="#2C405B"/>
<path d="M8.0495 47.2329C8.0495 47.2329 8.0495 46.6877 8.0495 45.7593C8.09834 45.175 8.20675 44.5973 8.37301 44.0352C8.61971 43.3116 8.93998 42.6153 9.32881 41.9574L10.064 40.867C10.3876 40.4543 10.6523 40.1891 10.9758 39.8354C11.2993 39.4818 11.6963 39.1576 12.0786 38.8039C12.4609 38.4503 12.9021 38.1997 13.3285 37.8756C14.2525 37.2788 15.2386 36.7846 16.2695 36.402C16.8067 36.2099 17.3571 36.0572 17.9164 35.9452C18.5291 35.8039 19.1552 35.7298 19.7839 35.7241C20.9284 35.7852 22.0579 36.0135 23.1366 36.402C25.1138 37.1452 26.9054 38.312 28.3862 39.8207C28.7097 40.1891 29.0479 40.4838 29.3273 40.867C29.6067 41.2501 29.8273 41.5743 30.0625 41.9427C30.7974 43.0839 31.237 44.3905 31.3419 45.7446C31.3899 46.1114 31.3899 46.4829 31.3419 46.8498V47.2329C31.3419 47.2329 31.3418 47.1003 31.2683 46.8498C31.1864 46.5048 31.0833 46.1652 30.9595 45.833C30.7774 45.3205 30.5459 44.827 30.2684 44.3594C29.9212 43.7757 29.5173 43.2278 29.0626 42.7237C28.8035 42.429 28.5286 42.1486 28.2391 41.8837C27.9598 41.6185 27.6068 41.3533 27.298 41.088C26.585 40.5497 25.8385 40.0575 25.0629 39.6144C24.6659 39.3934 24.2247 39.2165 23.813 39.0102C23.4013 38.8039 22.9307 38.6418 22.4896 38.5092C21.5888 38.2042 20.6464 38.0401 19.6957 38.0229C18.8009 38.0695 17.9161 38.233 17.0635 38.5092C16.1693 38.7985 15.3031 39.1684 14.4755 39.6144C13.7102 40.0589 12.9735 40.551 12.2698 41.088L11.2993 41.9279L10.4905 42.7532C10.252 43.0185 10.031 43.2991 9.82879 43.5931C9.62647 43.8467 9.43986 44.1124 9.27 44.3888C9.01845 44.8676 8.79265 45.3595 8.59357 45.8624L8.0495 47.2329Z" fill="#381415"/>
<path d="M5.10847 43.8726C5.10847 43.8726 5.22612 44.3736 5.38787 45.1399C5.46139 45.5082 5.57903 45.9503 5.68196 46.3924C5.79332 46.86 5.94082 47.3182 6.12311 47.7628C6.27474 48.1819 6.49871 48.5709 6.78482 48.9122C6.91953 49.0527 7.06188 49.1855 7.21125 49.3101C7.37249 49.3914 7.53963 49.4604 7.71123 49.5164L8.18177 49.6196C8.31401 49.627 8.44656 49.627 8.5788 49.6196H8.94642L8.62291 49.7817C8.31529 49.9287 7.97852 50.0043 7.6377 50.0027C7.40374 49.9886 7.172 49.9491 6.94657 49.8848C6.69745 49.7816 6.46463 49.6426 6.25545 49.4722C6.03856 49.2903 5.85019 49.0766 5.69666 48.8386C5.54895 48.5989 5.42109 48.3476 5.31434 48.087C5.12599 47.6138 4.99756 47.1187 4.93202 46.6134C4.89629 46.1573 4.89629 45.6991 4.93202 45.243C4.93461 44.7807 4.99386 44.3204 5.10847 43.8726Z" fill="#381415"/>
<path d="M34.0622 43.8726C34.1823 44.2956 34.2562 44.7303 34.2828 45.1693C34.3185 45.6254 34.3185 46.0836 34.2828 46.5398C34.211 47.0438 34.0827 47.5381 33.9005 48.0134C33.7937 48.2739 33.6659 48.5253 33.5182 48.7649C33.3646 49.003 33.1763 49.2166 32.9594 49.3985C32.7502 49.5689 32.5174 49.7079 32.2682 49.8111C32.0428 49.8754 31.8111 49.9149 31.5771 49.929C31.2363 49.9306 30.8995 49.855 30.5919 49.708C30.4804 49.6615 30.3723 49.6074 30.2684 49.5459H31.033L31.5036 49.4427C31.6742 49.384 31.8412 49.3152 32.0035 49.2364C32.1529 49.1118 32.2953 48.979 32.43 48.8386C32.7193 48.4995 32.9436 48.1098 33.0917 47.6892C33.2626 47.2418 33.4051 46.7841 33.5182 46.3187C33.6358 45.8767 33.7534 45.4346 33.8122 45.0662C33.9593 44.3736 34.0622 43.8726 34.0622 43.8726Z" fill="#381415"/>
<defs>
<filter id="filter0_d_260_15888" x="1.31462" y="8.80078" width="18.7048" height="24.6304" filterUnits="userSpaceOnUse" color-interpolation-filters="sRGB">
<feFlood flood-opacity="0" result="BackgroundImageFix"/>
<feColorMatrix in="SourceAlpha" type="matrix" values="0 0 0 0 0 0 0 0 0 0 0 0 0 0 0 0 0 0 127 0" result="hardAlpha"/>
<feOffset dy="2"/>
<feGaussianBlur stdDeviation="1"/>
<feComposite in2="hardAlpha" operator="out"/>
<feColorMatrix type="matrix" values="0 0 0 0 0 0 0 0 0 0 0 0 0 0 0 0 0 0 0.1 0"/>
<feBlend mode="normal" in2="BackgroundImageFix" result="effect1_dropShadow_260_15888"/>
<feBlend mode="normal" in="SourceGraphic" in2="effect1_dropShadow_260_15888" result="shape"/>
</filter>
<filter id="filter1_d_260_15888" x="21.4895" y="8.80078" width="17.1167" height="24.6304" filterUnits="userSpaceOnUse" color-interpolation-filters="sRGB">
<feFlood flood-opacity="0" result="BackgroundImageFix"/>
<feColorMatrix in="SourceAlpha" type="matrix" values="0 0 0 0 0 0 0 0 0 0 0 0 0 0 0 0 0 0 127 0" result="hardAlpha"/>
<feOffset dy="2"/>
<feGaussianBlur stdDeviation="1"/>
<feComposite in2="hardAlpha" operator="out"/>
<feColorMatrix type="matrix" values="0 0 0 0 0 0 0 0 0 0 0 0 0 0 0 0 0 0 0.1 0"/>
<feBlend mode="normal" in2="BackgroundImageFix" result="effect1_dropShadow_260_15888"/>
<feBlend mode="normal" in="SourceGraphic" in2="effect1_dropShadow_260_15888" result="shape"/>
</filter>
</defs>
</svg>
