<svg width="35" height="52" viewBox="0 0 35 52" fill="none" xmlns="http://www.w3.org/2000/svg">
<path d="M2 6.03591C2.03978 5.39879 2.17777 4.77164 2.40906 4.17665C2.63136 3.55313 2.92676 2.95816 3.2891 2.40417C3.50395 2.08029 3.7488 1.77735 4.0204 1.49933C4.30642 1.20335 4.6221 0.93753 4.96244 0.706048C5.32276 0.47748 5.70993 0.294295 6.11517 0.160663C6.51748 0.0449292 6.93741 0.00292851 7.35467 0.0367047C7.55441 0.0484902 7.75313 0.0733304 7.94961 0.111072L8.48263 0.309398C8.79811 0.415569 9.08898 0.5842 9.33789 0.805211C9.56412 0.953793 9.76853 1.13317 9.94524 1.33819C10.1064 1.52412 10.2303 1.68525 10.3295 1.8216C10.4286 1.95794 10.627 2.25543 10.627 2.25543L10.1436 2.04472C9.99482 1.98274 9.80888 1.90837 9.62295 1.80921C9.40258 1.71208 9.17458 1.63331 8.94124 1.5737C8.69569 1.47403 8.43671 1.41136 8.17275 1.38776H7.7637H7.35467C7.07397 1.40677 6.79795 1.46951 6.5366 1.5737C6.25289 1.67441 5.98556 1.81641 5.74329 1.99513C5.46952 2.15933 5.2158 2.35484 4.98721 2.5777C4.74385 2.78803 4.51213 3.01146 4.29309 3.24702C3.85927 3.71803 3.46261 4.18905 3.11555 4.61048L2 6.03591Z" fill="#2C405B"/>
<path d="M32.4299 6.03633L31.2648 4.58611C30.9302 4.16468 30.5211 3.69368 30.0997 3.22266C29.8642 2.99955 29.6411 2.75164 29.3932 2.55332C29.171 2.3283 28.9211 2.13253 28.6494 1.97075C28.4057 1.79447 28.1387 1.65267 27.8562 1.54932C27.5948 1.44514 27.3188 1.38241 27.0381 1.36341H26.629H26.22C25.9559 1.38569 25.6967 1.44839 25.4515 1.54932C25.2182 1.60893 24.9902 1.6877 24.7698 1.78483C24.5839 1.88399 24.398 1.95837 24.2492 2.02034L23.7658 2.23106C23.7658 2.23106 23.8649 2.06991 24.0633 1.79722C24.2616 1.52453 24.2864 1.49974 24.4475 1.31381C24.6213 1.1059 24.8262 0.926122 25.0549 0.780836C25.3023 0.557824 25.5937 0.38894 25.9102 0.285022L26.4431 0.0867156C26.6395 0.0482337 26.8383 0.0233873 27.0381 0.0123483C27.4554 -0.0233955 27.8757 0.018622 28.2776 0.136287C28.6858 0.272328 29.0768 0.455353 29.4428 0.681673C30.0966 1.14015 30.6598 1.71592 31.1037 2.37979C31.4743 2.93087 31.7741 3.52638 31.9961 4.15229C32.2384 4.75375 32.3848 5.38948 32.4299 6.03633Z" fill="#2C405B"/>
<g filter="url(#filter0_d_260_15977)">
<path d="M15.5106 16.6589C15.5106 21.7284 12.5358 25.8312 8.87921 25.8312C5.22267 25.8312 2.26025 21.7284 2.26025 16.6589C2.26025 11.5893 5.22267 7.47412 8.87921 7.47412C12.5358 7.47412 15.5106 11.5893 15.5106 16.6589Z" fill="white"/>
</g>
<path d="M2.26022 16.6588C2.26022 16.6588 2.26022 16.5596 2.26022 16.3737C2.2425 16.1095 2.2425 15.8445 2.26022 15.5804C2.23797 14.6117 2.34638 13.6444 2.58251 12.7047C2.74406 12.0628 2.97254 11.4397 3.26422 10.8455C3.58657 10.1698 4.00397 9.54365 4.50373 8.98621C5.0504 8.3302 5.72927 7.79684 6.49602 7.42094C7.26277 7.04504 8.10019 6.83506 8.95359 6.80469C9.8168 6.83779 10.6626 7.05769 11.4326 7.44924C12.1672 7.83152 12.8231 8.34872 13.3662 8.97382C13.8595 9.5408 14.2762 10.17 14.6057 10.8455C14.897 11.4342 15.1214 12.0537 15.275 12.6923C15.5129 13.632 15.6254 14.5989 15.6097 15.568C15.6097 15.915 15.6097 16.1877 15.6097 16.3737C15.6043 16.4686 15.6043 16.5638 15.6097 16.6588C15.6097 16.6588 15.5354 16.2745 15.4238 15.5928C15.3499 15.1954 15.2548 14.8024 15.1387 14.4153C14.9988 13.9139 14.8291 13.4214 14.6305 12.9402C14.4007 12.3802 14.1228 11.841 13.8 11.3289C13.45 10.7649 13.0339 10.2448 12.5605 9.77949C12.082 9.296 11.5245 8.89777 10.912 8.60197C10.302 8.30368 9.63259 8.14691 8.95359 8.14336C7.587 8.19543 6.29576 8.78314 5.35899 9.77949C4.8899 10.2486 4.47419 10.7682 4.11948 11.3289C3.80149 11.8438 3.52386 12.3825 3.28904 12.9402C3.09071 13.4608 2.90478 13.9566 2.78083 14.4153C2.66338 14.802 2.56818 15.1951 2.49573 15.5928L2.26022 16.6588Z" fill="#2C405B"/>
<g filter="url(#filter1_d_260_15977)">
<path d="M32.1695 16.6589C32.1695 21.7284 29.5294 25.8312 26.2819 25.8312C23.0344 25.8312 20.4066 21.7284 20.4066 16.6589C20.4066 11.5893 23.0468 7.47412 26.2819 7.47412C29.517 7.47412 32.1695 11.5893 32.1695 16.6589Z" fill="white"/>
</g>
<path d="M20.4067 16.6588C20.4067 16.6588 20.4067 16.2869 20.32 15.63C20.3043 14.7024 20.3874 13.7758 20.5679 12.8659C20.825 11.5294 21.3614 10.2622 22.1421 9.14735C22.6134 8.50975 23.1973 7.96366 23.865 7.53599C24.5852 7.06838 25.4233 6.81479 26.282 6.80469H26.8894C27.115 6.84243 27.3384 6.89207 27.5587 6.95342C27.9639 7.07625 28.3514 7.25125 28.7114 7.47401C29.3795 7.90624 29.9633 8.45646 30.4343 9.09776C31.213 10.2152 31.753 11.481 32.0209 12.8163C32.1948 13.7227 32.2696 14.6454 32.244 15.568C32.244 16.2373 32.1696 16.6092 32.1696 16.6092C32.1696 16.6092 32.1696 16.2373 32.0085 15.5928C31.9341 15.2705 31.8846 14.8739 31.7606 14.44C31.6367 14.0062 31.4879 13.5228 31.3144 13.0146C31.119 12.4648 30.8829 11.9303 30.6079 11.4157C30.3135 10.8541 29.9647 10.3227 29.5667 9.82909C29.1426 9.34155 28.6449 8.92333 28.0917 8.58958C27.8179 8.43236 27.5267 8.30756 27.224 8.21772C27.0854 8.17743 26.9447 8.14433 26.8026 8.11856H26.282C25.6411 8.1611 25.017 8.34149 24.4522 8.6474C23.8875 8.9533 23.3955 9.3775 23.0097 9.89105C22.6077 10.3844 22.2549 10.9158 21.9561 11.4776C21.6891 11.9961 21.4532 12.53 21.2496 13.0766C21.0761 13.5848 20.9149 14.0682 20.8158 14.502C20.7166 14.9358 20.6423 15.3325 20.5679 15.6424C20.4687 16.2869 20.4067 16.6588 20.4067 16.6588Z" fill="#2C405B"/>
<path d="M13.3415 20.0549C13.3415 21.939 12.4986 23.4512 11.4698 23.4512C10.441 23.4512 9.61058 21.939 9.61058 20.0549C9.61058 18.1709 10.441 16.6587 11.4698 16.6587C12.4986 16.6587 13.3415 18.1833 13.3415 20.0549Z" fill="#472822"/>
<path d="M11.4699 18.518C11.4698 18.6558 11.4288 18.7905 11.352 18.9049C11.2751 19.0193 11.166 19.1082 11.0384 19.1604C10.9109 19.2125 10.7706 19.2255 10.6357 19.1977C10.5007 19.1699 10.3771 19.1025 10.2805 19.0042C10.184 18.9059 10.1188 18.7811 10.0935 18.6456C10.0681 18.5102 10.0836 18.3702 10.1381 18.2436C10.1925 18.117 10.2834 18.0095 10.3992 17.9347C10.5149 17.86 10.6503 17.8214 10.7881 17.8238C10.8787 17.8238 10.9684 17.8419 11.0519 17.8769C11.1354 17.9119 11.2111 17.9633 11.2746 18.0279C11.3381 18.0925 11.388 18.1691 11.4216 18.2533C11.4551 18.3374 11.4715 18.4274 11.4699 18.518Z" fill="white"/>
<path d="M22.5634 20.0549C22.5634 21.939 23.3938 23.4512 24.4226 23.4512C25.4514 23.4512 26.2819 21.939 26.2819 20.0549C26.2819 18.1709 25.4514 16.6587 24.4226 16.6587C23.3938 16.6587 22.5634 18.1833 22.5634 20.0549Z" fill="#472822"/>
<path d="M24.4226 18.5179C24.4226 18.6551 24.4633 18.7893 24.5396 18.9035C24.6159 19.0176 24.7243 19.1066 24.8511 19.1591C24.978 19.2117 25.1175 19.2254 25.2522 19.1986C25.3868 19.1719 25.5105 19.1057 25.6076 19.0087C25.7047 18.9116 25.7708 18.7879 25.7975 18.6533C25.8243 18.5186 25.8106 18.379 25.7581 18.2522C25.7055 18.1254 25.6165 18.017 25.5024 17.9407C25.3882 17.8644 25.254 17.8237 25.1167 17.8237C24.9327 17.8237 24.7561 17.8969 24.6259 18.027C24.4958 18.1572 24.4226 18.3338 24.4226 18.5179Z" fill="white"/>
<path d="M21.6833 40.8293C21.6833 44.6842 19.948 47.8077 17.7913 47.8077C15.6345 47.8077 13.9116 44.6842 13.9116 40.8293C13.9116 36.9744 15.6469 33.8633 17.7913 33.8633C19.9356 33.8633 21.6833 37.0364 21.6833 40.8293Z" fill="#381415"/>
<path d="M13.9116 48.353C14.2317 48.761 14.5752 49.15 14.9404 49.5181C15.6553 50.3122 16.632 50.8226 17.6921 50.956C17.9669 50.9682 18.2421 50.9432 18.5102 50.8816C18.7673 50.7912 19.0196 50.6877 19.2663 50.5717C19.4894 50.423 19.7373 50.3114 19.948 50.1627L20.5306 49.7041C20.8901 49.419 21.1503 49.1215 21.361 48.9356L21.6833 48.6505L21.4726 49.0224C21.2858 49.3624 21.0701 49.6859 20.8281 49.9892L20.2951 50.5717C20.0781 50.78 19.8415 50.9668 19.5886 51.1295C19.312 51.3059 19.0169 51.4514 18.7085 51.5633C18.3687 51.6528 18.0188 51.6986 17.6673 51.6997C17.3198 51.6812 16.9771 51.6101 16.6509 51.489C16.3434 51.3631 16.0521 51.2008 15.7833 51.0056C15.3377 50.654 14.9489 50.236 14.6305 49.7661C14.3235 49.3325 14.0813 48.8565 13.9116 48.353Z" fill="#2C405B"/>
<defs>
<filter id="filter0_d_260_15977" x="0.260254" y="7.47412" width="17.2503" height="22.3569" filterUnits="userSpaceOnUse" color-interpolation-filters="sRGB">
<feFlood flood-opacity="0" result="BackgroundImageFix"/>
<feColorMatrix in="SourceAlpha" type="matrix" values="0 0 0 0 0 0 0 0 0 0 0 0 0 0 0 0 0 0 127 0" result="hardAlpha"/>
<feOffset dy="2"/>
<feGaussianBlur stdDeviation="1"/>
<feComposite in2="hardAlpha" operator="out"/>
<feColorMatrix type="matrix" values="0 0 0 0 0 0 0 0 0 0 0 0 0 0 0 0 0 0 0.1 0"/>
<feBlend mode="normal" in2="BackgroundImageFix" result="effect1_dropShadow_260_15977"/>
<feBlend mode="normal" in="SourceGraphic" in2="effect1_dropShadow_260_15977" result="shape"/>
</filter>
<filter id="filter1_d_260_15977" x="18.4066" y="7.47412" width="15.7629" height="22.3569" filterUnits="userSpaceOnUse" color-interpolation-filters="sRGB">
<feFlood flood-opacity="0" result="BackgroundImageFix"/>
<feColorMatrix in="SourceAlpha" type="matrix" values="0 0 0 0 0 0 0 0 0 0 0 0 0 0 0 0 0 0 127 0" result="hardAlpha"/>
<feOffset dy="2"/>
<feGaussianBlur stdDeviation="1"/>
<feComposite in2="hardAlpha" operator="out"/>
<feColorMatrix type="matrix" values="0 0 0 0 0 0 0 0 0 0 0 0 0 0 0 0 0 0 0.1 0"/>
<feBlend mode="normal" in2="BackgroundImageFix" result="effect1_dropShadow_260_15977"/>
<feBlend mode="normal" in="SourceGraphic" in2="effect1_dropShadow_260_15977" result="shape"/>
</filter>
</defs>
</svg>
