<svg width="20" height="20" viewBox="0 0 20 20" fill="none" xmlns="http://www.w3.org/2000/svg">
<path d="M14.8611 1.6665H5.13888C4.21833 1.66761 3.33579 2.03378 2.68486 2.68471C2.03394 3.33564 1.66776 4.21817 1.66666 5.13873L1.66666 14.8609C1.66776 15.7815 2.03394 16.664 2.68486 17.315C3.33579 17.9659 4.21833 18.3321 5.13888 18.3332H14.8611C15.7817 18.3321 16.6642 17.9659 17.3151 17.315C17.966 16.664 18.3322 15.7815 18.3333 14.8609V5.13873C18.3322 4.21817 17.966 3.33564 17.3151 2.68471C16.6642 2.03378 15.7817 1.66761 14.8611 1.6665V1.6665ZM16.9444 14.8609C16.9444 15.4135 16.7249 15.9434 16.3342 16.3341C15.9435 16.7248 15.4136 16.9443 14.8611 16.9443H5.13888C4.58634 16.9443 4.05644 16.7248 3.66574 16.3341C3.27504 15.9434 3.05555 15.4135 3.05555 14.8609V5.13873C3.05555 4.58619 3.27504 4.05629 3.66574 3.66559C4.05644 3.27489 4.58634 3.05539 5.13888 3.05539H14.8611C15.4136 3.05539 15.9435 3.27489 16.3342 3.66559C16.7249 4.05629 16.9444 4.58619 16.9444 5.13873V14.8609Z" fill="#AAACAD"/>
<path d="M8.39201 12.4214L6.02911 10.0585C5.91604 9.94544 5.76271 9.88195 5.60284 9.88195C5.44296 9.88195 5.28963 9.94544 5.17656 10.0585C5.06353 10.1715 5.00003 10.3249 5.00003 10.4847C5.00003 10.6446 5.06353 10.798 5.17656 10.911L7.53946 13.2739C7.65144 13.3859 7.7844 13.4748 7.93073 13.5354C8.07706 13.5961 8.23391 13.6273 8.39231 13.6273C8.55071 13.6273 8.70755 13.5961 8.85389 13.5354C9.00022 13.4748 9.13318 13.3859 9.24516 13.2739L14.8235 7.69558C14.9365 7.58252 15 7.42918 15 7.26931C15 7.10943 14.9365 6.9561 14.8235 6.84303C14.7104 6.73 14.5571 6.6665 14.3972 6.6665C14.2373 6.6665 14.084 6.73 13.971 6.84303L8.39201 12.4214Z" fill="#AAACAD"/>
</svg>
