<svg width="20" height="20" viewBox="0 0 20 20" fill="none" xmlns="http://www.w3.org/2000/svg">
<g clip-path="url(#clip0_98_10858)">
<path d="M18.5894 3.27196C18.4871 2.95106 18.3046 2.69989 18.0776 2.51985C17.9373 2.40844 17.8578 2.23743 17.8578 2.05825V0.595238C17.8578 0.516326 17.8265 0.440646 17.7707 0.384846C17.7149 0.329047 17.6392 0.297699 17.5603 0.297699H16.9652C16.8863 0.29773 16.8107 0.329093 16.7549 0.38489C16.6991 0.440687 16.6678 0.51635 16.6678 0.595238V1.8361C16.6678 2.05582 16.5474 2.25922 16.3526 2.36086C16.0723 2.50735 15.8296 2.74414 15.6719 3.07434C15.0069 4.46731 13.8266 7.35121 11.4023 9.77082C8.98273 12.1951 6.09867 13.3754 4.70586 14.0405C3.43007 14.6497 3.54265 16.5243 4.90328 16.9579C5.69796 17.211 6.58085 17.3325 7.50507 17.3157C10.2014 17.267 13.0376 15.7547 15.212 13.5805C17.3862 11.4063 18.8985 8.57012 18.9471 5.87356C18.9639 4.94934 18.8425 4.06661 18.5894 3.27196Z" fill="#FFCF5D"/>
<path d="M17.3379 3.45215C17.3917 3.49489 17.43 3.55391 17.4552 3.63313C17.67 4.30743 17.7716 5.05383 17.7571 5.85219C17.7169 8.08411 16.4507 10.6586 14.3703 12.7391C12.2898 14.8195 9.71531 16.0855 7.48324 16.1259C6.85262 16.1374 6.3457 16.6374 6.31641 17.2586C6.70199 17.3039 7.09949 17.3232 7.50492 17.3158C10.2013 17.267 13.0375 15.7547 15.2118 13.5805C17.3861 11.4063 18.8984 8.57012 18.947 5.87356C18.9638 4.9495 18.8423 4.06661 18.5892 3.27196C18.487 2.95106 18.3045 2.69989 18.0774 2.51985C17.9372 2.40844 17.8577 2.23743 17.8577 2.05825V0.595238C17.8577 0.516326 17.8263 0.440646 17.7705 0.384846C17.7147 0.329047 17.6391 0.297699 17.5602 0.297699H16.965C16.8862 0.29773 16.8105 0.329093 16.7547 0.38489C16.699 0.440687 16.6676 0.51635 16.6677 0.595238V2.05825C16.6677 2.60621 16.912 3.11434 17.3379 3.45215Z" fill="#FFB545"/>
<path d="M3.49444 9.01561L2.49374 8.38194C2.24218 8.22264 1.92569 8.45975 2.0128 8.7428L2.30655 9.69647C2.52534 10.4076 2.97839 11.0255 3.59327 11.4522L4.57659 12.0991C4.57659 10.9405 4.53171 9.67252 3.49444 9.01561Z" fill="#28D05B"/>
<path d="M7.99555 8.87647L7.83684 8.71779C7.79776 8.67875 7.74859 8.65134 7.69483 8.63865C7.64107 8.62596 7.58483 8.62847 7.53242 8.64592C5.98305 9.16244 4.83848 10.3397 4.22266 12.0505L4.7825 12.252C5.31883 10.7619 6.24902 9.75994 7.54875 9.27139L7.57469 9.29733C7.6305 9.35314 7.70619 9.38449 7.78512 9.38449C7.86404 9.38449 7.93974 9.35314 7.99555 9.29733C8.05136 9.24152 8.08271 9.16582 8.08271 9.0869C8.08271 9.00797 8.05136 8.93228 7.99555 8.87647Z" fill="#B66652"/>
<path d="M6.223 11.6672C5.64605 11.6461 5.08699 11.7964 4.57718 12.0808C4.06738 11.7964 3.50828 11.646 2.93136 11.6672C1.72515 11.7186 0.857535 12.3656 0.394879 13.1985C-0.0695746 14.0451 -0.12895 15.0778 0.241363 16.2173C0.807769 17.9551 2.31078 19.5117 3.73871 19.5933C3.87894 19.6028 4.01613 19.6001 4.14949 19.5858C4.43191 19.5561 4.72246 19.5561 5.00472 19.5858C5.13808 19.6001 5.27527 19.6028 5.4155 19.5933C6.84339 19.5117 8.34656 17.9551 8.91296 16.2173C9.28328 15.0778 9.22379 14.0451 8.75945 13.1985C8.29679 12.3656 7.42921 11.7186 6.223 11.6672Z" fill="#FF5368"/>
<path d="M8.75918 13.1985C8.53273 12.7908 8.2091 12.4279 7.79637 12.1574C7.8395 12.2225 7.88011 12.2892 7.91813 12.3575C8.38246 13.204 8.44195 14.2367 8.07164 15.3764C7.69121 16.5431 6.88859 17.6283 5.97004 18.24C5.46281 18.578 4.86406 18.7523 4.25449 18.7523H1.91211C2.4793 19.2415 3.11602 19.5577 3.73859 19.5933C3.87883 19.6029 4.01598 19.6 4.14934 19.5859C4.43379 19.5558 4.72062 19.5559 5.00492 19.586C5.13828 19.6001 5.27531 19.6028 5.41539 19.5933C6.84313 19.5118 8.34645 17.9551 8.91266 16.2175C9.28301 15.0778 9.22352 14.0452 8.75918 13.1985Z" fill="#D9435B"/>
<path d="M16.9053 12.238C16.7802 11.7146 16.3097 11.3255 15.748 11.3255C15.1865 11.3255 14.7161 11.7146 14.591 12.238C12.9645 12.7331 11.7812 14.2448 11.7812 16.0331C11.7812 18.224 13.5571 20 15.748 20C17.9389 20 19.7148 18.224 19.7148 16.0332C19.7148 14.2448 18.5316 12.7331 16.9053 12.238Z" fill="#FF983B"/>
<path d="M18.1012 12.8392C18.5869 13.4974 18.8743 14.3112 18.8743 15.1921C18.8743 17.3829 17.0981 19.1589 14.9074 19.1589C14.0266 19.1589 13.2129 18.8716 12.5547 18.3859C13.277 19.3649 14.4385 20 15.7485 20C17.9393 20 19.7153 18.224 19.7153 16.0332C19.7153 14.7232 19.0802 13.5617 18.1012 12.8392Z" fill="#FF7E40"/>
<path d="M15.4512 9.73709V12.5032C15.4512 12.666 15.5768 12.8081 15.7396 12.813C15.908 12.8181 16.0463 12.683 16.0463 12.5155V9.41619C15.7908 9.24834 15.4512 9.43143 15.4512 9.73709Z" fill="#B66652"/>
<path d="M18.015 12.3811L17.7214 11.4274C17.5024 10.7164 17.0494 10.0983 16.4346 9.67178L16.0463 9.41631C15.7908 9.24834 15.4512 9.43143 15.4512 9.73709V10.1597C15.4512 10.9553 15.8317 11.6641 16.5333 12.1083L17.5341 12.7421C17.7856 12.9013 18.1021 12.664 18.015 12.3811Z" fill="#28D05B"/>
<path d="M14.2087 14.0626C14.2087 14.227 14.0757 14.3602 13.9113 14.3602C13.8324 14.3602 13.7567 14.3288 13.7009 14.273C13.6451 14.2172 13.6138 14.1415 13.6138 14.0626C13.6138 13.9837 13.6451 13.908 13.7009 13.8522C13.7567 13.7964 13.8324 13.7651 13.9113 13.7651C13.9504 13.7651 13.9891 13.7728 14.0252 13.7878C14.0612 13.8027 14.094 13.8246 14.1217 13.8523C14.1493 13.8799 14.1712 13.9127 14.1861 13.9488C14.201 13.9849 14.2087 14.0236 14.2087 14.0626ZM15.0021 15.1735C15.0021 15.3378 14.8691 15.471 14.7048 15.471C14.5404 15.471 14.4072 15.3378 14.4072 15.1735C14.4072 15.0091 14.5404 14.8759 14.7048 14.8759C14.8692 14.8759 15.0022 15.0091 15.0022 15.1735H15.0021ZM13.4154 16.0463C13.4154 16.2106 13.2822 16.3436 13.1179 16.3436C12.9535 16.3436 12.8203 16.2106 12.8203 16.0463C12.8203 15.9673 12.8517 15.8917 12.9075 15.8359C12.9633 15.7801 13.039 15.7487 13.1179 15.7487C13.1968 15.7487 13.2725 15.7801 13.3283 15.8359C13.3841 15.8917 13.4154 15.9673 13.4154 16.0463Z" fill="#FF7E40"/>
<path d="M11.4123 1.09773C11.3821 1.02483 11.3241 0.966907 11.2512 0.936711C11.1783 0.906515 11.0964 0.906518 11.0235 0.936717L10.8453 1.01043L10.9817 0.874022C11.0093 0.846412 11.0313 0.813623 11.0462 0.777529C11.0612 0.741435 11.0689 0.702744 11.0689 0.66367C11.0689 0.624596 11.0612 0.585906 11.0462 0.549811C11.0313 0.513717 11.0093 0.480928 10.9817 0.453318C10.9259 0.397553 10.8502 0.366228 10.7713 0.366228C10.6924 0.366228 10.6168 0.397553 10.561 0.453318L10.4246 0.589764L10.4984 0.411522C10.5286 0.338606 10.5286 0.256691 10.4984 0.183785C10.4682 0.11088 10.4102 0.0529505 10.3373 0.0227326C10.1857 -0.0402752 10.0116 0.0318732 9.94867 0.183865L9.78711 0.573865L10.8613 1.64793L11.2513 1.48637C11.3242 1.45616 11.3821 1.39824 11.4123 1.32536C11.4425 1.25247 11.4425 1.17058 11.4123 1.09769L11.4123 1.09773Z" fill="#28D05B"/>
<path d="M8.30483 0.886252C8.92448 0.266565 9.84506 0.350783 10.4647 0.970471C11.0844 1.59016 11.1684 2.51071 10.5488 3.13035C9.92913 3.75 8.27932 4.39516 7.65971 3.77547C7.04003 3.15582 7.68514 1.5061 8.30483 0.886252Z" fill="#FF5368"/>
<path d="M10.464 0.970472C10.3152 0.821683 10.1491 0.704183 9.97391 0.619339C10.242 1.17371 10.1779 1.81825 9.70703 2.28914C9.23613 2.76016 8.17062 3.24508 7.41406 3.17918C7.435 3.41813 7.51023 3.62672 7.65898 3.77547C8.27863 4.39516 9.92844 3.75 10.5481 3.13035C11.1679 2.51067 11.0837 1.59012 10.464 0.970472Z" fill="#D9435B"/>
<path d="M9.49703 2.23449C9.49577 2.31255 9.46387 2.38698 9.40822 2.44173C9.35258 2.49648 9.27764 2.52717 9.19957 2.52717C9.1215 2.52717 9.04656 2.49648 8.99092 2.44173C8.93527 2.38698 8.90337 2.31255 8.90211 2.23449C8.90147 2.19502 8.90869 2.15582 8.92335 2.11917C8.93801 2.08252 8.95982 2.04915 8.98751 2.02102C9.01519 1.99288 9.0482 1.97053 9.08461 1.95528C9.12102 1.94002 9.1601 1.93217 9.19957 1.93217C9.23904 1.93217 9.27812 1.94002 9.31453 1.95528C9.35094 1.97053 9.38395 1.99288 9.41163 2.02102C9.43932 2.04915 9.46113 2.08252 9.47579 2.11917C9.49045 2.15582 9.49767 2.19502 9.49703 2.23449ZM8.65551 3.07586C8.65615 3.11532 8.64893 3.15453 8.63426 3.19118C8.6196 3.22783 8.59779 3.26119 8.57011 3.28933C8.54242 3.31747 8.50942 3.33981 8.47301 3.35507C8.4366 3.37032 8.39752 3.37818 8.35805 3.37818C8.31857 3.37818 8.27949 3.37032 8.24309 3.35507C8.20668 3.33981 8.17367 3.31747 8.14599 3.28933C8.1183 3.26119 8.09649 3.22783 8.08183 3.19118C8.06717 3.15453 8.05995 3.11532 8.06059 3.07586C8.06185 2.9978 8.09375 2.92337 8.14939 2.86862C8.20504 2.81386 8.27998 2.78318 8.35805 2.78318C8.43611 2.78318 8.51105 2.81386 8.5667 2.86862C8.62235 2.92337 8.65424 2.9978 8.65551 3.07586ZM8.65551 2.23449C8.6555 2.27355 8.64779 2.31224 8.63283 2.34832C8.61787 2.38441 8.59595 2.4172 8.56832 2.44482C8.54069 2.47243 8.50789 2.49434 8.4718 2.50928C8.4357 2.52422 8.39702 2.5319 8.35795 2.53189C8.31888 2.53188 8.2802 2.52418 8.24411 2.50922C8.20803 2.49426 8.17524 2.47234 8.14762 2.44471C8.12001 2.41708 8.0981 2.38428 8.08316 2.34818C8.06822 2.31208 8.06054 2.2734 8.06055 2.23433C8.06057 2.15544 8.09193 2.07979 8.14773 2.02402C8.20353 1.96825 8.27919 1.93693 8.35809 1.93695C8.43698 1.93697 8.51263 1.96833 8.5684 2.02413C8.62417 2.07993 8.65549 2.1556 8.65547 2.23449H8.65551ZM9.49703 3.07586C9.49705 3.1347 9.47963 3.19223 9.44695 3.24117C9.41428 3.2901 9.36783 3.32825 9.31347 3.35079C9.25911 3.37333 9.19929 3.37924 9.14158 3.36777C9.08386 3.35631 9.03084 3.32799 8.98922 3.28639C8.9476 3.2448 8.91925 3.19179 8.90776 3.13408C8.89627 3.07637 8.90215 3.01655 8.92465 2.96218C8.94716 2.90781 8.98529 2.86134 9.03421 2.82864C9.08313 2.79594 9.14065 2.77848 9.19949 2.77847C9.27838 2.77846 9.35404 2.80979 9.40984 2.86555C9.46564 2.92132 9.497 2.99697 9.49703 3.07586ZM10.3386 2.23449C10.3385 2.31338 10.3072 2.38904 10.2514 2.44481C10.1955 2.50057 10.1199 2.53189 10.041 2.53187C10.0015 2.53251 9.96231 2.52529 9.92566 2.51063C9.88901 2.49597 9.85564 2.47416 9.8275 2.44647C9.79937 2.41879 9.77702 2.38578 9.76177 2.34937C9.74651 2.31296 9.73866 2.27389 9.73866 2.23441C9.73866 2.19494 9.74651 2.15586 9.76177 2.11945C9.77702 2.08304 9.79937 2.05003 9.8275 2.02235C9.85564 1.99466 9.88901 1.97286 9.92566 1.95819C9.96231 1.94353 10.0015 1.93631 10.041 1.93695C10.0801 1.93694 10.1187 1.94464 10.1549 1.95959C10.191 1.97454 10.2238 1.99645 10.2514 2.02408C10.279 2.05171 10.3009 2.08452 10.3159 2.12062C10.3309 2.15672 10.3386 2.19541 10.3386 2.23449ZM9.49703 1.39297C9.49577 1.47102 9.46387 1.54545 9.40822 1.60021C9.35258 1.65496 9.27764 1.68564 9.19957 1.68564C9.1215 1.68564 9.04656 1.65496 8.99092 1.60021C8.93527 1.54545 8.90337 1.47102 8.90211 1.39297C8.90147 1.3535 8.90869 1.3143 8.92335 1.27765C8.93801 1.241 8.95982 1.20763 8.98751 1.17949C9.01519 1.15135 9.0482 1.12901 9.08461 1.11375C9.12102 1.0985 9.1601 1.09064 9.19957 1.09064C9.23904 1.09064 9.27812 1.0985 9.31453 1.11375C9.35094 1.12901 9.38395 1.15135 9.41163 1.17949C9.43932 1.20763 9.46113 1.241 9.47579 1.27765C9.49045 1.3143 9.49767 1.3535 9.49703 1.39297Z" fill="#FFCF5D"/>
<path d="M7.3184 6.09941C7.3184 7.1948 6.43035 8.08273 5.33492 8.08273C4.23949 8.08273 3.35156 7.19484 3.35156 6.09941C3.35156 5.00398 4.23949 4.1159 5.33492 4.1159C6.43035 4.1159 7.3184 5.00398 7.3184 6.09941Z" fill="#5C87BD"/>
<path d="M6.25195 4.34098C6.4001 4.62404 6.47734 4.93884 6.47703 5.25832C6.47703 6.35364 5.58898 7.24168 4.49355 7.24168C4.17406 7.24205 3.85926 7.16487 3.57617 7.01676C3.9073 7.65016 4.57031 8.08274 5.33461 8.08274C6.43004 8.08274 7.31809 7.19485 7.31809 6.09942C7.31809 5.33497 6.88551 4.67207 6.25195 4.34098Z" fill="#456EA2"/>
<path d="M5.66636 5.40511L5.75347 5.318C5.80923 5.2622 5.84056 5.18653 5.84056 5.10765C5.84056 5.02876 5.80923 4.9531 5.75347 4.89729C5.69764 4.84153 5.62196 4.81021 5.54306 4.81021C5.46415 4.81021 5.38847 4.84153 5.33265 4.89729L5.24554 4.9844L5.15839 4.89729C5.10259 4.84153 5.02693 4.8102 4.94804 4.8102C4.86915 4.8102 4.79349 4.84153 4.73769 4.89729C4.71004 4.9249 4.6881 4.95769 4.67314 4.99379C4.65817 5.02988 4.65047 5.06857 4.65047 5.10765C4.65047 5.14672 4.65817 5.18541 4.67314 5.2215C4.6881 5.2576 4.71004 5.29039 4.73769 5.318L4.8248 5.40511L4.73769 5.49222C4.69602 5.53381 4.66764 5.58684 4.65613 5.64458C4.64462 5.70232 4.65051 5.76217 4.67304 5.81657C4.69557 5.87096 4.73374 5.91744 4.78271 5.95013C4.83167 5.98282 4.88924 6.00024 4.94812 6.00018C5.02429 6.00018 5.10038 5.97104 5.15855 5.91308L5.2455 5.82597L5.33261 5.91308C5.36023 5.94072 5.39304 5.96264 5.42915 5.97759C5.46526 5.99253 5.50396 6.00021 5.54304 6.00018C5.60191 6.00024 5.65948 5.98282 5.70845 5.95013C5.75742 5.91744 5.79558 5.87096 5.81812 5.81657C5.84065 5.76217 5.84653 5.70232 5.83503 5.64458C5.82352 5.58684 5.79513 5.53381 5.75347 5.49222L5.66636 5.40511Z" fill="#315588"/>
<path d="M13.0329 5.01113C12.9661 4.8625 12.7868 4.80085 12.6363 4.86328L12.4695 4.93226L12.5972 4.80468C12.7123 4.68945 12.724 4.50027 12.6125 4.38171C12.5852 4.35269 12.5523 4.32945 12.5158 4.31336C12.4794 4.29727 12.4401 4.28866 12.4002 4.28805C12.3604 4.28744 12.3208 4.29483 12.2839 4.30979C12.247 4.32476 12.2134 4.34698 12.1852 4.37515L12.0488 4.5114L12.1227 4.33335C12.1529 4.26045 12.1529 4.17853 12.1227 4.10561C12.0925 4.03269 12.0346 3.97475 11.9617 3.94453C11.9256 3.92955 11.8869 3.92183 11.8478 3.92181C11.8088 3.9218 11.77 3.92949 11.7339 3.94444C11.6978 3.9594 11.665 3.98132 11.6374 4.00896C11.6097 4.03661 11.5878 4.06943 11.5729 4.10554L11.4113 4.49554C11.3931 4.53933 11.3856 4.58685 11.3896 4.63411C11.3935 4.68138 11.4088 4.727 11.434 4.76714C11.514 4.89515 11.5001 5.06027 11.3933 5.16707L11.3907 5.16953C11.2722 5.28808 11.2656 5.48875 11.387 5.60441C11.4433 5.65796 11.5182 5.6874 11.5958 5.68645C11.6735 5.6855 11.7476 5.65424 11.8025 5.59933C11.9268 5.47515 12.0885 5.47074 12.2168 5.54886C12.2567 5.57336 12.3019 5.58802 12.3487 5.59165C12.3954 5.59529 12.4423 5.58778 12.4855 5.56976L12.8755 5.40816C12.9123 5.39291 12.9457 5.37042 12.9736 5.34204C13.0016 5.31366 13.0235 5.27995 13.0382 5.24292C13.0529 5.2059 13.06 5.1663 13.059 5.12648C13.0581 5.08667 13.0492 5.04744 13.0329 5.01113Z" fill="#28D05B"/>
<path d="M12.2065 5.19425C11.9892 5.13593 11.7632 5.20507 11.6146 5.36636L10.6385 5.06167L9.91612 5.81987L9.6096 6.9635C9.60608 6.96257 9.60256 6.96136 9.59905 6.9603C9.28167 6.87515 8.95546 7.06327 8.87014 7.38065C8.78483 7.69804 8.97315 8.0244 9.29053 8.10972C9.60792 8.19487 9.93428 8.00675 10.0194 7.68936C10.044 7.59796 10.0478 7.50397 10.028 7.41179C10.0889 7.5955 10.2393 7.74796 10.4403 7.80183C10.7578 7.88679 11.084 7.6985 11.1692 7.38112C11.1953 7.28378 11.1964 7.1814 11.1721 7.08358C11.1998 7.18027 11.2518 7.26825 11.3232 7.33917C11.5556 7.57155 11.9323 7.57155 12.1645 7.33917C12.3969 7.10675 12.3969 6.73003 12.1645 6.49765C12.0925 6.42572 12.0033 6.37341 11.9054 6.34569C12.2207 6.4264 12.5428 6.23827 12.6272 5.923C12.7123 5.60561 12.524 5.27925 12.2065 5.19425Z" fill="#D9435B"/>
<path d="M11.3649 4.35316C10.9224 4.2348 10.5183 4.64109 10.6363 5.08179C10.5674 4.8239 10.3328 4.64113 10.0615 4.64113C9.98331 4.64099 9.90591 4.65631 9.83371 4.68621C9.76151 4.71611 9.69593 4.76 9.64076 4.81535C9.40838 5.04777 9.40838 5.42449 9.64076 5.65687C9.71781 5.73434 9.81485 5.78892 9.92107 5.81453C9.59697 5.7196 9.2642 5.91203 9.17857 6.23199C9.09361 6.54937 9.2822 6.87562 9.59959 6.96058C9.91713 7.04542 10.2433 6.85699 10.3282 6.53949C10.3552 6.43877 10.3552 6.33271 10.3282 6.23199C10.3955 6.47859 10.6196 6.67265 10.903 6.67265C10.9039 6.67265 10.9048 6.67249 10.9057 6.67249C11.429 6.67023 11.6987 6.03179 11.3238 5.65687C11.2508 5.58336 11.1597 5.5304 11.0597 5.50335C11.3765 5.58671 11.7012 5.39839 11.7859 5.08179C11.8708 4.76421 11.6822 4.43816 11.3649 4.35316H11.3649Z" fill="#FF5368"/>
</g>
<defs>
<clipPath id="clip0_98_10858">
<rect width="20" height="20" fill="white"/>
</clipPath>
</defs>
</svg>
