<svg width="20" height="20" viewBox="0 0 20 20" fill="none" xmlns="http://www.w3.org/2000/svg">
<g clip-path="url(#clip0_98_10862)">
<path d="M8.52734 8.67378H11.3882V18.9544H8.52734V8.67378Z" fill="#95D528"/>
<path d="M10.3574 8.67378H11.3869V18.9544H10.3574V8.67378Z" fill="#89C627"/>
<path d="M16.0643 10.2762L14.23 11.8843C13.1272 12.8511 12.297 14.0889 11.8153 15.461C11.9322 14.3385 12.1863 13.2346 12.5719 12.174L13.8407 8.68648L12.6968 8.27031L11.428 11.7578C10.9967 12.9433 10.7166 14.1783 10.5942 15.4338L10.529 16.1026C10.4898 16.505 10.1579 16.8255 9.75363 16.8278C9.31984 16.8302 8.96746 16.4793 8.96746 16.0461V10.9485H7.75023V14.6795C7.40204 13.9273 6.96823 13.2177 6.45738 12.5649L4.80598 10.4562L3.84766 11.2068L5.49906 13.3154C6.51238 14.6093 7.17828 16.1521 7.42473 17.7769L7.63367 19.1544C7.65166 19.273 7.71156 19.3812 7.8025 19.4594C7.89345 19.5376 8.0094 19.5805 8.12934 19.5805H11.8157C11.9346 19.5805 12.0496 19.5383 12.1402 19.4613C12.2308 19.3844 12.2911 19.2777 12.3104 19.1604L12.6504 17.0895C12.9226 15.4311 13.7686 13.9075 15.0324 12.7996L16.8668 11.1915L16.0643 10.2762Z" fill="#B9EA6A"/>
<path d="M16.0647 10.2762L14.2303 11.8843C13.1275 12.8511 12.2974 14.0889 11.8157 15.461C11.8737 14.9049 11.9653 14.3528 12.0902 13.8078C11.3515 14.7603 10.8539 15.8895 10.657 17.0896L10.317 19.1605C10.2977 19.2778 10.2374 19.3844 10.1468 19.4614C10.0562 19.5383 9.94115 19.5806 9.82227 19.5806H11.816C11.9349 19.5806 12.0499 19.5383 12.1405 19.4614C12.2312 19.3844 12.2915 19.2778 12.3107 19.1605L12.6507 17.0896C12.923 15.4311 13.7689 13.9075 15.0328 12.7996L16.8671 11.1916L16.0647 10.2762Z" fill="#A1E42C"/>
<path d="M16.8173 5.87316C16.7014 5.87134 16.5855 5.87567 16.4701 5.88613C16.0124 5.92773 15.6142 5.5823 15.5862 5.12363C15.5856 5.11308 15.5849 5.10253 15.5841 5.09199C15.4715 3.49636 14.185 2.21043 12.5893 2.09914C12.3206 2.08014 12.0507 2.09448 11.7856 2.14183C11.4749 2.19754 11.1604 2.06633 10.9801 1.80734C10.3944 0.966404 9.42008 0.416833 8.3177 0.419451C7.21524 0.422029 6.24293 0.975974 5.6611 1.81968C5.49352 2.06269 5.20227 2.19465 4.90942 2.15761C4.77245 2.1403 4.63451 2.13178 4.49645 2.13211C2.71036 2.13629 1.26578 3.58762 1.27 5.37371C1.27047 5.57996 1.29051 5.78152 1.32805 5.97687C1.38157 6.25512 1.28676 6.54164 1.07578 6.73082C0.403207 7.3339 -0.0153871 8.21418 0.000433199 9.19172C0.0279332 10.8943 1.39731 12.3004 3.09871 12.3698C3.93512 12.4039 4.70391 12.12 5.29535 11.6296C5.58508 11.3895 5.99938 11.3902 6.29039 11.6288C6.87223 12.1059 7.62309 12.3841 8.43946 12.359C10.0839 12.3086 11.442 11.0071 11.5633 9.36633C11.5652 9.34144 11.5667 9.3166 11.568 9.29179C11.5892 8.87547 11.9402 8.55894 12.357 8.55914H12.366C12.4744 8.55889 12.5828 8.55326 12.6906 8.54226C13.1279 8.49754 13.5139 8.83469 13.5362 9.27367C13.5374 9.29722 13.5388 9.32082 13.5405 9.34449C13.6563 10.9531 14.9645 12.2427 16.5747 12.3353C18.4866 12.4452 20.063 10.8942 19.9981 8.99379C19.9395 7.28258 18.5293 5.89976 16.8173 5.87316Z" fill="#118E5E"/>
<path d="M19.9981 8.99378C19.9826 8.54105 19.8718 8.11171 19.6865 7.72394C19.1441 8.87468 17.9429 9.65433 16.5682 9.57531C14.958 9.48273 13.6498 8.19312 13.534 6.58449C13.5323 6.5609 13.5309 6.53729 13.5297 6.51367C13.5075 6.07468 13.1214 5.73754 12.6841 5.78226C12.5763 5.79327 12.4679 5.79891 12.3595 5.79914H12.3505C11.9336 5.79894 11.5827 6.11546 11.5615 6.53179C11.5602 6.55665 11.5587 6.5815 11.5568 6.60632C11.4355 8.24711 10.0775 9.54859 8.43297 9.59902C7.6166 9.62406 6.86571 9.34589 6.28391 8.86882C5.99285 8.63019 5.5786 8.62945 5.28887 8.86964C4.69742 9.35996 3.92864 9.64386 3.09223 9.60976C1.86438 9.55972 0.809729 8.81336 0.307268 7.76191C0.103206 8.19464 -0.00784914 8.6798 0.000432111 9.19171C0.0279321 10.8943 1.39731 12.3004 3.09871 12.3698C3.93512 12.4039 4.70391 12.12 5.29535 11.6296C5.58508 11.3894 5.99938 11.3902 6.29039 11.6288C6.87223 12.1059 7.62309 12.3841 8.43946 12.359C10.0839 12.3086 11.442 11.0071 11.5633 9.36632C11.5652 9.34144 11.5667 9.3166 11.568 9.29179C11.5892 8.87546 11.9402 8.55894 12.357 8.55914H12.366C12.4744 8.55889 12.5827 8.55325 12.6906 8.54226C13.1279 8.49757 13.5139 8.83468 13.5361 9.27367C13.5373 9.29722 13.5388 9.32082 13.5405 9.34449C13.6563 10.9531 14.9645 12.2427 16.5746 12.3353C18.4866 12.4453 20.0629 10.8942 19.9981 8.99378Z" fill="#017B4F"/>
<path d="M5.44902 5.66195C5.67005 5.66195 5.84922 5.48277 5.84922 5.26175C5.84922 5.04073 5.67005 4.86156 5.44902 4.86156C5.228 4.86156 5.04883 5.04073 5.04883 5.26175C5.04883 5.48277 5.228 5.66195 5.44902 5.66195Z" fill="#017B4F"/>
<path d="M6.61699 4.61207C6.83801 4.61207 7.01719 4.43289 7.01719 4.21187C7.01719 3.99085 6.83801 3.81168 6.61699 3.81168C6.39597 3.81168 6.2168 3.99085 6.2168 4.21187C6.2168 4.43289 6.39597 4.61207 6.61699 4.61207Z" fill="#017B4F"/>
<path d="M7.01738 7.41535C7.2384 7.41535 7.41758 7.23618 7.41758 7.01515C7.41758 6.79413 7.2384 6.61496 7.01738 6.61496C6.79636 6.61496 6.61719 6.79413 6.61719 7.01515C6.61719 7.23618 6.79636 7.41535 7.01738 7.41535Z" fill="#017B4F"/>
<path d="M8.07402 7.41535C8.29505 7.41535 8.47422 7.23618 8.47422 7.01515C8.47422 6.79413 8.29505 6.61496 8.07402 6.61496C7.853 6.61496 7.67383 6.79413 7.67383 7.01515C7.67383 7.23618 7.853 7.41535 8.07402 7.41535Z" fill="#017B4F"/>
<path d="M9.82207 5.92246C10.0431 5.92246 10.2223 5.74329 10.2223 5.52227C10.2223 5.30124 10.0431 5.12207 9.82207 5.12207C9.60105 5.12207 9.42188 5.30124 9.42188 5.52227C9.42188 5.74329 9.60105 5.92246 9.82207 5.92246Z" fill="#017B4F"/>
<path d="M17.3377 8.30097C17.5587 8.30097 17.7379 8.1218 17.7379 7.90077C17.7379 7.67975 17.5587 7.50058 17.3377 7.50058C17.1167 7.50058 16.9375 7.67975 16.9375 7.90077C16.9375 8.1218 17.1167 8.30097 17.3377 8.30097Z" fill="#017B4F"/>
<path d="M2.18535 8.30097C2.40637 8.30097 2.58555 8.1218 2.58555 7.90077C2.58555 7.67975 2.40637 7.50058 2.18535 7.50058C1.96433 7.50058 1.78516 7.67975 1.78516 7.90077C1.78516 8.1218 1.96433 8.30097 2.18535 8.30097Z" fill="#017B4F"/>
<path d="M3.84746 10.9155C4.06848 10.9155 4.24766 10.7363 4.24766 10.5153C4.24766 10.2943 4.06848 10.1151 3.84746 10.1151C3.62644 10.1151 3.44727 10.2943 3.44727 10.5153C3.44727 10.7363 3.62644 10.9155 3.84746 10.9155Z" fill="#118E5E"/>
</g>
<defs>
<clipPath id="clip0_98_10862">
<rect width="20" height="20" fill="white"/>
</clipPath>
</defs>
</svg>
