<svg fill="none" height="30" viewBox="0 55 375 30" width="375" xmlns="http://www.w3.org/2000/svg">
    <path
        d="M25.725 20.4764C14.945 25.5812 4.08333 23.9328 0 22.4705V66.8116C4.98334 65.8218 17.105 65.0299 25.725 69.781C36.5 75.7198 51.1 75.2249 58.8 70.7708C66.5 66.3167 78.5667 63.3473 92.2834 68.7912C106 74.2351 112.25 76.2147 128.625 68.7912C145 61.3677 157.068 73.7382 161 76.2147L161.153 76.3111C166.889 79.9269 188.246 93.3888 211.517 77.2045C235 60.8728 245.8 66.8116 249.9 68.7912C254 70.7708 265.45 77.6994 282.975 68.7912C300.5 59.883 310.333 66.3167 314.417 68.7912C318.5 71.2657 331.717 81.1638 345.858 68.7912C357.172 58.8932 370 63.3473 375 66.8116V22.671C370.202 25.7512 357.565 30.8047 345.858 20.8752C333.445 10.3466 319.725 16.4883 314.417 20.8752C310.47 24.1987 298.655 28.8515 282.975 20.8752C267.295 12.899 255.617 17.8688 249.9 20.8752C244.592 23.6669 233.73 28.1337 211.517 12.5001C183.75 -7.04177 163.333 12.8989 162.108 14.0954C160.883 15.2918 148.633 28.8515 128.625 20.8752C108.617 12.8989 106.575 16.0895 92.2834 20.8752C77.9917 25.661 68.1917 23.2681 58.8 19.28C49.4083 15.2918 39.2 14.0954 25.725 20.4764Z"
        fill="#FAAF87" />
    <path
        d="M25.725 16.5174C14.945 21.6223 4.08333 19.9738 0 18.5115V62.8526C4.98334 61.8628 17.105 61.071 25.725 65.822C36.5 71.7608 51.1 71.266 58.8 66.8118C66.5 62.3577 78.5667 59.3883 92.2834 64.8322C106 70.2761 112.25 72.2558 128.625 64.8322C145 57.4087 158.438 69.4135 162.108 72.2558C168.5 77.2048 188.033 89.5773 211.517 73.2456C235 56.9138 245.8 62.8526 249.9 64.8322C254 66.8118 265.45 73.7405 282.975 64.8322C300.5 55.924 310.333 62.3577 314.417 64.8322C318.5 67.3067 331.717 77.2048 345.858 64.8322C357.172 54.9342 370 59.3883 375 62.8526V18.712C370.202 21.7922 357.565 26.8457 345.858 16.9163C333.445 6.38758 319.725 12.5293 314.417 16.9163C310.47 20.2397 298.655 24.8925 282.975 16.9163C267.295 8.94 255.617 13.9098 249.9 16.9163C244.592 19.7079 233.73 24.1747 211.517 8.54115C183.75 -11.0008 163.333 8.93996 162.108 10.1364C160.883 11.3329 148.633 24.8925 128.625 16.9163C108.617 8.93996 106.575 12.1305 92.2834 16.9163C77.9917 21.702 68.1917 19.3091 58.8 15.321C49.4083 11.3329 39.2 10.1364 25.725 16.5174Z"
        fill="white" />
</svg>
